<?xml version="1.0" encoding="utf-8" standalone="no"?>
<!DOCTYPE svg PUBLIC "-//W3C//DTD SVG 1.1//EN"
  "http://www.w3.org/Graphics/SVG/1.1/DTD/svg11.dtd">
<!-- Created with matplotlib (http://matplotlib.org/) -->
<svg height="474pt" version="1.1" viewBox="0 0 830 474" width="830pt" xmlns="http://www.w3.org/2000/svg" xmlns:xlink="http://www.w3.org/1999/xlink">
 <defs>
  <style type="text/css">
*{stroke-linecap:butt;stroke-linejoin:round;}
  </style>
 </defs>
 <g id="figure_1">
  <g id="patch_1">
   <path d="
M0 474.281
L830.1 474.281
L830.1 0
L0 0
z
" style="fill:#ffffff;"/>
  </g>
  <g id="axes_1">
   <g id="patch_2">
    <path d="
M41.7 416.207
L822.9 416.207
L822.9 13.0069
L41.7 13.0069
z
" style="fill:#ffffff;"/>
   </g>
   <g id="patch_3">
    <path clip-path="url(#pc85b7ca771)" d="
M44.955 416.207
L70.995 416.207
L70.995 416.207
L44.955 416.207
z
" style="fill:#66c2a5;stroke:#ffffff;stroke-linejoin:miter;"/>
   </g>
   <g id="patch_4">
    <path clip-path="url(#pc85b7ca771)" d="
M77.505 416.207
L103.545 416.207
L103.545 416.207
L77.505 416.207
z
" style="fill:#66c2a5;stroke:#ffffff;stroke-linejoin:miter;"/>
   </g>
   <g id="patch_5">
    <path clip-path="url(#pc85b7ca771)" d="
M110.055 416.207
L136.095 416.207
L136.095 416.207
L110.055 416.207
z
" style="fill:#66c2a5;stroke:#ffffff;stroke-linejoin:miter;"/>
   </g>
   <g id="patch_6">
    <path clip-path="url(#pc85b7ca771)" d="
M142.605 416.207
L168.645 416.207
L168.645 416.207
L142.605 416.207
z
" style="fill:#66c2a5;stroke:#ffffff;stroke-linejoin:miter;"/>
   </g>
   <g id="patch_7">
    <path clip-path="url(#pc85b7ca771)" d="
M175.155 416.207
L201.195 416.207
L201.195 416.207
L175.155 416.207
z
" style="fill:#66c2a5;stroke:#ffffff;stroke-linejoin:miter;"/>
   </g>
   <g id="patch_8">
    <path clip-path="url(#pc85b7ca771)" d="
M207.705 416.207
L233.745 416.207
L233.745 416.207
L207.705 416.207
z
" style="fill:#66c2a5;stroke:#ffffff;stroke-linejoin:miter;"/>
   </g>
   <g id="patch_9">
    <path clip-path="url(#pc85b7ca771)" d="
M240.255 416.207
L266.295 416.207
L266.295 416.207
L240.255 416.207
z
" style="fill:#66c2a5;stroke:#ffffff;stroke-linejoin:miter;"/>
   </g>
   <g id="patch_10">
    <path clip-path="url(#pc85b7ca771)" d="
M272.805 416.207
L298.845 416.207
L298.845 416.207
L272.805 416.207
z
" style="fill:#66c2a5;stroke:#ffffff;stroke-linejoin:miter;"/>
   </g>
   <g id="patch_11">
    <path clip-path="url(#pc85b7ca771)" d="
M305.355 416.207
L331.395 416.207
L331.395 409.487
L305.355 409.487
z
" style="fill:#66c2a5;stroke:#ffffff;stroke-linejoin:miter;"/>
   </g>
   <g id="patch_12">
    <path clip-path="url(#pc85b7ca771)" d="
M337.905 416.207
L363.945 416.207
L363.945 389.327
L337.905 389.327
z
" style="fill:#66c2a5;stroke:#ffffff;stroke-linejoin:miter;"/>
   </g>
   <g id="patch_13">
    <path clip-path="url(#pc85b7ca771)" d="
M370.455 416.207
L396.495 416.207
L396.495 409.487
L370.455 409.487
z
" style="fill:#66c2a5;stroke:#ffffff;stroke-linejoin:miter;"/>
   </g>
   <g id="patch_14">
    <path clip-path="url(#pc85b7ca771)" d="
M403.005 416.207
L429.045 416.207
L429.045 389.327
L403.005 389.327
z
" style="fill:#66c2a5;stroke:#ffffff;stroke-linejoin:miter;"/>
   </g>
   <g id="patch_15">
    <path clip-path="url(#pc85b7ca771)" d="
M435.555 416.207
L461.595 416.207
L461.595 396.047
L435.555 396.047
z
" style="fill:#66c2a5;stroke:#ffffff;stroke-linejoin:miter;"/>
   </g>
   <g id="patch_16">
    <path clip-path="url(#pc85b7ca771)" d="
M468.105 416.207
L494.145 416.207
L494.145 402.767
L468.105 402.767
z
" style="fill:#66c2a5;stroke:#ffffff;stroke-linejoin:miter;"/>
   </g>
   <g id="patch_17">
    <path clip-path="url(#pc85b7ca771)" d="
M500.655 416.207
L526.695 416.207
L526.695 355.727
L500.655 355.727
z
" style="fill:#66c2a5;stroke:#ffffff;stroke-linejoin:miter;"/>
   </g>
   <g id="patch_18">
    <path clip-path="url(#pc85b7ca771)" d="
M533.205 416.207
L559.245 416.207
L559.245 342.287
L533.205 342.287
z
" style="fill:#66c2a5;stroke:#ffffff;stroke-linejoin:miter;"/>
   </g>
   <g id="patch_19">
    <path clip-path="url(#pc85b7ca771)" d="
M565.755 416.207
L591.795 416.207
L591.795 402.767
L565.755 402.767
z
" style="fill:#66c2a5;stroke:#ffffff;stroke-linejoin:miter;"/>
   </g>
   <g id="patch_20">
    <path clip-path="url(#pc85b7ca771)" d="
M598.305 416.207
L624.345 416.207
L624.345 396.047
L598.305 396.047
z
" style="fill:#66c2a5;stroke:#ffffff;stroke-linejoin:miter;"/>
   </g>
   <g id="patch_21">
    <path clip-path="url(#pc85b7ca771)" d="
M630.855 416.207
L656.895 416.207
L656.895 382.607
L630.855 382.607
z
" style="fill:#66c2a5;stroke:#ffffff;stroke-linejoin:miter;"/>
   </g>
   <g id="patch_22">
    <path clip-path="url(#pc85b7ca771)" d="
M663.405 416.207
L689.445 416.207
L689.445 402.767
L663.405 402.767
z
" style="fill:#66c2a5;stroke:#ffffff;stroke-linejoin:miter;"/>
   </g>
   <g id="patch_23">
    <path clip-path="url(#pc85b7ca771)" d="
M695.955 416.207
L721.995 416.207
L721.995 328.847
L695.955 328.847
z
" style="fill:#66c2a5;stroke:#ffffff;stroke-linejoin:miter;"/>
   </g>
   <g id="patch_24">
    <path clip-path="url(#pc85b7ca771)" d="
M728.505 416.207
L754.545 416.207
L754.545 382.607
L728.505 382.607
z
" style="fill:#66c2a5;stroke:#ffffff;stroke-linejoin:miter;"/>
   </g>
   <g id="patch_25">
    <path clip-path="url(#pc85b7ca771)" d="
M761.055 416.207
L787.095 416.207
L787.095 416.207
L761.055 416.207
z
" style="fill:#66c2a5;stroke:#ffffff;stroke-linejoin:miter;"/>
   </g>
   <g id="patch_26">
    <path clip-path="url(#pc85b7ca771)" d="
M44.955 416.207
L70.995 416.207
L70.995 416.207
L44.955 416.207
z
" style="fill:#fc8d62;stroke:#ffffff;stroke-linejoin:miter;"/>
   </g>
   <g id="patch_27">
    <path clip-path="url(#pc85b7ca771)" d="
M77.505 416.207
L103.545 416.207
L103.545 416.207
L77.505 416.207
z
" style="fill:#fc8d62;stroke:#ffffff;stroke-linejoin:miter;"/>
   </g>
   <g id="patch_28">
    <path clip-path="url(#pc85b7ca771)" d="
M110.055 416.207
L136.095 416.207
L136.095 416.207
L110.055 416.207
z
" style="fill:#fc8d62;stroke:#ffffff;stroke-linejoin:miter;"/>
   </g>
   <g id="patch_29">
    <path clip-path="url(#pc85b7ca771)" d="
M142.605 416.207
L168.645 416.207
L168.645 416.207
L142.605 416.207
z
" style="fill:#fc8d62;stroke:#ffffff;stroke-linejoin:miter;"/>
   </g>
   <g id="patch_30">
    <path clip-path="url(#pc85b7ca771)" d="
M175.155 416.207
L201.195 416.207
L201.195 416.207
L175.155 416.207
z
" style="fill:#fc8d62;stroke:#ffffff;stroke-linejoin:miter;"/>
   </g>
   <g id="patch_31">
    <path clip-path="url(#pc85b7ca771)" d="
M207.705 416.207
L233.745 416.207
L233.745 416.207
L207.705 416.207
z
" style="fill:#fc8d62;stroke:#ffffff;stroke-linejoin:miter;"/>
   </g>
   <g id="patch_32">
    <path clip-path="url(#pc85b7ca771)" d="
M240.255 416.207
L266.295 416.207
L266.295 416.207
L240.255 416.207
z
" style="fill:#fc8d62;stroke:#ffffff;stroke-linejoin:miter;"/>
   </g>
   <g id="patch_33">
    <path clip-path="url(#pc85b7ca771)" d="
M272.805 416.207
L298.845 416.207
L298.845 416.207
L272.805 416.207
z
" style="fill:#fc8d62;stroke:#ffffff;stroke-linejoin:miter;"/>
   </g>
   <g id="patch_34">
    <path clip-path="url(#pc85b7ca771)" d="
M305.355 409.487
L331.395 409.487
L331.395 409.487
L305.355 409.487
z
" style="fill:#fc8d62;stroke:#ffffff;stroke-linejoin:miter;"/>
   </g>
   <g id="patch_35">
    <path clip-path="url(#pc85b7ca771)" d="
M337.905 389.327
L363.945 389.327
L363.945 389.327
L337.905 389.327
z
" style="fill:#fc8d62;stroke:#ffffff;stroke-linejoin:miter;"/>
   </g>
   <g id="patch_36">
    <path clip-path="url(#pc85b7ca771)" d="
M370.455 409.487
L396.495 409.487
L396.495 409.487
L370.455 409.487
z
" style="fill:#fc8d62;stroke:#ffffff;stroke-linejoin:miter;"/>
   </g>
   <g id="patch_37">
    <path clip-path="url(#pc85b7ca771)" d="
M403.005 389.327
L429.045 389.327
L429.045 389.327
L403.005 389.327
z
" style="fill:#fc8d62;stroke:#ffffff;stroke-linejoin:miter;"/>
   </g>
   <g id="patch_38">
    <path clip-path="url(#pc85b7ca771)" d="
M435.555 396.047
L461.595 396.047
L461.595 396.047
L435.555 396.047
z
" style="fill:#fc8d62;stroke:#ffffff;stroke-linejoin:miter;"/>
   </g>
   <g id="patch_39">
    <path clip-path="url(#pc85b7ca771)" d="
M468.105 402.767
L494.145 402.767
L494.145 402.767
L468.105 402.767
z
" style="fill:#fc8d62;stroke:#ffffff;stroke-linejoin:miter;"/>
   </g>
   <g id="patch_40">
    <path clip-path="url(#pc85b7ca771)" d="
M500.655 355.727
L526.695 355.727
L526.695 355.727
L500.655 355.727
z
" style="fill:#fc8d62;stroke:#ffffff;stroke-linejoin:miter;"/>
   </g>
   <g id="patch_41">
    <path clip-path="url(#pc85b7ca771)" d="
M533.205 342.287
L559.245 342.287
L559.245 342.287
L533.205 342.287
z
" style="fill:#fc8d62;stroke:#ffffff;stroke-linejoin:miter;"/>
   </g>
   <g id="patch_42">
    <path clip-path="url(#pc85b7ca771)" d="
M565.755 402.767
L591.795 402.767
L591.795 402.767
L565.755 402.767
z
" style="fill:#fc8d62;stroke:#ffffff;stroke-linejoin:miter;"/>
   </g>
   <g id="patch_43">
    <path clip-path="url(#pc85b7ca771)" d="
M598.305 396.047
L624.345 396.047
L624.345 396.047
L598.305 396.047
z
" style="fill:#fc8d62;stroke:#ffffff;stroke-linejoin:miter;"/>
   </g>
   <g id="patch_44">
    <path clip-path="url(#pc85b7ca771)" d="
M630.855 382.607
L656.895 382.607
L656.895 382.607
L630.855 382.607
z
" style="fill:#fc8d62;stroke:#ffffff;stroke-linejoin:miter;"/>
   </g>
   <g id="patch_45">
    <path clip-path="url(#pc85b7ca771)" d="
M663.405 402.767
L689.445 402.767
L689.445 402.767
L663.405 402.767
z
" style="fill:#fc8d62;stroke:#ffffff;stroke-linejoin:miter;"/>
   </g>
   <g id="patch_46">
    <path clip-path="url(#pc85b7ca771)" d="
M695.955 328.847
L721.995 328.847
L721.995 328.847
L695.955 328.847
z
" style="fill:#fc8d62;stroke:#ffffff;stroke-linejoin:miter;"/>
   </g>
   <g id="patch_47">
    <path clip-path="url(#pc85b7ca771)" d="
M728.505 382.607
L754.545 382.607
L754.545 382.607
L728.505 382.607
z
" style="fill:#fc8d62;stroke:#ffffff;stroke-linejoin:miter;"/>
   </g>
   <g id="patch_48">
    <path clip-path="url(#pc85b7ca771)" d="
M761.055 416.207
L787.095 416.207
L787.095 416.207
L761.055 416.207
z
" style="fill:#fc8d62;stroke:#ffffff;stroke-linejoin:miter;"/>
   </g>
   <g id="patch_49">
    <path clip-path="url(#pc85b7ca771)" d="
M44.955 416.207
L70.995 416.207
L70.995 416.207
L44.955 416.207
z
" style="fill:#8da0cb;stroke:#ffffff;stroke-linejoin:miter;"/>
   </g>
   <g id="patch_50">
    <path clip-path="url(#pc85b7ca771)" d="
M77.505 416.207
L103.545 416.207
L103.545 416.207
L77.505 416.207
z
" style="fill:#8da0cb;stroke:#ffffff;stroke-linejoin:miter;"/>
   </g>
   <g id="patch_51">
    <path clip-path="url(#pc85b7ca771)" d="
M110.055 416.207
L136.095 416.207
L136.095 409.487
L110.055 409.487
z
" style="fill:#8da0cb;stroke:#ffffff;stroke-linejoin:miter;"/>
   </g>
   <g id="patch_52">
    <path clip-path="url(#pc85b7ca771)" d="
M142.605 416.207
L168.645 416.207
L168.645 416.207
L142.605 416.207
z
" style="fill:#8da0cb;stroke:#ffffff;stroke-linejoin:miter;"/>
   </g>
   <g id="patch_53">
    <path clip-path="url(#pc85b7ca771)" d="
M175.155 416.207
L201.195 416.207
L201.195 416.207
L175.155 416.207
z
" style="fill:#8da0cb;stroke:#ffffff;stroke-linejoin:miter;"/>
   </g>
   <g id="patch_54">
    <path clip-path="url(#pc85b7ca771)" d="
M207.705 416.207
L233.745 416.207
L233.745 416.207
L207.705 416.207
z
" style="fill:#8da0cb;stroke:#ffffff;stroke-linejoin:miter;"/>
   </g>
   <g id="patch_55">
    <path clip-path="url(#pc85b7ca771)" d="
M240.255 416.207
L266.295 416.207
L266.295 416.207
L240.255 416.207
z
" style="fill:#8da0cb;stroke:#ffffff;stroke-linejoin:miter;"/>
   </g>
   <g id="patch_56">
    <path clip-path="url(#pc85b7ca771)" d="
M272.805 416.207
L298.845 416.207
L298.845 416.207
L272.805 416.207
z
" style="fill:#8da0cb;stroke:#ffffff;stroke-linejoin:miter;"/>
   </g>
   <g id="patch_57">
    <path clip-path="url(#pc85b7ca771)" d="
M305.355 409.487
L331.395 409.487
L331.395 402.767
L305.355 402.767
z
" style="fill:#8da0cb;stroke:#ffffff;stroke-linejoin:miter;"/>
   </g>
   <g id="patch_58">
    <path clip-path="url(#pc85b7ca771)" d="
M337.905 389.327
L363.945 389.327
L363.945 369.167
L337.905 369.167
z
" style="fill:#8da0cb;stroke:#ffffff;stroke-linejoin:miter;"/>
   </g>
   <g id="patch_59">
    <path clip-path="url(#pc85b7ca771)" d="
M370.455 409.487
L396.495 409.487
L396.495 382.607
L370.455 382.607
z
" style="fill:#8da0cb;stroke:#ffffff;stroke-linejoin:miter;"/>
   </g>
   <g id="patch_60">
    <path clip-path="url(#pc85b7ca771)" d="
M403.005 389.327
L429.045 389.327
L429.045 349.007
L403.005 349.007
z
" style="fill:#8da0cb;stroke:#ffffff;stroke-linejoin:miter;"/>
   </g>
   <g id="patch_61">
    <path clip-path="url(#pc85b7ca771)" d="
M435.555 396.047
L461.595 396.047
L461.595 382.607
L435.555 382.607
z
" style="fill:#8da0cb;stroke:#ffffff;stroke-linejoin:miter;"/>
   </g>
   <g id="patch_62">
    <path clip-path="url(#pc85b7ca771)" d="
M468.105 402.767
L494.145 402.767
L494.145 396.047
L468.105 396.047
z
" style="fill:#8da0cb;stroke:#ffffff;stroke-linejoin:miter;"/>
   </g>
   <g id="patch_63">
    <path clip-path="url(#pc85b7ca771)" d="
M500.655 355.727
L526.695 355.727
L526.695 322.127
L500.655 322.127
z
" style="fill:#8da0cb;stroke:#ffffff;stroke-linejoin:miter;"/>
   </g>
   <g id="patch_64">
    <path clip-path="url(#pc85b7ca771)" d="
M533.205 342.287
L559.245 342.287
L559.245 308.687
L533.205 308.687
z
" style="fill:#8da0cb;stroke:#ffffff;stroke-linejoin:miter;"/>
   </g>
   <g id="patch_65">
    <path clip-path="url(#pc85b7ca771)" d="
M565.755 402.767
L591.795 402.767
L591.795 375.887
L565.755 375.887
z
" style="fill:#8da0cb;stroke:#ffffff;stroke-linejoin:miter;"/>
   </g>
   <g id="patch_66">
    <path clip-path="url(#pc85b7ca771)" d="
M598.305 396.047
L624.345 396.047
L624.345 382.607
L598.305 382.607
z
" style="fill:#8da0cb;stroke:#ffffff;stroke-linejoin:miter;"/>
   </g>
   <g id="patch_67">
    <path clip-path="url(#pc85b7ca771)" d="
M630.855 382.607
L656.895 382.607
L656.895 342.287
L630.855 342.287
z
" style="fill:#8da0cb;stroke:#ffffff;stroke-linejoin:miter;"/>
   </g>
   <g id="patch_68">
    <path clip-path="url(#pc85b7ca771)" d="
M663.405 402.767
L689.445 402.767
L689.445 382.607
L663.405 382.607
z
" style="fill:#8da0cb;stroke:#ffffff;stroke-linejoin:miter;"/>
   </g>
   <g id="patch_69">
    <path clip-path="url(#pc85b7ca771)" d="
M695.955 328.847
L721.995 328.847
L721.995 261.647
L695.955 261.647
z
" style="fill:#8da0cb;stroke:#ffffff;stroke-linejoin:miter;"/>
   </g>
   <g id="patch_70">
    <path clip-path="url(#pc85b7ca771)" d="
M728.505 382.607
L754.545 382.607
L754.545 382.607
L728.505 382.607
z
" style="fill:#8da0cb;stroke:#ffffff;stroke-linejoin:miter;"/>
   </g>
   <g id="patch_71">
    <path clip-path="url(#pc85b7ca771)" d="
M761.055 416.207
L787.095 416.207
L787.095 416.207
L761.055 416.207
z
" style="fill:#8da0cb;stroke:#ffffff;stroke-linejoin:miter;"/>
   </g>
   <g id="patch_72">
    <path clip-path="url(#pc85b7ca771)" d="
M44.955 416.207
L70.995 416.207
L70.995 416.207
L44.955 416.207
z
" style="fill:#e78ac3;stroke:#ffffff;stroke-linejoin:miter;"/>
   </g>
   <g id="patch_73">
    <path clip-path="url(#pc85b7ca771)" d="
M77.505 416.207
L103.545 416.207
L103.545 416.207
L77.505 416.207
z
" style="fill:#e78ac3;stroke:#ffffff;stroke-linejoin:miter;"/>
   </g>
   <g id="patch_74">
    <path clip-path="url(#pc85b7ca771)" d="
M110.055 409.487
L136.095 409.487
L136.095 409.487
L110.055 409.487
z
" style="fill:#e78ac3;stroke:#ffffff;stroke-linejoin:miter;"/>
   </g>
   <g id="patch_75">
    <path clip-path="url(#pc85b7ca771)" d="
M142.605 416.207
L168.645 416.207
L168.645 416.207
L142.605 416.207
z
" style="fill:#e78ac3;stroke:#ffffff;stroke-linejoin:miter;"/>
   </g>
   <g id="patch_76">
    <path clip-path="url(#pc85b7ca771)" d="
M175.155 416.207
L201.195 416.207
L201.195 416.207
L175.155 416.207
z
" style="fill:#e78ac3;stroke:#ffffff;stroke-linejoin:miter;"/>
   </g>
   <g id="patch_77">
    <path clip-path="url(#pc85b7ca771)" d="
M207.705 416.207
L233.745 416.207
L233.745 416.207
L207.705 416.207
z
" style="fill:#e78ac3;stroke:#ffffff;stroke-linejoin:miter;"/>
   </g>
   <g id="patch_78">
    <path clip-path="url(#pc85b7ca771)" d="
M240.255 416.207
L266.295 416.207
L266.295 416.207
L240.255 416.207
z
" style="fill:#e78ac3;stroke:#ffffff;stroke-linejoin:miter;"/>
   </g>
   <g id="patch_79">
    <path clip-path="url(#pc85b7ca771)" d="
M272.805 416.207
L298.845 416.207
L298.845 416.207
L272.805 416.207
z
" style="fill:#e78ac3;stroke:#ffffff;stroke-linejoin:miter;"/>
   </g>
   <g id="patch_80">
    <path clip-path="url(#pc85b7ca771)" d="
M305.355 402.767
L331.395 402.767
L331.395 402.767
L305.355 402.767
z
" style="fill:#e78ac3;stroke:#ffffff;stroke-linejoin:miter;"/>
   </g>
   <g id="patch_81">
    <path clip-path="url(#pc85b7ca771)" d="
M337.905 369.167
L363.945 369.167
L363.945 362.447
L337.905 362.447
z
" style="fill:#e78ac3;stroke:#ffffff;stroke-linejoin:miter;"/>
   </g>
   <g id="patch_82">
    <path clip-path="url(#pc85b7ca771)" d="
M370.455 382.607
L396.495 382.607
L396.495 369.167
L370.455 369.167
z
" style="fill:#e78ac3;stroke:#ffffff;stroke-linejoin:miter;"/>
   </g>
   <g id="patch_83">
    <path clip-path="url(#pc85b7ca771)" d="
M403.005 349.007
L429.045 349.007
L429.045 308.687
L403.005 308.687
z
" style="fill:#e78ac3;stroke:#ffffff;stroke-linejoin:miter;"/>
   </g>
   <g id="patch_84">
    <path clip-path="url(#pc85b7ca771)" d="
M435.555 382.607
L461.595 382.607
L461.595 375.887
L435.555 375.887
z
" style="fill:#e78ac3;stroke:#ffffff;stroke-linejoin:miter;"/>
   </g>
   <g id="patch_85">
    <path clip-path="url(#pc85b7ca771)" d="
M468.105 396.047
L494.145 396.047
L494.145 382.607
L468.105 382.607
z
" style="fill:#e78ac3;stroke:#ffffff;stroke-linejoin:miter;"/>
   </g>
   <g id="patch_86">
    <path clip-path="url(#pc85b7ca771)" d="
M500.655 322.127
L526.695 322.127
L526.695 281.807
L500.655 281.807
z
" style="fill:#e78ac3;stroke:#ffffff;stroke-linejoin:miter;"/>
   </g>
   <g id="patch_87">
    <path clip-path="url(#pc85b7ca771)" d="
M533.205 308.687
L559.245 308.687
L559.245 261.647
L533.205 261.647
z
" style="fill:#e78ac3;stroke:#ffffff;stroke-linejoin:miter;"/>
   </g>
   <g id="patch_88">
    <path clip-path="url(#pc85b7ca771)" d="
M565.755 375.887
L591.795 375.887
L591.795 362.447
L565.755 362.447
z
" style="fill:#e78ac3;stroke:#ffffff;stroke-linejoin:miter;"/>
   </g>
   <g id="patch_89">
    <path clip-path="url(#pc85b7ca771)" d="
M598.305 382.607
L624.345 382.607
L624.345 355.727
L598.305 355.727
z
" style="fill:#e78ac3;stroke:#ffffff;stroke-linejoin:miter;"/>
   </g>
   <g id="patch_90">
    <path clip-path="url(#pc85b7ca771)" d="
M630.855 342.287
L656.895 342.287
L656.895 328.847
L630.855 328.847
z
" style="fill:#e78ac3;stroke:#ffffff;stroke-linejoin:miter;"/>
   </g>
   <g id="patch_91">
    <path clip-path="url(#pc85b7ca771)" d="
M663.405 382.607
L689.445 382.607
L689.445 369.167
L663.405 369.167
z
" style="fill:#e78ac3;stroke:#ffffff;stroke-linejoin:miter;"/>
   </g>
   <g id="patch_92">
    <path clip-path="url(#pc85b7ca771)" d="
M695.955 261.647
L721.995 261.647
L721.995 181.007
L695.955 181.007
z
" style="fill:#e78ac3;stroke:#ffffff;stroke-linejoin:miter;"/>
   </g>
   <g id="patch_93">
    <path clip-path="url(#pc85b7ca771)" d="
M728.505 382.607
L754.545 382.607
L754.545 349.007
L728.505 349.007
z
" style="fill:#e78ac3;stroke:#ffffff;stroke-linejoin:miter;"/>
   </g>
   <g id="patch_94">
    <path clip-path="url(#pc85b7ca771)" d="
M761.055 416.207
L787.095 416.207
L787.095 416.207
L761.055 416.207
z
" style="fill:#e78ac3;stroke:#ffffff;stroke-linejoin:miter;"/>
   </g>
   <g id="patch_95">
    <path clip-path="url(#pc85b7ca771)" d="
M44.955 416.207
L70.995 416.207
L70.995 416.207
L44.955 416.207
z
" style="fill:#a6d854;stroke:#ffffff;stroke-linejoin:miter;"/>
   </g>
   <g id="patch_96">
    <path clip-path="url(#pc85b7ca771)" d="
M77.505 416.207
L103.545 416.207
L103.545 416.207
L77.505 416.207
z
" style="fill:#a6d854;stroke:#ffffff;stroke-linejoin:miter;"/>
   </g>
   <g id="patch_97">
    <path clip-path="url(#pc85b7ca771)" d="
M110.055 409.487
L136.095 409.487
L136.095 409.487
L110.055 409.487
z
" style="fill:#a6d854;stroke:#ffffff;stroke-linejoin:miter;"/>
   </g>
   <g id="patch_98">
    <path clip-path="url(#pc85b7ca771)" d="
M142.605 416.207
L168.645 416.207
L168.645 416.207
L142.605 416.207
z
" style="fill:#a6d854;stroke:#ffffff;stroke-linejoin:miter;"/>
   </g>
   <g id="patch_99">
    <path clip-path="url(#pc85b7ca771)" d="
M175.155 416.207
L201.195 416.207
L201.195 416.207
L175.155 416.207
z
" style="fill:#a6d854;stroke:#ffffff;stroke-linejoin:miter;"/>
   </g>
   <g id="patch_100">
    <path clip-path="url(#pc85b7ca771)" d="
M207.705 416.207
L233.745 416.207
L233.745 416.207
L207.705 416.207
z
" style="fill:#a6d854;stroke:#ffffff;stroke-linejoin:miter;"/>
   </g>
   <g id="patch_101">
    <path clip-path="url(#pc85b7ca771)" d="
M240.255 416.207
L266.295 416.207
L266.295 416.207
L240.255 416.207
z
" style="fill:#a6d854;stroke:#ffffff;stroke-linejoin:miter;"/>
   </g>
   <g id="patch_102">
    <path clip-path="url(#pc85b7ca771)" d="
M272.805 416.207
L298.845 416.207
L298.845 416.207
L272.805 416.207
z
" style="fill:#a6d854;stroke:#ffffff;stroke-linejoin:miter;"/>
   </g>
   <g id="patch_103">
    <path clip-path="url(#pc85b7ca771)" d="
M305.355 402.767
L331.395 402.767
L331.395 402.767
L305.355 402.767
z
" style="fill:#a6d854;stroke:#ffffff;stroke-linejoin:miter;"/>
   </g>
   <g id="patch_104">
    <path clip-path="url(#pc85b7ca771)" d="
M337.905 362.447
L363.945 362.447
L363.945 349.007
L337.905 349.007
z
" style="fill:#a6d854;stroke:#ffffff;stroke-linejoin:miter;"/>
   </g>
   <g id="patch_105">
    <path clip-path="url(#pc85b7ca771)" d="
M370.455 369.167
L396.495 369.167
L396.495 342.287
L370.455 342.287
z
" style="fill:#a6d854;stroke:#ffffff;stroke-linejoin:miter;"/>
   </g>
   <g id="patch_106">
    <path clip-path="url(#pc85b7ca771)" d="
M403.005 308.687
L429.045 308.687
L429.045 288.527
L403.005 288.527
z
" style="fill:#a6d854;stroke:#ffffff;stroke-linejoin:miter;"/>
   </g>
   <g id="patch_107">
    <path clip-path="url(#pc85b7ca771)" d="
M435.555 375.887
L461.595 375.887
L461.595 328.847
L435.555 328.847
z
" style="fill:#a6d854;stroke:#ffffff;stroke-linejoin:miter;"/>
   </g>
   <g id="patch_108">
    <path clip-path="url(#pc85b7ca771)" d="
M468.105 382.607
L494.145 382.607
L494.145 362.447
L468.105 362.447
z
" style="fill:#a6d854;stroke:#ffffff;stroke-linejoin:miter;"/>
   </g>
   <g id="patch_109">
    <path clip-path="url(#pc85b7ca771)" d="
M500.655 281.807
L526.695 281.807
L526.695 221.327
L500.655 221.327
z
" style="fill:#a6d854;stroke:#ffffff;stroke-linejoin:miter;"/>
   </g>
   <g id="patch_110">
    <path clip-path="url(#pc85b7ca771)" d="
M533.205 261.647
L559.245 261.647
L559.245 248.207
L533.205 248.207
z
" style="fill:#a6d854;stroke:#ffffff;stroke-linejoin:miter;"/>
   </g>
   <g id="patch_111">
    <path clip-path="url(#pc85b7ca771)" d="
M565.755 362.447
L591.795 362.447
L591.795 335.567
L565.755 335.567
z
" style="fill:#a6d854;stroke:#ffffff;stroke-linejoin:miter;"/>
   </g>
   <g id="patch_112">
    <path clip-path="url(#pc85b7ca771)" d="
M598.305 355.727
L624.345 355.727
L624.345 349.007
L598.305 349.007
z
" style="fill:#a6d854;stroke:#ffffff;stroke-linejoin:miter;"/>
   </g>
   <g id="patch_113">
    <path clip-path="url(#pc85b7ca771)" d="
M630.855 328.847
L656.895 328.847
L656.895 322.127
L630.855 322.127
z
" style="fill:#a6d854;stroke:#ffffff;stroke-linejoin:miter;"/>
   </g>
   <g id="patch_114">
    <path clip-path="url(#pc85b7ca771)" d="
M663.405 369.167
L689.445 369.167
L689.445 355.727
L663.405 355.727
z
" style="fill:#a6d854;stroke:#ffffff;stroke-linejoin:miter;"/>
   </g>
   <g id="patch_115">
    <path clip-path="url(#pc85b7ca771)" d="
M695.955 181.007
L721.995 181.007
L721.995 107.087
L695.955 107.087
z
" style="fill:#a6d854;stroke:#ffffff;stroke-linejoin:miter;"/>
   </g>
   <g id="patch_116">
    <path clip-path="url(#pc85b7ca771)" d="
M728.505 349.007
L754.545 349.007
L754.545 335.567
L728.505 335.567
z
" style="fill:#a6d854;stroke:#ffffff;stroke-linejoin:miter;"/>
   </g>
   <g id="patch_117">
    <path clip-path="url(#pc85b7ca771)" d="
M761.055 416.207
L787.095 416.207
L787.095 416.207
L761.055 416.207
z
" style="fill:#a6d854;stroke:#ffffff;stroke-linejoin:miter;"/>
   </g>
   <g id="patch_118">
    <path clip-path="url(#pc85b7ca771)" d="
M44.955 416.207
L70.995 416.207
L70.995 416.207
L44.955 416.207
z
" style="fill:#ffd92f;stroke:#ffffff;stroke-linejoin:miter;"/>
   </g>
   <g id="patch_119">
    <path clip-path="url(#pc85b7ca771)" d="
M77.505 416.207
L103.545 416.207
L103.545 416.207
L77.505 416.207
z
" style="fill:#ffd92f;stroke:#ffffff;stroke-linejoin:miter;"/>
   </g>
   <g id="patch_120">
    <path clip-path="url(#pc85b7ca771)" d="
M110.055 409.487
L136.095 409.487
L136.095 409.487
L110.055 409.487
z
" style="fill:#ffd92f;stroke:#ffffff;stroke-linejoin:miter;"/>
   </g>
   <g id="patch_121">
    <path clip-path="url(#pc85b7ca771)" d="
M142.605 416.207
L168.645 416.207
L168.645 416.207
L142.605 416.207
z
" style="fill:#ffd92f;stroke:#ffffff;stroke-linejoin:miter;"/>
   </g>
   <g id="patch_122">
    <path clip-path="url(#pc85b7ca771)" d="
M175.155 416.207
L201.195 416.207
L201.195 416.207
L175.155 416.207
z
" style="fill:#ffd92f;stroke:#ffffff;stroke-linejoin:miter;"/>
   </g>
   <g id="patch_123">
    <path clip-path="url(#pc85b7ca771)" d="
M207.705 416.207
L233.745 416.207
L233.745 416.207
L207.705 416.207
z
" style="fill:#ffd92f;stroke:#ffffff;stroke-linejoin:miter;"/>
   </g>
   <g id="patch_124">
    <path clip-path="url(#pc85b7ca771)" d="
M240.255 416.207
L266.295 416.207
L266.295 416.207
L240.255 416.207
z
" style="fill:#ffd92f;stroke:#ffffff;stroke-linejoin:miter;"/>
   </g>
   <g id="patch_125">
    <path clip-path="url(#pc85b7ca771)" d="
M272.805 416.207
L298.845 416.207
L298.845 416.207
L272.805 416.207
z
" style="fill:#ffd92f;stroke:#ffffff;stroke-linejoin:miter;"/>
   </g>
   <g id="patch_126">
    <path clip-path="url(#pc85b7ca771)" d="
M305.355 402.767
L331.395 402.767
L331.395 402.767
L305.355 402.767
z
" style="fill:#ffd92f;stroke:#ffffff;stroke-linejoin:miter;"/>
   </g>
   <g id="patch_127">
    <path clip-path="url(#pc85b7ca771)" d="
M337.905 349.007
L363.945 349.007
L363.945 349.007
L337.905 349.007
z
" style="fill:#ffd92f;stroke:#ffffff;stroke-linejoin:miter;"/>
   </g>
   <g id="patch_128">
    <path clip-path="url(#pc85b7ca771)" d="
M370.455 342.287
L396.495 342.287
L396.495 342.287
L370.455 342.287
z
" style="fill:#ffd92f;stroke:#ffffff;stroke-linejoin:miter;"/>
   </g>
   <g id="patch_129">
    <path clip-path="url(#pc85b7ca771)" d="
M403.005 288.527
L429.045 288.527
L429.045 288.527
L403.005 288.527
z
" style="fill:#ffd92f;stroke:#ffffff;stroke-linejoin:miter;"/>
   </g>
   <g id="patch_130">
    <path clip-path="url(#pc85b7ca771)" d="
M435.555 328.847
L461.595 328.847
L461.595 328.847
L435.555 328.847
z
" style="fill:#ffd92f;stroke:#ffffff;stroke-linejoin:miter;"/>
   </g>
   <g id="patch_131">
    <path clip-path="url(#pc85b7ca771)" d="
M468.105 362.447
L494.145 362.447
L494.145 362.447
L468.105 362.447
z
" style="fill:#ffd92f;stroke:#ffffff;stroke-linejoin:miter;"/>
   </g>
   <g id="patch_132">
    <path clip-path="url(#pc85b7ca771)" d="
M500.655 221.327
L526.695 221.327
L526.695 221.327
L500.655 221.327
z
" style="fill:#ffd92f;stroke:#ffffff;stroke-linejoin:miter;"/>
   </g>
   <g id="patch_133">
    <path clip-path="url(#pc85b7ca771)" d="
M533.205 248.207
L559.245 248.207
L559.245 248.207
L533.205 248.207
z
" style="fill:#ffd92f;stroke:#ffffff;stroke-linejoin:miter;"/>
   </g>
   <g id="patch_134">
    <path clip-path="url(#pc85b7ca771)" d="
M565.755 335.567
L591.795 335.567
L591.795 335.567
L565.755 335.567
z
" style="fill:#ffd92f;stroke:#ffffff;stroke-linejoin:miter;"/>
   </g>
   <g id="patch_135">
    <path clip-path="url(#pc85b7ca771)" d="
M598.305 349.007
L624.345 349.007
L624.345 349.007
L598.305 349.007
z
" style="fill:#ffd92f;stroke:#ffffff;stroke-linejoin:miter;"/>
   </g>
   <g id="patch_136">
    <path clip-path="url(#pc85b7ca771)" d="
M630.855 322.127
L656.895 322.127
L656.895 322.127
L630.855 322.127
z
" style="fill:#ffd92f;stroke:#ffffff;stroke-linejoin:miter;"/>
   </g>
   <g id="patch_137">
    <path clip-path="url(#pc85b7ca771)" d="
M663.405 355.727
L689.445 355.727
L689.445 355.727
L663.405 355.727
z
" style="fill:#ffd92f;stroke:#ffffff;stroke-linejoin:miter;"/>
   </g>
   <g id="patch_138">
    <path clip-path="url(#pc85b7ca771)" d="
M695.955 107.087
L721.995 107.087
L721.995 107.087
L695.955 107.087
z
" style="fill:#ffd92f;stroke:#ffffff;stroke-linejoin:miter;"/>
   </g>
   <g id="patch_139">
    <path clip-path="url(#pc85b7ca771)" d="
M728.505 335.567
L754.545 335.567
L754.545 335.567
L728.505 335.567
z
" style="fill:#ffd92f;stroke:#ffffff;stroke-linejoin:miter;"/>
   </g>
   <g id="patch_140">
    <path clip-path="url(#pc85b7ca771)" d="
M761.055 416.207
L787.095 416.207
L787.095 416.207
L761.055 416.207
z
" style="fill:#ffd92f;stroke:#ffffff;stroke-linejoin:miter;"/>
   </g>
   <g id="patch_141">
    <path clip-path="url(#pc85b7ca771)" d="
M44.955 416.207
L70.995 416.207
L70.995 416.207
L44.955 416.207
z
" style="fill:#e5c494;stroke:#ffffff;stroke-linejoin:miter;"/>
   </g>
   <g id="patch_142">
    <path clip-path="url(#pc85b7ca771)" d="
M77.505 416.207
L103.545 416.207
L103.545 416.207
L77.505 416.207
z
" style="fill:#e5c494;stroke:#ffffff;stroke-linejoin:miter;"/>
   </g>
   <g id="patch_143">
    <path clip-path="url(#pc85b7ca771)" d="
M110.055 409.487
L136.095 409.487
L136.095 409.487
L110.055 409.487
z
" style="fill:#e5c494;stroke:#ffffff;stroke-linejoin:miter;"/>
   </g>
   <g id="patch_144">
    <path clip-path="url(#pc85b7ca771)" d="
M142.605 416.207
L168.645 416.207
L168.645 416.207
L142.605 416.207
z
" style="fill:#e5c494;stroke:#ffffff;stroke-linejoin:miter;"/>
   </g>
   <g id="patch_145">
    <path clip-path="url(#pc85b7ca771)" d="
M175.155 416.207
L201.195 416.207
L201.195 416.207
L175.155 416.207
z
" style="fill:#e5c494;stroke:#ffffff;stroke-linejoin:miter;"/>
   </g>
   <g id="patch_146">
    <path clip-path="url(#pc85b7ca771)" d="
M207.705 416.207
L233.745 416.207
L233.745 416.207
L207.705 416.207
z
" style="fill:#e5c494;stroke:#ffffff;stroke-linejoin:miter;"/>
   </g>
   <g id="patch_147">
    <path clip-path="url(#pc85b7ca771)" d="
M240.255 416.207
L266.295 416.207
L266.295 416.207
L240.255 416.207
z
" style="fill:#e5c494;stroke:#ffffff;stroke-linejoin:miter;"/>
   </g>
   <g id="patch_148">
    <path clip-path="url(#pc85b7ca771)" d="
M272.805 416.207
L298.845 416.207
L298.845 416.207
L272.805 416.207
z
" style="fill:#e5c494;stroke:#ffffff;stroke-linejoin:miter;"/>
   </g>
   <g id="patch_149">
    <path clip-path="url(#pc85b7ca771)" d="
M305.355 402.767
L331.395 402.767
L331.395 396.047
L305.355 396.047
z
" style="fill:#e5c494;stroke:#ffffff;stroke-linejoin:miter;"/>
   </g>
   <g id="patch_150">
    <path clip-path="url(#pc85b7ca771)" d="
M337.905 349.007
L363.945 349.007
L363.945 342.287
L337.905 342.287
z
" style="fill:#e5c494;stroke:#ffffff;stroke-linejoin:miter;"/>
   </g>
   <g id="patch_151">
    <path clip-path="url(#pc85b7ca771)" d="
M370.455 342.287
L396.495 342.287
L396.495 328.847
L370.455 328.847
z
" style="fill:#e5c494;stroke:#ffffff;stroke-linejoin:miter;"/>
   </g>
   <g id="patch_152">
    <path clip-path="url(#pc85b7ca771)" d="
M403.005 288.527
L429.045 288.527
L429.045 268.367
L403.005 268.367
z
" style="fill:#e5c494;stroke:#ffffff;stroke-linejoin:miter;"/>
   </g>
   <g id="patch_153">
    <path clip-path="url(#pc85b7ca771)" d="
M435.555 328.847
L461.595 328.847
L461.595 315.407
L435.555 315.407
z
" style="fill:#e5c494;stroke:#ffffff;stroke-linejoin:miter;"/>
   </g>
   <g id="patch_154">
    <path clip-path="url(#pc85b7ca771)" d="
M468.105 362.447
L494.145 362.447
L494.145 335.567
L468.105 335.567
z
" style="fill:#e5c494;stroke:#ffffff;stroke-linejoin:miter;"/>
   </g>
   <g id="patch_155">
    <path clip-path="url(#pc85b7ca771)" d="
M500.655 221.327
L526.695 221.327
L526.695 154.127
L500.655 154.127
z
" style="fill:#e5c494;stroke:#ffffff;stroke-linejoin:miter;"/>
   </g>
   <g id="patch_156">
    <path clip-path="url(#pc85b7ca771)" d="
M533.205 248.207
L559.245 248.207
L559.245 248.207
L533.205 248.207
z
" style="fill:#e5c494;stroke:#ffffff;stroke-linejoin:miter;"/>
   </g>
   <g id="patch_157">
    <path clip-path="url(#pc85b7ca771)" d="
M565.755 335.567
L591.795 335.567
L591.795 301.967
L565.755 301.967
z
" style="fill:#e5c494;stroke:#ffffff;stroke-linejoin:miter;"/>
   </g>
   <g id="patch_158">
    <path clip-path="url(#pc85b7ca771)" d="
M598.305 349.007
L624.345 349.007
L624.345 315.407
L598.305 315.407
z
" style="fill:#e5c494;stroke:#ffffff;stroke-linejoin:miter;"/>
   </g>
   <g id="patch_159">
    <path clip-path="url(#pc85b7ca771)" d="
M630.855 322.127
L656.895 322.127
L656.895 301.967
L630.855 301.967
z
" style="fill:#e5c494;stroke:#ffffff;stroke-linejoin:miter;"/>
   </g>
   <g id="patch_160">
    <path clip-path="url(#pc85b7ca771)" d="
M663.405 355.727
L689.445 355.727
L689.445 315.407
L663.405 315.407
z
" style="fill:#e5c494;stroke:#ffffff;stroke-linejoin:miter;"/>
   </g>
   <g id="patch_161">
    <path clip-path="url(#pc85b7ca771)" d="
M695.955 107.087
L721.995 107.087
L721.995 60.0469
L695.955 60.0469
z
" style="fill:#e5c494;stroke:#ffffff;stroke-linejoin:miter;"/>
   </g>
   <g id="patch_162">
    <path clip-path="url(#pc85b7ca771)" d="
M728.505 335.567
L754.545 335.567
L754.545 322.127
L728.505 322.127
z
" style="fill:#e5c494;stroke:#ffffff;stroke-linejoin:miter;"/>
   </g>
   <g id="patch_163">
    <path clip-path="url(#pc85b7ca771)" d="
M761.055 416.207
L787.095 416.207
L787.095 416.207
L761.055 416.207
z
" style="fill:#e5c494;stroke:#ffffff;stroke-linejoin:miter;"/>
   </g>
   <g id="patch_164">
    <path d="
M41.7 416.207
L822.9 416.207" style="fill:none;stroke:#000000;stroke-linecap:square;stroke-linejoin:miter;stroke-width:0.5;"/>
   </g>
   <g id="patch_165">
    <path d="
M41.7 416.207
L41.7 13.0069" style="fill:none;stroke:#000000;stroke-linecap:square;stroke-linejoin:miter;stroke-width:0.5;"/>
   </g>
   <g id="matplotlib.axis_1">
    <g id="xtick_1">
     <g id="text_1">
      <!-- 0 Uhr -->
      <defs>
       <path id="BitstreamVeraSans-Roman-20"/>
       <path d="
M31.7812 66.4062
Q24.1719 66.4062 20.3281 58.9062
Q16.5 51.4219 16.5 36.375
Q16.5 21.3906 20.3281 13.8906
Q24.1719 6.39062 31.7812 6.39062
Q39.4531 6.39062 43.2812 13.8906
Q47.125 21.3906 47.125 36.375
Q47.125 51.4219 43.2812 58.9062
Q39.4531 66.4062 31.7812 66.4062
M31.7812 74.2188
Q44.0469 74.2188 50.5156 64.5156
Q56.9844 54.8281 56.9844 36.375
Q56.9844 17.9688 50.5156 8.26562
Q44.0469 -1.42188 31.7812 -1.42188
Q19.5312 -1.42188 13.0625 8.26562
Q6.59375 17.9688 6.59375 36.375
Q6.59375 54.8281 13.0625 64.5156
Q19.5312 74.2188 31.7812 74.2188" id="BitstreamVeraSans-Roman-30"/>
       <path d="
M41.1094 46.2969
Q39.5938 47.1719 37.8125 47.5781
Q36.0312 48 33.8906 48
Q26.2656 48 22.1875 43.0469
Q18.1094 38.0938 18.1094 28.8125
L18.1094 0
L9.07812 0
L9.07812 54.6875
L18.1094 54.6875
L18.1094 46.1875
Q20.9531 51.1719 25.4844 53.5781
Q30.0312 56 36.5312 56
Q37.4531 56 38.5781 55.875
Q39.7031 55.7656 41.0625 55.5156
z
" id="BitstreamVeraSans-Roman-72"/>
       <path d="
M8.6875 72.9062
L18.6094 72.9062
L18.6094 28.6094
Q18.6094 16.8906 22.8438 11.7344
Q27.0938 6.59375 36.625 6.59375
Q46.0938 6.59375 50.3438 11.7344
Q54.5938 16.8906 54.5938 28.6094
L54.5938 72.9062
L64.5 72.9062
L64.5 27.3906
Q64.5 13.1406 57.4375 5.85938
Q50.3906 -1.42188 36.625 -1.42188
Q22.7969 -1.42188 15.7344 5.85938
Q8.6875 13.1406 8.6875 27.3906
z
" id="BitstreamVeraSans-Roman-55"/>
       <path d="
M54.8906 33.0156
L54.8906 0
L45.9062 0
L45.9062 32.7188
Q45.9062 40.4844 42.875 44.3281
Q39.8438 48.1875 33.7969 48.1875
Q26.5156 48.1875 22.3125 43.5469
Q18.1094 38.9219 18.1094 30.9062
L18.1094 0
L9.07812 0
L9.07812 75.9844
L18.1094 75.9844
L18.1094 46.1875
Q21.3438 51.125 25.7031 53.5625
Q30.0781 56 35.7969 56
Q45.2188 56 50.0469 50.1719
Q54.8906 44.3438 54.8906 33.0156" id="BitstreamVeraSans-Roman-68"/>
      </defs>
      <g transform="translate(12.0730762839 444.488090385)rotate(-30.0)scale(0.12 -0.12)">
       <use xlink:href="#BitstreamVeraSans-Roman-30"/>
       <use x="63.623046875" xlink:href="#BitstreamVeraSans-Roman-20"/>
       <use x="95.41015625" xlink:href="#BitstreamVeraSans-Roman-55"/>
       <use x="168.603515625" xlink:href="#BitstreamVeraSans-Roman-68"/>
       <use x="231.982421875" xlink:href="#BitstreamVeraSans-Roman-72"/>
      </g>
     </g>
    </g>
    <g id="xtick_2">
     <g id="text_2">
      <!-- 1 Uhr -->
      <defs>
       <path d="
M12.4062 8.29688
L28.5156 8.29688
L28.5156 63.9219
L10.9844 60.4062
L10.9844 69.3906
L28.4219 72.9062
L38.2812 72.9062
L38.2812 8.29688
L54.3906 8.29688
L54.3906 0
L12.4062 0
z
" id="BitstreamVeraSans-Roman-31"/>
      </defs>
      <g transform="translate(44.6230762839 444.488090385)rotate(-30.0)scale(0.12 -0.12)">
       <use xlink:href="#BitstreamVeraSans-Roman-31"/>
       <use x="63.623046875" xlink:href="#BitstreamVeraSans-Roman-20"/>
       <use x="95.41015625" xlink:href="#BitstreamVeraSans-Roman-55"/>
       <use x="168.603515625" xlink:href="#BitstreamVeraSans-Roman-68"/>
       <use x="231.982421875" xlink:href="#BitstreamVeraSans-Roman-72"/>
      </g>
     </g>
    </g>
    <g id="xtick_3">
     <g id="text_3">
      <!-- 2 Uhr -->
      <defs>
       <path d="
M19.1875 8.29688
L53.6094 8.29688
L53.6094 0
L7.32812 0
L7.32812 8.29688
Q12.9375 14.1094 22.625 23.8906
Q32.3281 33.6875 34.8125 36.5312
Q39.5469 41.8438 41.4219 45.5312
Q43.3125 49.2188 43.3125 52.7812
Q43.3125 58.5938 39.2344 62.25
Q35.1562 65.9219 28.6094 65.9219
Q23.9688 65.9219 18.8125 64.3125
Q13.6719 62.7031 7.8125 59.4219
L7.8125 69.3906
Q13.7656 71.7812 18.9375 73
Q24.125 74.2188 28.4219 74.2188
Q39.75 74.2188 46.4844 68.5469
Q53.2188 62.8906 53.2188 53.4219
Q53.2188 48.9219 51.5312 44.8906
Q49.8594 40.875 45.4062 35.4062
Q44.1875 33.9844 37.6406 27.2188
Q31.1094 20.4531 19.1875 8.29688" id="BitstreamVeraSans-Roman-32"/>
      </defs>
      <g transform="translate(77.1730762839 444.488090385)rotate(-30.0)scale(0.12 -0.12)">
       <use xlink:href="#BitstreamVeraSans-Roman-32"/>
       <use x="63.623046875" xlink:href="#BitstreamVeraSans-Roman-20"/>
       <use x="95.41015625" xlink:href="#BitstreamVeraSans-Roman-55"/>
       <use x="168.603515625" xlink:href="#BitstreamVeraSans-Roman-68"/>
       <use x="231.982421875" xlink:href="#BitstreamVeraSans-Roman-72"/>
      </g>
     </g>
    </g>
    <g id="xtick_4">
     <g id="text_4">
      <!-- 3 Uhr -->
      <defs>
       <path d="
M40.5781 39.3125
Q47.6562 37.7969 51.625 33
Q55.6094 28.2188 55.6094 21.1875
Q55.6094 10.4062 48.1875 4.48438
Q40.7656 -1.42188 27.0938 -1.42188
Q22.5156 -1.42188 17.6562 -0.515625
Q12.7969 0.390625 7.625 2.20312
L7.625 11.7188
Q11.7188 9.32812 16.5938 8.10938
Q21.4844 6.89062 26.8125 6.89062
Q36.0781 6.89062 40.9375 10.5469
Q45.7969 14.2031 45.7969 21.1875
Q45.7969 27.6406 41.2812 31.2656
Q36.7656 34.9062 28.7188 34.9062
L20.2188 34.9062
L20.2188 43.0156
L29.1094 43.0156
Q36.375 43.0156 40.2344 45.9219
Q44.0938 48.8281 44.0938 54.2969
Q44.0938 59.9062 40.1094 62.9062
Q36.1406 65.9219 28.7188 65.9219
Q24.6562 65.9219 20.0156 65.0312
Q15.375 64.1562 9.8125 62.3125
L9.8125 71.0938
Q15.4375 72.6562 20.3438 73.4375
Q25.25 74.2188 29.5938 74.2188
Q40.8281 74.2188 47.3594 69.1094
Q53.9062 64.0156 53.9062 55.3281
Q53.9062 49.2656 50.4375 45.0938
Q46.9688 40.9219 40.5781 39.3125" id="BitstreamVeraSans-Roman-33"/>
      </defs>
      <g transform="translate(109.723076284 444.488090385)rotate(-30.0)scale(0.12 -0.12)">
       <use xlink:href="#BitstreamVeraSans-Roman-33"/>
       <use x="63.623046875" xlink:href="#BitstreamVeraSans-Roman-20"/>
       <use x="95.41015625" xlink:href="#BitstreamVeraSans-Roman-55"/>
       <use x="168.603515625" xlink:href="#BitstreamVeraSans-Roman-68"/>
       <use x="231.982421875" xlink:href="#BitstreamVeraSans-Roman-72"/>
      </g>
     </g>
    </g>
    <g id="xtick_5">
     <g id="text_5">
      <!-- 4 Uhr -->
      <defs>
       <path d="
M37.7969 64.3125
L12.8906 25.3906
L37.7969 25.3906
z

M35.2031 72.9062
L47.6094 72.9062
L47.6094 25.3906
L58.0156 25.3906
L58.0156 17.1875
L47.6094 17.1875
L47.6094 0
L37.7969 0
L37.7969 17.1875
L4.89062 17.1875
L4.89062 26.7031
z
" id="BitstreamVeraSans-Roman-34"/>
      </defs>
      <g transform="translate(142.273076284 444.488090385)rotate(-30.0)scale(0.12 -0.12)">
       <use xlink:href="#BitstreamVeraSans-Roman-34"/>
       <use x="63.623046875" xlink:href="#BitstreamVeraSans-Roman-20"/>
       <use x="95.41015625" xlink:href="#BitstreamVeraSans-Roman-55"/>
       <use x="168.603515625" xlink:href="#BitstreamVeraSans-Roman-68"/>
       <use x="231.982421875" xlink:href="#BitstreamVeraSans-Roman-72"/>
      </g>
     </g>
    </g>
    <g id="xtick_6">
     <g id="text_6">
      <!-- 5 Uhr -->
      <defs>
       <path d="
M10.7969 72.9062
L49.5156 72.9062
L49.5156 64.5938
L19.8281 64.5938
L19.8281 46.7344
Q21.9688 47.4688 24.1094 47.8281
Q26.2656 48.1875 28.4219 48.1875
Q40.625 48.1875 47.75 41.5
Q54.8906 34.8125 54.8906 23.3906
Q54.8906 11.625 47.5625 5.09375
Q40.2344 -1.42188 26.9062 -1.42188
Q22.3125 -1.42188 17.5469 -0.640625
Q12.7969 0.140625 7.71875 1.70312
L7.71875 11.625
Q12.1094 9.23438 16.7969 8.0625
Q21.4844 6.89062 26.7031 6.89062
Q35.1562 6.89062 40.0781 11.3281
Q45.0156 15.7656 45.0156 23.3906
Q45.0156 31 40.0781 35.4375
Q35.1562 39.8906 26.7031 39.8906
Q22.75 39.8906 18.8125 39.0156
Q14.8906 38.1406 10.7969 36.2812
z
" id="BitstreamVeraSans-Roman-35"/>
      </defs>
      <g transform="translate(174.823076284 444.488090385)rotate(-30.0)scale(0.12 -0.12)">
       <use xlink:href="#BitstreamVeraSans-Roman-35"/>
       <use x="63.623046875" xlink:href="#BitstreamVeraSans-Roman-20"/>
       <use x="95.41015625" xlink:href="#BitstreamVeraSans-Roman-55"/>
       <use x="168.603515625" xlink:href="#BitstreamVeraSans-Roman-68"/>
       <use x="231.982421875" xlink:href="#BitstreamVeraSans-Roman-72"/>
      </g>
     </g>
    </g>
    <g id="xtick_7">
     <g id="text_7">
      <!-- 6 Uhr -->
      <defs>
       <path d="
M33.0156 40.375
Q26.375 40.375 22.4844 35.8281
Q18.6094 31.2969 18.6094 23.3906
Q18.6094 15.5312 22.4844 10.9531
Q26.375 6.39062 33.0156 6.39062
Q39.6562 6.39062 43.5312 10.9531
Q47.4062 15.5312 47.4062 23.3906
Q47.4062 31.2969 43.5312 35.8281
Q39.6562 40.375 33.0156 40.375
M52.5938 71.2969
L52.5938 62.3125
Q48.875 64.0625 45.0938 64.9844
Q41.3125 65.9219 37.5938 65.9219
Q27.8281 65.9219 22.6719 59.3281
Q17.5312 52.7344 16.7969 39.4062
Q19.6719 43.6562 24.0156 45.9219
Q28.375 48.1875 33.5938 48.1875
Q44.5781 48.1875 50.9531 41.5156
Q57.3281 34.8594 57.3281 23.3906
Q57.3281 12.1562 50.6875 5.35938
Q44.0469 -1.42188 33.0156 -1.42188
Q20.3594 -1.42188 13.6719 8.26562
Q6.98438 17.9688 6.98438 36.375
Q6.98438 53.6562 15.1875 63.9375
Q23.3906 74.2188 37.2031 74.2188
Q40.9219 74.2188 44.7031 73.4844
Q48.4844 72.75 52.5938 71.2969" id="BitstreamVeraSans-Roman-36"/>
      </defs>
      <g transform="translate(207.373076284 444.488090385)rotate(-30.0)scale(0.12 -0.12)">
       <use xlink:href="#BitstreamVeraSans-Roman-36"/>
       <use x="63.623046875" xlink:href="#BitstreamVeraSans-Roman-20"/>
       <use x="95.41015625" xlink:href="#BitstreamVeraSans-Roman-55"/>
       <use x="168.603515625" xlink:href="#BitstreamVeraSans-Roman-68"/>
       <use x="231.982421875" xlink:href="#BitstreamVeraSans-Roman-72"/>
      </g>
     </g>
    </g>
    <g id="xtick_8">
     <g id="text_8">
      <!-- 7 Uhr -->
      <defs>
       <path d="
M8.20312 72.9062
L55.0781 72.9062
L55.0781 68.7031
L28.6094 0
L18.3125 0
L43.2188 64.5938
L8.20312 64.5938
z
" id="BitstreamVeraSans-Roman-37"/>
      </defs>
      <g transform="translate(239.923076284 444.488090385)rotate(-30.0)scale(0.12 -0.12)">
       <use xlink:href="#BitstreamVeraSans-Roman-37"/>
       <use x="63.623046875" xlink:href="#BitstreamVeraSans-Roman-20"/>
       <use x="95.41015625" xlink:href="#BitstreamVeraSans-Roman-55"/>
       <use x="168.603515625" xlink:href="#BitstreamVeraSans-Roman-68"/>
       <use x="231.982421875" xlink:href="#BitstreamVeraSans-Roman-72"/>
      </g>
     </g>
    </g>
    <g id="xtick_9">
     <g id="text_9">
      <!-- 8 Uhr -->
      <defs>
       <path d="
M31.7812 34.625
Q24.75 34.625 20.7188 30.8594
Q16.7031 27.0938 16.7031 20.5156
Q16.7031 13.9219 20.7188 10.1562
Q24.75 6.39062 31.7812 6.39062
Q38.8125 6.39062 42.8594 10.1719
Q46.9219 13.9688 46.9219 20.5156
Q46.9219 27.0938 42.8906 30.8594
Q38.875 34.625 31.7812 34.625
M21.9219 38.8125
Q15.5781 40.375 12.0312 44.7188
Q8.5 49.0781 8.5 55.3281
Q8.5 64.0625 14.7188 69.1406
Q20.9531 74.2188 31.7812 74.2188
Q42.6719 74.2188 48.875 69.1406
Q55.0781 64.0625 55.0781 55.3281
Q55.0781 49.0781 51.5312 44.7188
Q48 40.375 41.7031 38.8125
Q48.8281 37.1562 52.7969 32.3125
Q56.7812 27.4844 56.7812 20.5156
Q56.7812 9.90625 50.3125 4.23438
Q43.8438 -1.42188 31.7812 -1.42188
Q19.7344 -1.42188 13.25 4.23438
Q6.78125 9.90625 6.78125 20.5156
Q6.78125 27.4844 10.7812 32.3125
Q14.7969 37.1562 21.9219 38.8125
M18.3125 54.3906
Q18.3125 48.7344 21.8438 45.5625
Q25.3906 42.3906 31.7812 42.3906
Q38.1406 42.3906 41.7188 45.5625
Q45.3125 48.7344 45.3125 54.3906
Q45.3125 60.0625 41.7188 63.2344
Q38.1406 66.4062 31.7812 66.4062
Q25.3906 66.4062 21.8438 63.2344
Q18.3125 60.0625 18.3125 54.3906" id="BitstreamVeraSans-Roman-38"/>
      </defs>
      <g transform="translate(272.473076284 444.488090385)rotate(-30.0)scale(0.12 -0.12)">
       <use xlink:href="#BitstreamVeraSans-Roman-38"/>
       <use x="63.623046875" xlink:href="#BitstreamVeraSans-Roman-20"/>
       <use x="95.41015625" xlink:href="#BitstreamVeraSans-Roman-55"/>
       <use x="168.603515625" xlink:href="#BitstreamVeraSans-Roman-68"/>
       <use x="231.982421875" xlink:href="#BitstreamVeraSans-Roman-72"/>
      </g>
     </g>
    </g>
    <g id="xtick_10">
     <g id="text_10">
      <!-- 9 Uhr -->
      <defs>
       <path d="
M10.9844 1.51562
L10.9844 10.5
Q14.7031 8.73438 18.5 7.8125
Q22.3125 6.89062 25.9844 6.89062
Q35.75 6.89062 40.8906 13.4531
Q46.0469 20.0156 46.7812 33.4062
Q43.9531 29.2031 39.5938 26.9531
Q35.25 24.7031 29.9844 24.7031
Q19.0469 24.7031 12.6719 31.3125
Q6.29688 37.9375 6.29688 49.4219
Q6.29688 60.6406 12.9375 67.4219
Q19.5781 74.2188 30.6094 74.2188
Q43.2656 74.2188 49.9219 64.5156
Q56.5938 54.8281 56.5938 36.375
Q56.5938 19.1406 48.4062 8.85938
Q40.2344 -1.42188 26.4219 -1.42188
Q22.7031 -1.42188 18.8906 -0.6875
Q15.0938 0.046875 10.9844 1.51562
M30.6094 32.4219
Q37.25 32.4219 41.125 36.9531
Q45.0156 41.5 45.0156 49.4219
Q45.0156 57.2812 41.125 61.8438
Q37.25 66.4062 30.6094 66.4062
Q23.9688 66.4062 20.0938 61.8438
Q16.2188 57.2812 16.2188 49.4219
Q16.2188 41.5 20.0938 36.9531
Q23.9688 32.4219 30.6094 32.4219" id="BitstreamVeraSans-Roman-39"/>
      </defs>
      <g transform="translate(305.023076284 444.488090385)rotate(-30.0)scale(0.12 -0.12)">
       <use xlink:href="#BitstreamVeraSans-Roman-39"/>
       <use x="63.623046875" xlink:href="#BitstreamVeraSans-Roman-20"/>
       <use x="95.41015625" xlink:href="#BitstreamVeraSans-Roman-55"/>
       <use x="168.603515625" xlink:href="#BitstreamVeraSans-Roman-68"/>
       <use x="231.982421875" xlink:href="#BitstreamVeraSans-Roman-72"/>
      </g>
     </g>
    </g>
    <g id="xtick_11">
     <g id="text_11">
      <!-- 10 Uhr -->
      <g transform="translate(330.960972326 448.305590385)rotate(-30.0)scale(0.12 -0.12)">
       <use xlink:href="#BitstreamVeraSans-Roman-31"/>
       <use x="63.623046875" xlink:href="#BitstreamVeraSans-Roman-30"/>
       <use x="127.24609375" xlink:href="#BitstreamVeraSans-Roman-20"/>
       <use x="159.033203125" xlink:href="#BitstreamVeraSans-Roman-55"/>
       <use x="232.2265625" xlink:href="#BitstreamVeraSans-Roman-68"/>
       <use x="295.60546875" xlink:href="#BitstreamVeraSans-Roman-72"/>
      </g>
     </g>
    </g>
    <g id="xtick_12">
     <g id="text_12">
      <!-- 11 Uhr -->
      <g transform="translate(363.510972326 448.305590385)rotate(-30.0)scale(0.12 -0.12)">
       <use xlink:href="#BitstreamVeraSans-Roman-31"/>
       <use x="63.623046875" xlink:href="#BitstreamVeraSans-Roman-31"/>
       <use x="127.24609375" xlink:href="#BitstreamVeraSans-Roman-20"/>
       <use x="159.033203125" xlink:href="#BitstreamVeraSans-Roman-55"/>
       <use x="232.2265625" xlink:href="#BitstreamVeraSans-Roman-68"/>
       <use x="295.60546875" xlink:href="#BitstreamVeraSans-Roman-72"/>
      </g>
     </g>
    </g>
    <g id="xtick_13">
     <g id="text_13">
      <!-- 12 Uhr -->
      <g transform="translate(396.060972326 448.305590385)rotate(-30.0)scale(0.12 -0.12)">
       <use xlink:href="#BitstreamVeraSans-Roman-31"/>
       <use x="63.623046875" xlink:href="#BitstreamVeraSans-Roman-32"/>
       <use x="127.24609375" xlink:href="#BitstreamVeraSans-Roman-20"/>
       <use x="159.033203125" xlink:href="#BitstreamVeraSans-Roman-55"/>
       <use x="232.2265625" xlink:href="#BitstreamVeraSans-Roman-68"/>
       <use x="295.60546875" xlink:href="#BitstreamVeraSans-Roman-72"/>
      </g>
     </g>
    </g>
    <g id="xtick_14">
     <g id="text_14">
      <!-- 13 Uhr -->
      <g transform="translate(428.610972326 448.305590385)rotate(-30.0)scale(0.12 -0.12)">
       <use xlink:href="#BitstreamVeraSans-Roman-31"/>
       <use x="63.623046875" xlink:href="#BitstreamVeraSans-Roman-33"/>
       <use x="127.24609375" xlink:href="#BitstreamVeraSans-Roman-20"/>
       <use x="159.033203125" xlink:href="#BitstreamVeraSans-Roman-55"/>
       <use x="232.2265625" xlink:href="#BitstreamVeraSans-Roman-68"/>
       <use x="295.60546875" xlink:href="#BitstreamVeraSans-Roman-72"/>
      </g>
     </g>
    </g>
    <g id="xtick_15">
     <g id="text_15">
      <!-- 14 Uhr -->
      <g transform="translate(461.160972326 448.305590385)rotate(-30.0)scale(0.12 -0.12)">
       <use xlink:href="#BitstreamVeraSans-Roman-31"/>
       <use x="63.623046875" xlink:href="#BitstreamVeraSans-Roman-34"/>
       <use x="127.24609375" xlink:href="#BitstreamVeraSans-Roman-20"/>
       <use x="159.033203125" xlink:href="#BitstreamVeraSans-Roman-55"/>
       <use x="232.2265625" xlink:href="#BitstreamVeraSans-Roman-68"/>
       <use x="295.60546875" xlink:href="#BitstreamVeraSans-Roman-72"/>
      </g>
     </g>
    </g>
    <g id="xtick_16">
     <g id="text_16">
      <!-- 15 Uhr -->
      <g transform="translate(493.710972326 448.305590385)rotate(-30.0)scale(0.12 -0.12)">
       <use xlink:href="#BitstreamVeraSans-Roman-31"/>
       <use x="63.623046875" xlink:href="#BitstreamVeraSans-Roman-35"/>
       <use x="127.24609375" xlink:href="#BitstreamVeraSans-Roman-20"/>
       <use x="159.033203125" xlink:href="#BitstreamVeraSans-Roman-55"/>
       <use x="232.2265625" xlink:href="#BitstreamVeraSans-Roman-68"/>
       <use x="295.60546875" xlink:href="#BitstreamVeraSans-Roman-72"/>
      </g>
     </g>
    </g>
    <g id="xtick_17">
     <g id="text_17">
      <!-- 16 Uhr -->
      <g transform="translate(526.260972326 448.305590385)rotate(-30.0)scale(0.12 -0.12)">
       <use xlink:href="#BitstreamVeraSans-Roman-31"/>
       <use x="63.623046875" xlink:href="#BitstreamVeraSans-Roman-36"/>
       <use x="127.24609375" xlink:href="#BitstreamVeraSans-Roman-20"/>
       <use x="159.033203125" xlink:href="#BitstreamVeraSans-Roman-55"/>
       <use x="232.2265625" xlink:href="#BitstreamVeraSans-Roman-68"/>
       <use x="295.60546875" xlink:href="#BitstreamVeraSans-Roman-72"/>
      </g>
     </g>
    </g>
    <g id="xtick_18">
     <g id="text_18">
      <!-- 17 Uhr -->
      <g transform="translate(558.810972326 448.305590385)rotate(-30.0)scale(0.12 -0.12)">
       <use xlink:href="#BitstreamVeraSans-Roman-31"/>
       <use x="63.623046875" xlink:href="#BitstreamVeraSans-Roman-37"/>
       <use x="127.24609375" xlink:href="#BitstreamVeraSans-Roman-20"/>
       <use x="159.033203125" xlink:href="#BitstreamVeraSans-Roman-55"/>
       <use x="232.2265625" xlink:href="#BitstreamVeraSans-Roman-68"/>
       <use x="295.60546875" xlink:href="#BitstreamVeraSans-Roman-72"/>
      </g>
     </g>
    </g>
    <g id="xtick_19">
     <g id="text_19">
      <!-- 18 Uhr -->
      <g transform="translate(591.360972326 448.305590385)rotate(-30.0)scale(0.12 -0.12)">
       <use xlink:href="#BitstreamVeraSans-Roman-31"/>
       <use x="63.623046875" xlink:href="#BitstreamVeraSans-Roman-38"/>
       <use x="127.24609375" xlink:href="#BitstreamVeraSans-Roman-20"/>
       <use x="159.033203125" xlink:href="#BitstreamVeraSans-Roman-55"/>
       <use x="232.2265625" xlink:href="#BitstreamVeraSans-Roman-68"/>
       <use x="295.60546875" xlink:href="#BitstreamVeraSans-Roman-72"/>
      </g>
     </g>
    </g>
    <g id="xtick_20">
     <g id="text_20">
      <!-- 19 Uhr -->
      <g transform="translate(623.910972326 448.305590385)rotate(-30.0)scale(0.12 -0.12)">
       <use xlink:href="#BitstreamVeraSans-Roman-31"/>
       <use x="63.623046875" xlink:href="#BitstreamVeraSans-Roman-39"/>
       <use x="127.24609375" xlink:href="#BitstreamVeraSans-Roman-20"/>
       <use x="159.033203125" xlink:href="#BitstreamVeraSans-Roman-55"/>
       <use x="232.2265625" xlink:href="#BitstreamVeraSans-Roman-68"/>
       <use x="295.60546875" xlink:href="#BitstreamVeraSans-Roman-72"/>
      </g>
     </g>
    </g>
    <g id="xtick_21">
     <g id="text_21">
      <!-- 20 Uhr -->
      <g transform="translate(656.460972326 448.305590385)rotate(-30.0)scale(0.12 -0.12)">
       <use xlink:href="#BitstreamVeraSans-Roman-32"/>
       <use x="63.623046875" xlink:href="#BitstreamVeraSans-Roman-30"/>
       <use x="127.24609375" xlink:href="#BitstreamVeraSans-Roman-20"/>
       <use x="159.033203125" xlink:href="#BitstreamVeraSans-Roman-55"/>
       <use x="232.2265625" xlink:href="#BitstreamVeraSans-Roman-68"/>
       <use x="295.60546875" xlink:href="#BitstreamVeraSans-Roman-72"/>
      </g>
     </g>
    </g>
    <g id="xtick_22">
     <g id="text_22">
      <!-- 21 Uhr -->
      <g transform="translate(689.010972326 448.305590385)rotate(-30.0)scale(0.12 -0.12)">
       <use xlink:href="#BitstreamVeraSans-Roman-32"/>
       <use x="63.623046875" xlink:href="#BitstreamVeraSans-Roman-31"/>
       <use x="127.24609375" xlink:href="#BitstreamVeraSans-Roman-20"/>
       <use x="159.033203125" xlink:href="#BitstreamVeraSans-Roman-55"/>
       <use x="232.2265625" xlink:href="#BitstreamVeraSans-Roman-68"/>
       <use x="295.60546875" xlink:href="#BitstreamVeraSans-Roman-72"/>
      </g>
     </g>
    </g>
    <g id="xtick_23">
     <g id="text_23">
      <!-- 22 Uhr -->
      <g transform="translate(721.560972326 448.305590385)rotate(-30.0)scale(0.12 -0.12)">
       <use xlink:href="#BitstreamVeraSans-Roman-32"/>
       <use x="63.623046875" xlink:href="#BitstreamVeraSans-Roman-32"/>
       <use x="127.24609375" xlink:href="#BitstreamVeraSans-Roman-20"/>
       <use x="159.033203125" xlink:href="#BitstreamVeraSans-Roman-55"/>
       <use x="232.2265625" xlink:href="#BitstreamVeraSans-Roman-68"/>
       <use x="295.60546875" xlink:href="#BitstreamVeraSans-Roman-72"/>
      </g>
     </g>
    </g>
    <g id="xtick_24">
     <g id="text_24">
      <!-- 23 Uhr -->
      <g transform="translate(754.110972326 448.305590385)rotate(-30.0)scale(0.12 -0.12)">
       <use xlink:href="#BitstreamVeraSans-Roman-32"/>
       <use x="63.623046875" xlink:href="#BitstreamVeraSans-Roman-33"/>
       <use x="127.24609375" xlink:href="#BitstreamVeraSans-Roman-20"/>
       <use x="159.033203125" xlink:href="#BitstreamVeraSans-Roman-55"/>
       <use x="232.2265625" xlink:href="#BitstreamVeraSans-Roman-68"/>
       <use x="295.60546875" xlink:href="#BitstreamVeraSans-Roman-72"/>
      </g>
     </g>
    </g>
    <g id="text_25">
     <!-- Uhrzeit -->
     <defs>
      <path d="
M56.2031 29.5938
L56.2031 25.2031
L14.8906 25.2031
Q15.4844 15.9219 20.4844 11.0625
Q25.4844 6.20312 34.4219 6.20312
Q39.5938 6.20312 44.4531 7.46875
Q49.3125 8.73438 54.1094 11.2812
L54.1094 2.78125
Q49.2656 0.734375 44.1875 -0.34375
Q39.1094 -1.42188 33.8906 -1.42188
Q20.7969 -1.42188 13.1562 6.1875
Q5.51562 13.8125 5.51562 26.8125
Q5.51562 40.2344 12.7656 48.1094
Q20.0156 56 32.3281 56
Q43.3594 56 49.7812 48.8906
Q56.2031 41.7969 56.2031 29.5938
M47.2188 32.2344
Q47.125 39.5938 43.0938 43.9844
Q39.0625 48.3906 32.4219 48.3906
Q24.9062 48.3906 20.3906 44.1406
Q15.875 39.8906 15.1875 32.1719
z
" id="BitstreamVeraSans-Roman-65"/>
      <path d="
M18.3125 70.2188
L18.3125 54.6875
L36.8125 54.6875
L36.8125 47.7031
L18.3125 47.7031
L18.3125 18.0156
Q18.3125 11.3281 20.1406 9.42188
Q21.9688 7.51562 27.5938 7.51562
L36.8125 7.51562
L36.8125 0
L27.5938 0
Q17.1875 0 13.2344 3.875
Q9.28125 7.76562 9.28125 18.0156
L9.28125 47.7031
L2.6875 47.7031
L2.6875 54.6875
L9.28125 54.6875
L9.28125 70.2188
z
" id="BitstreamVeraSans-Roman-74"/>
      <path d="
M9.42188 54.6875
L18.4062 54.6875
L18.4062 0
L9.42188 0
z

M9.42188 75.9844
L18.4062 75.9844
L18.4062 64.5938
L9.42188 64.5938
z
" id="BitstreamVeraSans-Roman-69"/>
      <path d="
M5.51562 54.6875
L48.1875 54.6875
L48.1875 46.4844
L14.4062 7.17188
L48.1875 7.17188
L48.1875 0
L4.29688 0
L4.29688 8.20312
L38.0938 47.5156
L5.51562 47.5156
z
" id="BitstreamVeraSans-Roman-7a"/>
     </defs>
     <g transform="translate(411.444375 464.584990033)scale(0.12 -0.12)">
      <use xlink:href="#BitstreamVeraSans-Roman-55"/>
      <use x="73.193359375" xlink:href="#BitstreamVeraSans-Roman-68"/>
      <use x="136.572265625" xlink:href="#BitstreamVeraSans-Roman-72"/>
      <use x="177.685546875" xlink:href="#BitstreamVeraSans-Roman-7a"/>
      <use x="230.17578125" xlink:href="#BitstreamVeraSans-Roman-65"/>
      <use x="291.69921875" xlink:href="#BitstreamVeraSans-Roman-69"/>
      <use x="319.482421875" xlink:href="#BitstreamVeraSans-Roman-74"/>
     </g>
    </g>
   </g>
   <g id="matplotlib.axis_2">
    <g id="ytick_1">
     <g id="text_26">
      <!-- 0 -->
      <g transform="translate(31.653125 419.518125)scale(0.12 -0.12)">
       <use xlink:href="#BitstreamVeraSans-Roman-30"/>
      </g>
     </g>
    </g>
    <g id="ytick_2">
     <g id="text_27">
      <!-- 10 -->
      <g transform="translate(24.545 352.318125)scale(0.12 -0.12)">
       <use xlink:href="#BitstreamVeraSans-Roman-31"/>
       <use x="63.623046875" xlink:href="#BitstreamVeraSans-Roman-30"/>
      </g>
     </g>
    </g>
    <g id="ytick_3">
     <g id="text_28">
      <!-- 20 -->
      <g transform="translate(24.10625 285.118125)scale(0.12 -0.12)">
       <use xlink:href="#BitstreamVeraSans-Roman-32"/>
       <use x="63.623046875" xlink:href="#BitstreamVeraSans-Roman-30"/>
      </g>
     </g>
    </g>
    <g id="ytick_4">
     <g id="text_29">
      <!-- 30 -->
      <g transform="translate(24.141875 217.918125)scale(0.12 -0.12)">
       <use xlink:href="#BitstreamVeraSans-Roman-33"/>
       <use x="63.623046875" xlink:href="#BitstreamVeraSans-Roman-30"/>
      </g>
     </g>
    </g>
    <g id="ytick_5">
     <g id="text_30">
      <!-- 40 -->
      <g transform="translate(23.81375 150.718125)scale(0.12 -0.12)">
       <use xlink:href="#BitstreamVeraSans-Roman-34"/>
       <use x="63.623046875" xlink:href="#BitstreamVeraSans-Roman-30"/>
      </g>
     </g>
    </g>
    <g id="ytick_6">
     <g id="text_31">
      <!-- 50 -->
      <g transform="translate(24.153125 83.518125)scale(0.12 -0.12)">
       <use xlink:href="#BitstreamVeraSans-Roman-35"/>
       <use x="63.623046875" xlink:href="#BitstreamVeraSans-Roman-30"/>
      </g>
     </g>
    </g>
    <g id="ytick_7">
     <g id="text_32">
      <!-- 60 -->
      <g transform="translate(24.065 16.318125)scale(0.12 -0.12)">
       <use xlink:href="#BitstreamVeraSans-Roman-36"/>
       <use x="63.623046875" xlink:href="#BitstreamVeraSans-Roman-30"/>
      </g>
     </g>
    </g>
    <g id="text_33">
     <!-- Anzahl der automatisch gefundenen Gesichter pro Uhrzeit -->
     <defs>
      <path d="
M37.1094 75.9844
L37.1094 68.5
L28.5156 68.5
Q23.6875 68.5 21.7969 66.5469
Q19.9219 64.5938 19.9219 59.5156
L19.9219 54.6875
L34.7188 54.6875
L34.7188 47.7031
L19.9219 47.7031
L19.9219 0
L10.8906 0
L10.8906 47.7031
L2.29688 47.7031
L2.29688 54.6875
L10.8906 54.6875
L10.8906 58.5
Q10.8906 67.625 15.1406 71.7969
Q19.3906 75.9844 28.6094 75.9844
z
" id="BitstreamVeraSans-Roman-66"/>
      <path d="
M54.8906 33.0156
L54.8906 0
L45.9062 0
L45.9062 32.7188
Q45.9062 40.4844 42.875 44.3281
Q39.8438 48.1875 33.7969 48.1875
Q26.5156 48.1875 22.3125 43.5469
Q18.1094 38.9219 18.1094 30.9062
L18.1094 0
L9.07812 0
L9.07812 54.6875
L18.1094 54.6875
L18.1094 46.1875
Q21.3438 51.125 25.7031 53.5625
Q30.0781 56 35.7969 56
Q45.2188 56 50.0469 50.1719
Q54.8906 44.3438 54.8906 33.0156" id="BitstreamVeraSans-Roman-6e"/>
      <path d="
M52 44.1875
Q55.375 50.25 60.0625 53.125
Q64.75 56 71.0938 56
Q79.6406 56 84.2812 50.0156
Q88.9219 44.0469 88.9219 33.0156
L88.9219 0
L79.8906 0
L79.8906 32.7188
Q79.8906 40.5781 77.0938 44.375
Q74.3125 48.1875 68.6094 48.1875
Q61.625 48.1875 57.5625 43.5469
Q53.5156 38.9219 53.5156 30.9062
L53.5156 0
L44.4844 0
L44.4844 32.7188
Q44.4844 40.625 41.7031 44.4062
Q38.9219 48.1875 33.1094 48.1875
Q26.2188 48.1875 22.1562 43.5312
Q18.1094 38.875 18.1094 30.9062
L18.1094 0
L9.07812 0
L9.07812 54.6875
L18.1094 54.6875
L18.1094 46.1875
Q21.1875 51.2188 25.4844 53.6094
Q29.7812 56 35.6875 56
Q41.6562 56 45.8281 52.9688
Q50 49.9531 52 44.1875" id="BitstreamVeraSans-Roman-6d"/>
      <path d="
M30.6094 48.3906
Q23.3906 48.3906 19.1875 42.75
Q14.9844 37.1094 14.9844 27.2969
Q14.9844 17.4844 19.1562 11.8438
Q23.3438 6.20312 30.6094 6.20312
Q37.7969 6.20312 41.9844 11.8594
Q46.1875 17.5312 46.1875 27.2969
Q46.1875 37.0156 41.9844 42.7031
Q37.7969 48.3906 30.6094 48.3906
M30.6094 56
Q42.3281 56 49.0156 48.375
Q55.7188 40.7656 55.7188 27.2969
Q55.7188 13.875 49.0156 6.21875
Q42.3281 -1.42188 30.6094 -1.42188
Q18.8438 -1.42188 12.1719 6.21875
Q5.51562 13.875 5.51562 27.2969
Q5.51562 40.7656 12.1719 48.375
Q18.8438 56 30.6094 56" id="BitstreamVeraSans-Roman-6f"/>
      <path d="
M9.42188 75.9844
L18.4062 75.9844
L18.4062 0
L9.42188 0
z
" id="BitstreamVeraSans-Roman-6c"/>
      <path d="
M59.5156 10.4062
L59.5156 29.9844
L43.4062 29.9844
L43.4062 38.0938
L69.2812 38.0938
L69.2812 6.78125
Q63.5781 2.73438 56.6875 0.65625
Q49.8125 -1.42188 42 -1.42188
Q24.9062 -1.42188 15.25 8.5625
Q5.60938 18.5625 5.60938 36.375
Q5.60938 54.25 15.25 64.2344
Q24.9062 74.2188 42 74.2188
Q49.125 74.2188 55.5469 72.4531
Q61.9688 70.7031 67.3906 67.2812
L67.3906 56.7812
Q61.9219 61.4219 55.7656 63.7656
Q49.6094 66.1094 42.8281 66.1094
Q29.4375 66.1094 22.7188 58.6406
Q16.0156 51.1719 16.0156 36.375
Q16.0156 21.625 22.7188 14.1562
Q29.4375 6.6875 42.8281 6.6875
Q48.0469 6.6875 52.1406 7.59375
Q56.25 8.5 59.5156 10.4062" id="BitstreamVeraSans-Roman-47"/>
      <path d="
M18.1094 8.20312
L18.1094 -20.7969
L9.07812 -20.7969
L9.07812 54.6875
L18.1094 54.6875
L18.1094 46.3906
Q20.9531 51.2656 25.2656 53.625
Q29.5938 56 35.5938 56
Q45.5625 56 51.7812 48.0938
Q58.0156 40.1875 58.0156 27.2969
Q58.0156 14.4062 51.7812 6.48438
Q45.5625 -1.42188 35.5938 -1.42188
Q29.5938 -1.42188 25.2656 0.953125
Q20.9531 3.32812 18.1094 8.20312
M48.6875 27.2969
Q48.6875 37.2031 44.6094 42.8438
Q40.5312 48.4844 33.4062 48.4844
Q26.2656 48.4844 22.1875 42.8438
Q18.1094 37.2031 18.1094 27.2969
Q18.1094 17.3906 22.1875 11.75
Q26.2656 6.10938 33.4062 6.10938
Q40.5312 6.10938 44.6094 11.75
Q48.6875 17.3906 48.6875 27.2969" id="BitstreamVeraSans-Roman-70"/>
      <path d="
M34.1875 63.1875
L20.7969 26.9062
L47.6094 26.9062
z

M28.6094 72.9062
L39.7969 72.9062
L67.5781 0
L57.3281 0
L50.6875 18.7031
L17.8281 18.7031
L11.1875 0
L0.78125 0
z
" id="BitstreamVeraSans-Roman-41"/>
      <path d="
M45.4062 46.3906
L45.4062 75.9844
L54.3906 75.9844
L54.3906 0
L45.4062 0
L45.4062 8.20312
Q42.5781 3.32812 38.25 0.953125
Q33.9375 -1.42188 27.875 -1.42188
Q17.9688 -1.42188 11.7344 6.48438
Q5.51562 14.4062 5.51562 27.2969
Q5.51562 40.1875 11.7344 48.0938
Q17.9688 56 27.875 56
Q33.9375 56 38.25 53.625
Q42.5781 51.2656 45.4062 46.3906
M14.7969 27.2969
Q14.7969 17.3906 18.875 11.75
Q22.9531 6.10938 30.0781 6.10938
Q37.2031 6.10938 41.2969 11.75
Q45.4062 17.3906 45.4062 27.2969
Q45.4062 37.2031 41.2969 42.8438
Q37.2031 48.4844 30.0781 48.4844
Q22.9531 48.4844 18.875 42.8438
Q14.7969 37.2031 14.7969 27.2969" id="BitstreamVeraSans-Roman-64"/>
      <path d="
M45.4062 27.9844
Q45.4062 37.75 41.375 43.1094
Q37.3594 48.4844 30.0781 48.4844
Q22.8594 48.4844 18.8281 43.1094
Q14.7969 37.75 14.7969 27.9844
Q14.7969 18.2656 18.8281 12.8906
Q22.8594 7.51562 30.0781 7.51562
Q37.3594 7.51562 41.375 12.8906
Q45.4062 18.2656 45.4062 27.9844
M54.3906 6.78125
Q54.3906 -7.17188 48.1875 -13.9844
Q42 -20.7969 29.2031 -20.7969
Q24.4688 -20.7969 20.2656 -20.0938
Q16.0625 -19.3906 12.1094 -17.9219
L12.1094 -9.1875
Q16.0625 -11.3281 19.9219 -12.3438
Q23.7812 -13.375 27.7812 -13.375
Q36.625 -13.375 41.0156 -8.76562
Q45.4062 -4.15625 45.4062 5.17188
L45.4062 9.625
Q42.625 4.78125 38.2812 2.39062
Q33.9375 0 27.875 0
Q17.8281 0 11.6719 7.65625
Q5.51562 15.3281 5.51562 27.9844
Q5.51562 40.6719 11.6719 48.3281
Q17.8281 56 27.875 56
Q33.9375 56 38.2812 53.6094
Q42.625 51.2188 45.4062 46.3906
L45.4062 54.6875
L54.3906 54.6875
z
" id="BitstreamVeraSans-Roman-67"/>
      <path d="
M8.5 21.5781
L8.5 54.6875
L17.4844 54.6875
L17.4844 21.9219
Q17.4844 14.1562 20.5 10.2656
Q23.5312 6.39062 29.5938 6.39062
Q36.8594 6.39062 41.0781 11.0312
Q45.3125 15.6719 45.3125 23.6875
L45.3125 54.6875
L54.2969 54.6875
L54.2969 0
L45.3125 0
L45.3125 8.40625
Q42.0469 3.42188 37.7188 1
Q33.4062 -1.42188 27.6875 -1.42188
Q18.2656 -1.42188 13.375 4.4375
Q8.5 10.2969 8.5 21.5781" id="BitstreamVeraSans-Roman-75"/>
      <path d="
M34.2812 27.4844
Q23.3906 27.4844 19.1875 25
Q14.9844 22.5156 14.9844 16.5
Q14.9844 11.7188 18.1406 8.90625
Q21.2969 6.10938 26.7031 6.10938
Q34.1875 6.10938 38.7031 11.4062
Q43.2188 16.7031 43.2188 25.4844
L43.2188 27.4844
z

M52.2031 31.2031
L52.2031 0
L43.2188 0
L43.2188 8.29688
Q40.1406 3.32812 35.5469 0.953125
Q30.9531 -1.42188 24.3125 -1.42188
Q15.9219 -1.42188 10.9531 3.29688
Q6 8.01562 6 15.9219
Q6 25.1406 12.1719 29.8281
Q18.3594 34.5156 30.6094 34.5156
L43.2188 34.5156
L43.2188 35.4062
Q43.2188 41.6094 39.1406 45
Q35.0625 48.3906 27.6875 48.3906
Q23 48.3906 18.5469 47.2656
Q14.1094 46.1406 10.0156 43.8906
L10.0156 52.2031
Q14.9375 54.1094 19.5781 55.0469
Q24.2188 56 28.6094 56
Q40.4844 56 46.3438 49.8438
Q52.2031 43.7031 52.2031 31.2031" id="BitstreamVeraSans-Roman-61"/>
      <path d="
M44.2812 53.0781
L44.2812 44.5781
Q40.4844 46.5312 36.375 47.5
Q32.2812 48.4844 27.875 48.4844
Q21.1875 48.4844 17.8438 46.4375
Q14.5 44.3906 14.5 40.2812
Q14.5 37.1562 16.8906 35.375
Q19.2812 33.5938 26.5156 31.9844
L29.5938 31.2969
Q39.1562 29.25 43.1875 25.5156
Q47.2188 21.7812 47.2188 15.0938
Q47.2188 7.46875 41.1875 3.01562
Q35.1562 -1.42188 24.6094 -1.42188
Q20.2188 -1.42188 15.4531 -0.5625
Q10.6875 0.296875 5.42188 2
L5.42188 11.2812
Q10.4062 8.6875 15.2344 7.39062
Q20.0625 6.10938 24.8125 6.10938
Q31.1562 6.10938 34.5625 8.28125
Q37.9844 10.4531 37.9844 14.4062
Q37.9844 18.0625 35.5156 20.0156
Q33.0625 21.9688 24.7031 23.7812
L21.5781 24.5156
Q13.2344 26.2656 9.51562 29.9062
Q5.8125 33.5469 5.8125 39.8906
Q5.8125 47.6094 11.2812 51.7969
Q16.75 56 26.8125 56
Q31.7812 56 36.1719 55.2656
Q40.5781 54.5469 44.2812 53.0781" id="BitstreamVeraSans-Roman-73"/>
      <path d="
M48.7812 52.5938
L48.7812 44.1875
Q44.9688 46.2969 41.1406 47.3438
Q37.3125 48.3906 33.4062 48.3906
Q24.6562 48.3906 19.8125 42.8438
Q14.9844 37.3125 14.9844 27.2969
Q14.9844 17.2812 19.8125 11.7344
Q24.6562 6.20312 33.4062 6.20312
Q37.3125 6.20312 41.1406 7.25
Q44.9688 8.29688 48.7812 10.4062
L48.7812 2.09375
Q45.0156 0.34375 40.9844 -0.53125
Q36.9688 -1.42188 32.4219 -1.42188
Q20.0625 -1.42188 12.7812 6.34375
Q5.51562 14.1094 5.51562 27.2969
Q5.51562 40.6719 12.8594 48.3281
Q20.2188 56 33.0156 56
Q37.1562 56 41.1094 55.1406
Q45.0625 54.2969 48.7812 52.5938" id="BitstreamVeraSans-Roman-63"/>
     </defs>
     <g transform="translate(16.318125 389.4384375)rotate(-90.0)scale(0.12 -0.12)">
      <use xlink:href="#BitstreamVeraSans-Roman-41"/>
      <use x="68.408203125" xlink:href="#BitstreamVeraSans-Roman-6e"/>
      <use x="131.787109375" xlink:href="#BitstreamVeraSans-Roman-7a"/>
      <use x="184.27734375" xlink:href="#BitstreamVeraSans-Roman-61"/>
      <use x="245.556640625" xlink:href="#BitstreamVeraSans-Roman-68"/>
      <use x="308.935546875" xlink:href="#BitstreamVeraSans-Roman-6c"/>
      <use x="336.71875" xlink:href="#BitstreamVeraSans-Roman-20"/>
      <use x="368.505859375" xlink:href="#BitstreamVeraSans-Roman-64"/>
      <use x="431.982421875" xlink:href="#BitstreamVeraSans-Roman-65"/>
      <use x="493.505859375" xlink:href="#BitstreamVeraSans-Roman-72"/>
      <use x="534.619140625" xlink:href="#BitstreamVeraSans-Roman-20"/>
      <use x="566.40625" xlink:href="#BitstreamVeraSans-Roman-61"/>
      <use x="627.685546875" xlink:href="#BitstreamVeraSans-Roman-75"/>
      <use x="691.064453125" xlink:href="#BitstreamVeraSans-Roman-74"/>
      <use x="730.2734375" xlink:href="#BitstreamVeraSans-Roman-6f"/>
      <use x="791.455078125" xlink:href="#BitstreamVeraSans-Roman-6d"/>
      <use x="888.8671875" xlink:href="#BitstreamVeraSans-Roman-61"/>
      <use x="950.146484375" xlink:href="#BitstreamVeraSans-Roman-74"/>
      <use x="989.35546875" xlink:href="#BitstreamVeraSans-Roman-69"/>
      <use x="1017.13867188" xlink:href="#BitstreamVeraSans-Roman-73"/>
      <use x="1069.23828125" xlink:href="#BitstreamVeraSans-Roman-63"/>
      <use x="1124.21875" xlink:href="#BitstreamVeraSans-Roman-68"/>
      <use x="1187.59765625" xlink:href="#BitstreamVeraSans-Roman-20"/>
      <use x="1219.38476562" xlink:href="#BitstreamVeraSans-Roman-67"/>
      <use x="1282.86132812" xlink:href="#BitstreamVeraSans-Roman-65"/>
      <use x="1344.38476562" xlink:href="#BitstreamVeraSans-Roman-66"/>
      <use x="1379.58984375" xlink:href="#BitstreamVeraSans-Roman-75"/>
      <use x="1442.96875" xlink:href="#BitstreamVeraSans-Roman-6e"/>
      <use x="1506.34765625" xlink:href="#BitstreamVeraSans-Roman-64"/>
      <use x="1569.82421875" xlink:href="#BitstreamVeraSans-Roman-65"/>
      <use x="1631.34765625" xlink:href="#BitstreamVeraSans-Roman-6e"/>
      <use x="1694.7265625" xlink:href="#BitstreamVeraSans-Roman-65"/>
      <use x="1756.25" xlink:href="#BitstreamVeraSans-Roman-6e"/>
      <use x="1819.62890625" xlink:href="#BitstreamVeraSans-Roman-20"/>
      <use x="1851.41601562" xlink:href="#BitstreamVeraSans-Roman-47"/>
      <use x="1928.90625" xlink:href="#BitstreamVeraSans-Roman-65"/>
      <use x="1990.4296875" xlink:href="#BitstreamVeraSans-Roman-73"/>
      <use x="2042.52929688" xlink:href="#BitstreamVeraSans-Roman-69"/>
      <use x="2070.3125" xlink:href="#BitstreamVeraSans-Roman-63"/>
      <use x="2125.29296875" xlink:href="#BitstreamVeraSans-Roman-68"/>
      <use x="2188.671875" xlink:href="#BitstreamVeraSans-Roman-74"/>
      <use x="2227.88085938" xlink:href="#BitstreamVeraSans-Roman-65"/>
      <use x="2289.40429688" xlink:href="#BitstreamVeraSans-Roman-72"/>
      <use x="2330.51757812" xlink:href="#BitstreamVeraSans-Roman-20"/>
      <use x="2362.3046875" xlink:href="#BitstreamVeraSans-Roman-70"/>
      <use x="2425.78125" xlink:href="#BitstreamVeraSans-Roman-72"/>
      <use x="2464.64453125" xlink:href="#BitstreamVeraSans-Roman-6f"/>
      <use x="2525.82617188" xlink:href="#BitstreamVeraSans-Roman-20"/>
      <use x="2557.61328125" xlink:href="#BitstreamVeraSans-Roman-55"/>
      <use x="2630.80664062" xlink:href="#BitstreamVeraSans-Roman-68"/>
      <use x="2694.18554688" xlink:href="#BitstreamVeraSans-Roman-72"/>
      <use x="2735.29882812" xlink:href="#BitstreamVeraSans-Roman-7a"/>
      <use x="2787.7890625" xlink:href="#BitstreamVeraSans-Roman-65"/>
      <use x="2849.3125" xlink:href="#BitstreamVeraSans-Roman-69"/>
      <use x="2877.09570312" xlink:href="#BitstreamVeraSans-Roman-74"/>
     </g>
    </g>
   </g>
   <g id="legend_1">
    <g id="patch_166">
     <path d="
M48.9 172.482
L162.836 172.482
L162.836 20.2069
L48.9 20.2069
z
" style="fill:#ffffff;stroke:#000000;stroke-linejoin:miter;"/>
    </g>
    <g id="patch_167">
     <path d="
M54.66 36.9086
L83.46 36.9086
L83.46 26.8286
L54.66 26.8286
z
" style="fill:#66c2a5;stroke:#ffffff;stroke-linejoin:miter;"/>
    </g>
    <g id="text_34">
     <!-- Peter -->
     <defs>
      <path d="
M19.6719 64.7969
L19.6719 37.4062
L32.0781 37.4062
Q38.9688 37.4062 42.7188 40.9688
Q46.4844 44.5312 46.4844 51.125
Q46.4844 57.6719 42.7188 61.2344
Q38.9688 64.7969 32.0781 64.7969
z

M9.8125 72.9062
L32.0781 72.9062
Q44.3438 72.9062 50.6094 67.3594
Q56.8906 61.8125 56.8906 51.125
Q56.8906 40.3281 50.6094 34.8125
Q44.3438 29.2969 32.0781 29.2969
L19.6719 29.2969
L19.6719 0
L9.8125 0
z
" id="BitstreamVeraSans-Roman-50"/>
     </defs>
     <g transform="translate(94.98 36.908625)scale(0.144 -0.144)">
      <use xlink:href="#BitstreamVeraSans-Roman-50"/>
      <use x="56.677734375" xlink:href="#BitstreamVeraSans-Roman-65"/>
      <use x="118.201171875" xlink:href="#BitstreamVeraSans-Roman-74"/>
      <use x="157.41015625" xlink:href="#BitstreamVeraSans-Roman-65"/>
      <use x="218.93359375" xlink:href="#BitstreamVeraSans-Roman-72"/>
     </g>
    </g>
    <g id="patch_168">
     <path d="
M54.66 58.0451
L83.46 58.0451
L83.46 47.9651
L54.66 47.9651
z
" style="fill:#fc8d62;stroke:#ffffff;stroke-linejoin:miter;"/>
    </g>
    <g id="text_35">
     <!-- Mark -->
     <defs>
      <path d="
M9.8125 72.9062
L24.5156 72.9062
L43.1094 23.2969
L61.8125 72.9062
L76.5156 72.9062
L76.5156 0
L66.8906 0
L66.8906 64.0156
L48.0938 14.0156
L38.1875 14.0156
L19.3906 64.0156
L19.3906 0
L9.8125 0
z
" id="BitstreamVeraSans-Roman-4d"/>
      <path d="
M9.07812 75.9844
L18.1094 75.9844
L18.1094 31.1094
L44.9219 54.6875
L56.3906 54.6875
L27.3906 29.1094
L57.625 0
L45.9062 0
L18.1094 26.7031
L18.1094 0
L9.07812 0
z
" id="BitstreamVeraSans-Roman-6b"/>
     </defs>
     <g transform="translate(94.98 58.045125)scale(0.144 -0.144)">
      <use xlink:href="#BitstreamVeraSans-Roman-4d"/>
      <use x="86.279296875" xlink:href="#BitstreamVeraSans-Roman-61"/>
      <use x="147.55859375" xlink:href="#BitstreamVeraSans-Roman-72"/>
      <use x="188.671875" xlink:href="#BitstreamVeraSans-Roman-6b"/>
     </g>
    </g>
    <g id="patch_169">
     <path d="
M54.66 79.1816
L83.46 79.1816
L83.46 69.1016
L54.66 69.1016
z
" style="fill:#8da0cb;stroke:#ffffff;stroke-linejoin:miter;"/>
    </g>
    <g id="text_36">
     <!-- Jonas -->
     <defs>
      <path d="
M9.8125 72.9062
L19.6719 72.9062
L19.6719 5.07812
Q19.6719 -8.10938 14.6719 -14.0625
Q9.67188 -20.0156 -1.42188 -20.0156
L-5.17188 -20.0156
L-5.17188 -11.7188
L-2.09375 -11.7188
Q4.4375 -11.7188 7.125 -8.04688
Q9.8125 -4.39062 9.8125 5.07812
z
" id="BitstreamVeraSans-Roman-4a"/>
     </defs>
     <g transform="translate(94.98 79.181625)scale(0.144 -0.144)">
      <use xlink:href="#BitstreamVeraSans-Roman-4a"/>
      <use x="29.4921875" xlink:href="#BitstreamVeraSans-Roman-6f"/>
      <use x="90.673828125" xlink:href="#BitstreamVeraSans-Roman-6e"/>
      <use x="154.052734375" xlink:href="#BitstreamVeraSans-Roman-61"/>
      <use x="215.33203125" xlink:href="#BitstreamVeraSans-Roman-73"/>
     </g>
    </g>
    <g id="patch_170">
     <path d="
M54.66 100.318
L83.46 100.318
L83.46 90.2381
L54.66 90.2381
z
" style="fill:#e78ac3;stroke:#ffffff;stroke-linejoin:miter;"/>
    </g>
    <g id="text_37">
     <!-- Benedikt -->
     <defs>
      <path d="
M19.6719 34.8125
L19.6719 8.10938
L35.5 8.10938
Q43.4531 8.10938 47.2812 11.4062
Q51.125 14.7031 51.125 21.4844
Q51.125 28.3281 47.2812 31.5625
Q43.4531 34.8125 35.5 34.8125
z

M19.6719 64.7969
L19.6719 42.8281
L34.2812 42.8281
Q41.5 42.8281 45.0312 45.5312
Q48.5781 48.25 48.5781 53.8125
Q48.5781 59.3281 45.0312 62.0625
Q41.5 64.7969 34.2812 64.7969
z

M9.8125 72.9062
L35.0156 72.9062
Q46.2969 72.9062 52.3906 68.2188
Q58.5 63.5312 58.5 54.8906
Q58.5 48.1875 55.375 44.2344
Q52.25 40.2812 46.1875 39.3125
Q53.4688 37.75 57.5 32.7812
Q61.5312 27.8281 61.5312 20.4062
Q61.5312 10.6406 54.8906 5.3125
Q48.25 0 35.9844 0
L9.8125 0
z
" id="BitstreamVeraSans-Roman-42"/>
     </defs>
     <g transform="translate(94.98 100.318125)scale(0.144 -0.144)">
      <use xlink:href="#BitstreamVeraSans-Roman-42"/>
      <use x="68.603515625" xlink:href="#BitstreamVeraSans-Roman-65"/>
      <use x="130.126953125" xlink:href="#BitstreamVeraSans-Roman-6e"/>
      <use x="193.505859375" xlink:href="#BitstreamVeraSans-Roman-65"/>
      <use x="255.029296875" xlink:href="#BitstreamVeraSans-Roman-64"/>
      <use x="318.505859375" xlink:href="#BitstreamVeraSans-Roman-69"/>
      <use x="346.2890625" xlink:href="#BitstreamVeraSans-Roman-6b"/>
      <use x="404.19921875" xlink:href="#BitstreamVeraSans-Roman-74"/>
     </g>
    </g>
    <g id="patch_171">
     <path d="
M54.66 121.455
L83.46 121.455
L83.46 111.375
L54.66 111.375
z
" style="fill:#a6d854;stroke:#ffffff;stroke-linejoin:miter;"/>
    </g>
    <g id="text_38">
     <!-- Daniel -->
     <defs>
      <path d="
M19.6719 64.7969
L19.6719 8.10938
L31.5938 8.10938
Q46.6875 8.10938 53.6875 14.9375
Q60.6875 21.7812 60.6875 36.5312
Q60.6875 51.1719 53.6875 57.9844
Q46.6875 64.7969 31.5938 64.7969
z

M9.8125 72.9062
L30.0781 72.9062
Q51.2656 72.9062 61.1719 64.0938
Q71.0938 55.2812 71.0938 36.5312
Q71.0938 17.6719 61.125 8.82812
Q51.1719 0 30.0781 0
L9.8125 0
z
" id="BitstreamVeraSans-Roman-44"/>
     </defs>
     <g transform="translate(94.98 121.454625)scale(0.144 -0.144)">
      <use xlink:href="#BitstreamVeraSans-Roman-44"/>
      <use x="77.001953125" xlink:href="#BitstreamVeraSans-Roman-61"/>
      <use x="138.28125" xlink:href="#BitstreamVeraSans-Roman-6e"/>
      <use x="201.66015625" xlink:href="#BitstreamVeraSans-Roman-69"/>
      <use x="229.443359375" xlink:href="#BitstreamVeraSans-Roman-65"/>
      <use x="290.966796875" xlink:href="#BitstreamVeraSans-Roman-6c"/>
     </g>
    </g>
    <g id="patch_172">
     <path d="
M54.66 142.591
L83.46 142.591
L83.46 132.511
L54.66 132.511
z
" style="fill:#ffd92f;stroke:#ffffff;stroke-linejoin:miter;"/>
    </g>
    <g id="text_39">
     <!-- Bastian -->
     <g transform="translate(94.98 142.591125)scale(0.144 -0.144)">
      <use xlink:href="#BitstreamVeraSans-Roman-42"/>
      <use x="68.603515625" xlink:href="#BitstreamVeraSans-Roman-61"/>
      <use x="129.8828125" xlink:href="#BitstreamVeraSans-Roman-73"/>
      <use x="181.982421875" xlink:href="#BitstreamVeraSans-Roman-74"/>
      <use x="221.19140625" xlink:href="#BitstreamVeraSans-Roman-69"/>
      <use x="248.974609375" xlink:href="#BitstreamVeraSans-Roman-61"/>
      <use x="310.25390625" xlink:href="#BitstreamVeraSans-Roman-6e"/>
     </g>
    </g>
    <g id="patch_173">
     <path d="
M54.66 163.728
L83.46 163.728
L83.46 153.648
L54.66 153.648
z
" style="fill:#e5c494;stroke:#ffffff;stroke-linejoin:miter;"/>
    </g>
    <g id="text_40">
     <!-- Luise -->
     <defs>
      <path d="
M9.8125 72.9062
L19.6719 72.9062
L19.6719 8.29688
L55.1719 8.29688
L55.1719 0
L9.8125 0
z
" id="BitstreamVeraSans-Roman-4c"/>
     </defs>
     <g transform="translate(94.98 163.727625)scale(0.144 -0.144)">
      <use xlink:href="#BitstreamVeraSans-Roman-4c"/>
      <use x="53.962890625" xlink:href="#BitstreamVeraSans-Roman-75"/>
      <use x="117.341796875" xlink:href="#BitstreamVeraSans-Roman-69"/>
      <use x="145.125" xlink:href="#BitstreamVeraSans-Roman-73"/>
      <use x="197.224609375" xlink:href="#BitstreamVeraSans-Roman-65"/>
     </g>
    </g>
   </g>
  </g>
 </g>
 <defs>
  <clipPath id="pc85b7ca771">
   <rect height="403.2" width="781.2" x="41.7" y="13.006875"/>
  </clipPath>
 </defs>
</svg>
