<?xml version="1.0" encoding="utf-8" standalone="no"?>
<!DOCTYPE svg PUBLIC "-//W3C//DTD SVG 1.1//EN"
  "http://www.w3.org/Graphics/SVG/1.1/DTD/svg11.dtd">
<!-- Created with matplotlib (http://matplotlib.org/) -->
<svg height="513pt" version="1.1" viewBox="0 0 829 513" width="829pt" xmlns="http://www.w3.org/2000/svg" xmlns:xlink="http://www.w3.org/1999/xlink">
 <defs>
  <style type="text/css">
*{stroke-linecap:butt;stroke-linejoin:round;}
  </style>
 </defs>
 <g id="figure_1">
  <g id="patch_1">
   <path d="
M0 513.234
L829.808 513.234
L829.808 0
L0 0
z
" style="fill:#ffffff;"/>
  </g>
  <g id="axes_1">
   <g id="patch_2">
    <path d="
M41.4075 473.807
L822.608 473.807
L822.608 13.0069
L41.4075 13.0069
z
" style="fill:#ffffff;"/>
   </g>
   <g id="patch_3">
    <path clip-path="url(#p9c58825132)" d="
M41.4075 473.807
L54.0075 473.807
L54.0075 467.153
L41.4075 467.153
z
" style="fill:#66c2a5;stroke:#ffffff;stroke-linejoin:miter;"/>
   </g>
   <g id="patch_4">
    <path clip-path="url(#p9c58825132)" d="
M83.4075 473.807
L96.0075 473.807
L96.0075 372.886
L83.4075 372.886
z
" style="fill:#66c2a5;stroke:#ffffff;stroke-linejoin:miter;"/>
   </g>
   <g id="patch_5">
    <path clip-path="url(#p9c58825132)" d="
M125.408 473.807
L138.008 473.807
L138.008 421.683
L125.408 421.683
z
" style="fill:#66c2a5;stroke:#ffffff;stroke-linejoin:miter;"/>
   </g>
   <g id="patch_6">
    <path clip-path="url(#p9c58825132)" d="
M167.408 473.807
L180.008 473.807
L180.008 386.194
L167.408 386.194
z
" style="fill:#66c2a5;stroke:#ffffff;stroke-linejoin:miter;"/>
   </g>
   <g id="patch_7">
    <path clip-path="url(#p9c58825132)" d="
M209.408 473.807
L222.008 473.807
L222.008 330.743
L209.408 330.743
z
" style="fill:#66c2a5;stroke:#ffffff;stroke-linejoin:miter;"/>
   </g>
   <g id="patch_8">
    <path clip-path="url(#p9c58825132)" d="
M251.408 473.807
L264.007 473.807
L264.007 432.773
L251.408 432.773
z
" style="fill:#66c2a5;stroke:#ffffff;stroke-linejoin:miter;"/>
   </g>
   <g id="patch_9">
    <path clip-path="url(#p9c58825132)" d="
M293.408 473.807
L306.007 473.807
L306.007 338.506
L293.408 338.506
z
" style="fill:#66c2a5;stroke:#ffffff;stroke-linejoin:miter;"/>
   </g>
   <g id="patch_10">
    <path clip-path="url(#p9c58825132)" d="
M335.408 473.807
L348.007 473.807
L348.007 39.069
L335.408 39.069
z
" style="fill:#66c2a5;stroke:#ffffff;stroke-linejoin:miter;"/>
   </g>
   <g id="patch_11">
    <path clip-path="url(#p9c58825132)" d="
M377.408 473.807
L390.007 473.807
L390.007 142.208
L377.408 142.208
z
" style="fill:#66c2a5;stroke:#ffffff;stroke-linejoin:miter;"/>
   </g>
   <g id="patch_12">
    <path clip-path="url(#p9c58825132)" d="
M419.408 473.807
L432.008 473.807
L432.008 431.664
L419.408 431.664
z
" style="fill:#66c2a5;stroke:#ffffff;stroke-linejoin:miter;"/>
   </g>
   <g id="patch_13">
    <path clip-path="url(#p9c58825132)" d="
M461.408 473.807
L474.008 473.807
L474.008 386.194
L461.408 386.194
z
" style="fill:#66c2a5;stroke:#ffffff;stroke-linejoin:miter;"/>
   </g>
   <g id="patch_14">
    <path clip-path="url(#p9c58825132)" d="
M503.408 473.807
L516.008 473.807
L516.008 413.92
L503.408 413.92
z
" style="fill:#66c2a5;stroke:#ffffff;stroke-linejoin:miter;"/>
   </g>
   <g id="patch_15">
    <path clip-path="url(#p9c58825132)" d="
M545.408 473.807
L558.008 473.807
L558.008 382.867
L545.408 382.867
z
" style="fill:#66c2a5;stroke:#ffffff;stroke-linejoin:miter;"/>
   </g>
   <g id="patch_16">
    <path clip-path="url(#p9c58825132)" d="
M587.408 473.807
L600.008 473.807
L600.008 427.228
L587.408 427.228
z
" style="fill:#66c2a5;stroke:#ffffff;stroke-linejoin:miter;"/>
   </g>
   <g id="patch_17">
    <path clip-path="url(#p9c58825132)" d="
M629.408 473.807
L642.008 473.807
L642.008 344.051
L629.408 344.051
z
" style="fill:#66c2a5;stroke:#ffffff;stroke-linejoin:miter;"/>
   </g>
   <g id="patch_18">
    <path clip-path="url(#p9c58825132)" d="
M671.408 473.807
L684.008 473.807
L684.008 441.645
L671.408 441.645
z
" style="fill:#66c2a5;stroke:#ffffff;stroke-linejoin:miter;"/>
   </g>
   <g id="patch_19">
    <path clip-path="url(#p9c58825132)" d="
M713.408 473.807
L726.008 473.807
L726.008 452.735
L713.408 452.735
z
" style="fill:#66c2a5;stroke:#ffffff;stroke-linejoin:miter;"/>
   </g>
   <g id="patch_20">
    <path clip-path="url(#p9c58825132)" d="
M755.408 473.807
L768.008 473.807
L768.008 473.807
L755.408 473.807
z
" style="fill:#66c2a5;stroke:#ffffff;stroke-linejoin:miter;"/>
   </g>
   <g id="patch_21">
    <path clip-path="url(#p9c58825132)" d="
M54.0075 473.807
L66.6075 473.807
L66.6075 473.807
L54.0075 473.807
z
" style="fill:#fc8d62;stroke:#ffffff;stroke-linejoin:miter;"/>
   </g>
   <g id="patch_22">
    <path clip-path="url(#p9c58825132)" d="
M96.0075 473.807
L108.608 473.807
L108.608 423.946
L96.0075 423.946
z
" style="fill:#fc8d62;stroke:#ffffff;stroke-linejoin:miter;"/>
   </g>
   <g id="patch_23">
    <path clip-path="url(#p9c58825132)" d="
M138.008 473.807
L150.608 473.807
L150.608 407.325
L138.008 407.325
z
" style="fill:#fc8d62;stroke:#ffffff;stroke-linejoin:miter;"/>
   </g>
   <g id="patch_24">
    <path clip-path="url(#p9c58825132)" d="
M180.008 473.807
L192.608 473.807
L192.608 384.057
L180.008 384.057
z
" style="fill:#fc8d62;stroke:#ffffff;stroke-linejoin:miter;"/>
   </g>
   <g id="patch_25">
    <path clip-path="url(#p9c58825132)" d="
M222.008 473.807
L234.608 473.807
L234.608 297.631
L222.008 297.631
z
" style="fill:#fc8d62;stroke:#ffffff;stroke-linejoin:miter;"/>
   </g>
   <g id="patch_26">
    <path clip-path="url(#p9c58825132)" d="
M264.008 473.807
L276.608 473.807
L276.608 315.913
L264.008 315.913
z
" style="fill:#fc8d62;stroke:#ffffff;stroke-linejoin:miter;"/>
   </g>
   <g id="patch_27">
    <path clip-path="url(#p9c58825132)" d="
M306.008 473.807
L318.608 473.807
L318.608 279.348
L306.008 279.348
z
" style="fill:#fc8d62;stroke:#ffffff;stroke-linejoin:miter;"/>
   </g>
   <g id="patch_28">
    <path clip-path="url(#p9c58825132)" d="
M348.008 473.807
L360.608 473.807
L360.608 435.58
L348.008 435.58
z
" style="fill:#fc8d62;stroke:#ffffff;stroke-linejoin:miter;"/>
   </g>
   <g id="patch_29">
    <path clip-path="url(#p9c58825132)" d="
M390.008 473.807
L402.608 473.807
L402.608 257.742
L390.008 257.742
z
" style="fill:#fc8d62;stroke:#ffffff;stroke-linejoin:miter;"/>
   </g>
   <g id="patch_30">
    <path clip-path="url(#p9c58825132)" d="
M432.008 473.807
L444.608 473.807
L444.608 397.353
L432.008 397.353
z
" style="fill:#fc8d62;stroke:#ffffff;stroke-linejoin:miter;"/>
   </g>
   <g id="patch_31">
    <path clip-path="url(#p9c58825132)" d="
M474.008 473.807
L486.608 473.807
L486.608 423.946
L474.008 423.946
z
" style="fill:#fc8d62;stroke:#ffffff;stroke-linejoin:miter;"/>
   </g>
   <g id="patch_32">
    <path clip-path="url(#p9c58825132)" d="
M516.008 473.807
L528.608 473.807
L528.608 420.622
L516.008 420.622
z
" style="fill:#fc8d62;stroke:#ffffff;stroke-linejoin:miter;"/>
   </g>
   <g id="patch_33">
    <path clip-path="url(#p9c58825132)" d="
M558.008 473.807
L570.608 473.807
L570.608 410.649
L558.008 410.649
z
" style="fill:#fc8d62;stroke:#ffffff;stroke-linejoin:miter;"/>
   </g>
   <g id="patch_34">
    <path clip-path="url(#p9c58825132)" d="
M600.008 473.807
L612.608 473.807
L612.608 264.39
L600.008 264.39
z
" style="fill:#fc8d62;stroke:#ffffff;stroke-linejoin:miter;"/>
   </g>
   <g id="patch_35">
    <path clip-path="url(#p9c58825132)" d="
M642.008 473.807
L654.608 473.807
L654.608 307.603
L642.008 307.603
z
" style="fill:#fc8d62;stroke:#ffffff;stroke-linejoin:miter;"/>
   </g>
   <g id="patch_36">
    <path clip-path="url(#p9c58825132)" d="
M684.008 473.807
L696.608 473.807
L696.608 319.237
L684.008 319.237
z
" style="fill:#fc8d62;stroke:#ffffff;stroke-linejoin:miter;"/>
   </g>
   <g id="patch_37">
    <path clip-path="url(#p9c58825132)" d="
M726.008 473.807
L738.608 473.807
L738.608 428.932
L726.008 428.932
z
" style="fill:#fc8d62;stroke:#ffffff;stroke-linejoin:miter;"/>
   </g>
   <g id="patch_38">
    <path clip-path="url(#p9c58825132)" d="
M768.008 473.807
L780.608 473.807
L780.608 437.242
L768.008 437.242
z
" style="fill:#fc8d62;stroke:#ffffff;stroke-linejoin:miter;"/>
   </g>
   <g id="patch_39">
    <path clip-path="url(#p9c58825132)" d="
M66.6075 473.807
L79.2075 473.807
L79.2075 473.807
L66.6075 473.807
z
" style="fill:#8da0cb;stroke:#ffffff;stroke-linejoin:miter;"/>
   </g>
   <g id="patch_40">
    <path clip-path="url(#p9c58825132)" d="
M108.608 473.807
L121.208 473.807
L121.208 440.724
L108.608 440.724
z
" style="fill:#8da0cb;stroke:#ffffff;stroke-linejoin:miter;"/>
   </g>
   <g id="patch_41">
    <path clip-path="url(#p9c58825132)" d="
M150.608 473.807
L163.208 473.807
L163.208 410.004
L150.608 410.004
z
" style="fill:#8da0cb;stroke:#ffffff;stroke-linejoin:miter;"/>
   </g>
   <g id="patch_42">
    <path clip-path="url(#p9c58825132)" d="
M192.608 473.807
L205.208 473.807
L205.208 277.671
L192.608 277.671
z
" style="fill:#8da0cb;stroke:#ffffff;stroke-linejoin:miter;"/>
   </g>
   <g id="patch_43">
    <path clip-path="url(#p9c58825132)" d="
M234.608 473.807
L247.208 473.807
L247.208 369.831
L234.608 369.831
z
" style="fill:#8da0cb;stroke:#ffffff;stroke-linejoin:miter;"/>
   </g>
   <g id="patch_44">
    <path clip-path="url(#p9c58825132)" d="
M276.608 473.807
L289.207 473.807
L289.207 372.195
L276.608 372.195
z
" style="fill:#8da0cb;stroke:#ffffff;stroke-linejoin:miter;"/>
   </g>
   <g id="patch_45">
    <path clip-path="url(#p9c58825132)" d="
M318.607 473.807
L331.207 473.807
L331.207 272.945
L318.607 272.945
z
" style="fill:#8da0cb;stroke:#ffffff;stroke-linejoin:miter;"/>
   </g>
   <g id="patch_46">
    <path clip-path="url(#p9c58825132)" d="
M360.607 473.807
L373.207 473.807
L373.207 400.551
L360.607 400.551
z
" style="fill:#8da0cb;stroke:#ffffff;stroke-linejoin:miter;"/>
   </g>
   <g id="patch_47">
    <path clip-path="url(#p9c58825132)" d="
M402.608 473.807
L415.208 473.807
L415.208 407.641
L402.608 407.641
z
" style="fill:#8da0cb;stroke:#ffffff;stroke-linejoin:miter;"/>
   </g>
   <g id="patch_48">
    <path clip-path="url(#p9c58825132)" d="
M444.608 473.807
L457.208 473.807
L457.208 424.182
L444.608 424.182
z
" style="fill:#8da0cb;stroke:#ffffff;stroke-linejoin:miter;"/>
   </g>
   <g id="patch_49">
    <path clip-path="url(#p9c58825132)" d="
M486.608 473.807
L499.208 473.807
L499.208 405.278
L486.608 405.278
z
" style="fill:#8da0cb;stroke:#ffffff;stroke-linejoin:miter;"/>
   </g>
   <g id="patch_50">
    <path clip-path="url(#p9c58825132)" d="
M528.608 473.807
L541.208 473.807
L541.208 190.238
L528.608 190.238
z
" style="fill:#8da0cb;stroke:#ffffff;stroke-linejoin:miter;"/>
   </g>
   <g id="patch_51">
    <path clip-path="url(#p9c58825132)" d="
M570.608 473.807
L583.208 473.807
L583.208 22.4592
L570.608 22.4592
z
" style="fill:#8da0cb;stroke:#ffffff;stroke-linejoin:miter;"/>
   </g>
   <g id="patch_52">
    <path clip-path="url(#p9c58825132)" d="
M612.608 473.807
L625.208 473.807
L625.208 410.004
L612.608 410.004
z
" style="fill:#8da0cb;stroke:#ffffff;stroke-linejoin:miter;"/>
   </g>
   <g id="patch_53">
    <path clip-path="url(#p9c58825132)" d="
M654.608 473.807
L667.208 473.807
L667.208 445.45
L654.608 445.45
z
" style="fill:#8da0cb;stroke:#ffffff;stroke-linejoin:miter;"/>
   </g>
   <g id="patch_54">
    <path clip-path="url(#p9c58825132)" d="
M696.608 473.807
L709.208 473.807
L709.208 454.902
L696.608 454.902
z
" style="fill:#8da0cb;stroke:#ffffff;stroke-linejoin:miter;"/>
   </g>
   <g id="patch_55">
    <path clip-path="url(#p9c58825132)" d="
M738.608 473.807
L751.208 473.807
L751.208 433.635
L738.608 433.635
z
" style="fill:#8da0cb;stroke:#ffffff;stroke-linejoin:miter;"/>
   </g>
   <g id="patch_56">
    <path clip-path="url(#p9c58825132)" d="
M780.608 473.807
L793.208 473.807
L793.208 473.807
L780.608 473.807
z
" style="fill:#8da0cb;stroke:#ffffff;stroke-linejoin:miter;"/>
   </g>
   <g id="patch_57">
    <path d="
M41.4075 473.807
L822.608 473.807" style="fill:none;stroke:#000000;stroke-linecap:square;stroke-linejoin:miter;stroke-width:0.5;"/>
   </g>
   <g id="patch_58">
    <path d="
M41.4075 473.807
L41.4075 13.0069" style="fill:none;stroke:#000000;stroke-linecap:square;stroke-linejoin:miter;stroke-width:0.5;"/>
   </g>
   <g id="matplotlib.axis_1">
    <g id="xtick_1">
     <g id="text_1">
      <!-- Tag 0 -->
      <defs>
       <path d="
M34.2812 27.4844
Q23.3906 27.4844 19.1875 25
Q14.9844 22.5156 14.9844 16.5
Q14.9844 11.7188 18.1406 8.90625
Q21.2969 6.10938 26.7031 6.10938
Q34.1875 6.10938 38.7031 11.4062
Q43.2188 16.7031 43.2188 25.4844
L43.2188 27.4844
z

M52.2031 31.2031
L52.2031 0
L43.2188 0
L43.2188 8.29688
Q40.1406 3.32812 35.5469 0.953125
Q30.9531 -1.42188 24.3125 -1.42188
Q15.9219 -1.42188 10.9531 3.29688
Q6 8.01562 6 15.9219
Q6 25.1406 12.1719 29.8281
Q18.3594 34.5156 30.6094 34.5156
L43.2188 34.5156
L43.2188 35.4062
Q43.2188 41.6094 39.1406 45
Q35.0625 48.3906 27.6875 48.3906
Q23 48.3906 18.5469 47.2656
Q14.1094 46.1406 10.0156 43.8906
L10.0156 52.2031
Q14.9375 54.1094 19.5781 55.0469
Q24.2188 56 28.6094 56
Q40.4844 56 46.3438 49.8438
Q52.2031 43.7031 52.2031 31.2031" id="BitstreamVeraSans-Roman-61"/>
       <path d="
M45.4062 27.9844
Q45.4062 37.75 41.375 43.1094
Q37.3594 48.4844 30.0781 48.4844
Q22.8594 48.4844 18.8281 43.1094
Q14.7969 37.75 14.7969 27.9844
Q14.7969 18.2656 18.8281 12.8906
Q22.8594 7.51562 30.0781 7.51562
Q37.3594 7.51562 41.375 12.8906
Q45.4062 18.2656 45.4062 27.9844
M54.3906 6.78125
Q54.3906 -7.17188 48.1875 -13.9844
Q42 -20.7969 29.2031 -20.7969
Q24.4688 -20.7969 20.2656 -20.0938
Q16.0625 -19.3906 12.1094 -17.9219
L12.1094 -9.1875
Q16.0625 -11.3281 19.9219 -12.3438
Q23.7812 -13.375 27.7812 -13.375
Q36.625 -13.375 41.0156 -8.76562
Q45.4062 -4.15625 45.4062 5.17188
L45.4062 9.625
Q42.625 4.78125 38.2812 2.39062
Q33.9375 0 27.875 0
Q17.8281 0 11.6719 7.65625
Q5.51562 15.3281 5.51562 27.9844
Q5.51562 40.6719 11.6719 48.3281
Q17.8281 56 27.875 56
Q33.9375 56 38.2812 53.6094
Q42.625 51.2188 45.4062 46.3906
L45.4062 54.6875
L54.3906 54.6875
z
" id="BitstreamVeraSans-Roman-67"/>
       <path d="
M-0.296875 72.9062
L61.375 72.9062
L61.375 64.5938
L35.5 64.5938
L35.5 0
L25.5938 0
L25.5938 64.5938
L-0.296875 64.5938
z
" id="BitstreamVeraSans-Roman-54"/>
       <path d="
M31.7812 66.4062
Q24.1719 66.4062 20.3281 58.9062
Q16.5 51.4219 16.5 36.375
Q16.5 21.3906 20.3281 13.8906
Q24.1719 6.39062 31.7812 6.39062
Q39.4531 6.39062 43.2812 13.8906
Q47.125 21.3906 47.125 36.375
Q47.125 51.4219 43.2812 58.9062
Q39.4531 66.4062 31.7812 66.4062
M31.7812 74.2188
Q44.0469 74.2188 50.5156 64.5156
Q56.9844 54.8281 56.9844 36.375
Q56.9844 17.9688 50.5156 8.26562
Q44.0469 -1.42188 31.7812 -1.42188
Q19.5312 -1.42188 13.0625 8.26562
Q6.59375 17.9688 6.59375 36.375
Q6.59375 54.8281 13.0625 64.5156
Q19.5312 74.2188 31.7812 74.2188" id="BitstreamVeraSans-Roman-30"/>
       <path id="BitstreamVeraSans-Roman-20"/>
      </defs>
      <g transform="translate(38.503125 486.925)scale(0.12 -0.12)">
       <use xlink:href="#BitstreamVeraSans-Roman-54"/>
       <use x="44.583984375" xlink:href="#BitstreamVeraSans-Roman-61"/>
       <use x="105.86328125" xlink:href="#BitstreamVeraSans-Roman-67"/>
       <use x="169.33984375" xlink:href="#BitstreamVeraSans-Roman-20"/>
       <use x="201.126953125" xlink:href="#BitstreamVeraSans-Roman-30"/>
      </g>
     </g>
    </g>
    <g id="xtick_2">
     <g id="text_2">
      <!-- Tag 1 -->
      <defs>
       <path d="
M12.4062 8.29688
L28.5156 8.29688
L28.5156 63.9219
L10.9844 60.4062
L10.9844 69.3906
L28.4219 72.9062
L38.2812 72.9062
L38.2812 8.29688
L54.3906 8.29688
L54.3906 0
L12.4062 0
z
" id="BitstreamVeraSans-Roman-31"/>
      </defs>
      <g transform="translate(80.65875 486.925)scale(0.12 -0.12)">
       <use xlink:href="#BitstreamVeraSans-Roman-54"/>
       <use x="44.583984375" xlink:href="#BitstreamVeraSans-Roman-61"/>
       <use x="105.86328125" xlink:href="#BitstreamVeraSans-Roman-67"/>
       <use x="169.33984375" xlink:href="#BitstreamVeraSans-Roman-20"/>
       <use x="201.126953125" xlink:href="#BitstreamVeraSans-Roman-31"/>
      </g>
     </g>
    </g>
    <g id="xtick_3">
     <g id="text_3">
      <!-- Tag 2 -->
      <defs>
       <path d="
M19.1875 8.29688
L53.6094 8.29688
L53.6094 0
L7.32812 0
L7.32812 8.29688
Q12.9375 14.1094 22.625 23.8906
Q32.3281 33.6875 34.8125 36.5312
Q39.5469 41.8438 41.4219 45.5312
Q43.3125 49.2188 43.3125 52.7812
Q43.3125 58.5938 39.2344 62.25
Q35.1562 65.9219 28.6094 65.9219
Q23.9688 65.9219 18.8125 64.3125
Q13.6719 62.7031 7.8125 59.4219
L7.8125 69.3906
Q13.7656 71.7812 18.9375 73
Q24.125 74.2188 28.4219 74.2188
Q39.75 74.2188 46.4844 68.5469
Q53.2188 62.8906 53.2188 53.4219
Q53.2188 48.9219 51.5312 44.8906
Q49.8594 40.875 45.4062 35.4062
Q44.1875 33.9844 37.6406 27.2188
Q31.1094 20.4531 19.1875 8.29688" id="BitstreamVeraSans-Roman-32"/>
      </defs>
      <g transform="translate(122.705625 486.925)scale(0.12 -0.12)">
       <use xlink:href="#BitstreamVeraSans-Roman-54"/>
       <use x="44.583984375" xlink:href="#BitstreamVeraSans-Roman-61"/>
       <use x="105.86328125" xlink:href="#BitstreamVeraSans-Roman-67"/>
       <use x="169.33984375" xlink:href="#BitstreamVeraSans-Roman-20"/>
       <use x="201.126953125" xlink:href="#BitstreamVeraSans-Roman-32"/>
      </g>
     </g>
    </g>
    <g id="xtick_4">
     <g id="text_4">
      <!-- Tag 3 -->
      <defs>
       <path d="
M40.5781 39.3125
Q47.6562 37.7969 51.625 33
Q55.6094 28.2188 55.6094 21.1875
Q55.6094 10.4062 48.1875 4.48438
Q40.7656 -1.42188 27.0938 -1.42188
Q22.5156 -1.42188 17.6562 -0.515625
Q12.7969 0.390625 7.625 2.20312
L7.625 11.7188
Q11.7188 9.32812 16.5938 8.10938
Q21.4844 6.89062 26.8125 6.89062
Q36.0781 6.89062 40.9375 10.5469
Q45.7969 14.2031 45.7969 21.1875
Q45.7969 27.6406 41.2812 31.2656
Q36.7656 34.9062 28.7188 34.9062
L20.2188 34.9062
L20.2188 43.0156
L29.1094 43.0156
Q36.375 43.0156 40.2344 45.9219
Q44.0938 48.8281 44.0938 54.2969
Q44.0938 59.9062 40.1094 62.9062
Q36.1406 65.9219 28.7188 65.9219
Q24.6562 65.9219 20.0156 65.0312
Q15.375 64.1562 9.8125 62.3125
L9.8125 71.0938
Q15.4375 72.6562 20.3438 73.4375
Q25.25 74.2188 29.5938 74.2188
Q40.8281 74.2188 47.3594 69.1094
Q53.9062 64.0156 53.9062 55.3281
Q53.9062 49.2656 50.4375 45.0938
Q46.9688 40.9219 40.5781 39.3125" id="BitstreamVeraSans-Roman-33"/>
      </defs>
      <g transform="translate(164.585625 486.925)scale(0.12 -0.12)">
       <use xlink:href="#BitstreamVeraSans-Roman-54"/>
       <use x="44.583984375" xlink:href="#BitstreamVeraSans-Roman-61"/>
       <use x="105.86328125" xlink:href="#BitstreamVeraSans-Roman-67"/>
       <use x="169.33984375" xlink:href="#BitstreamVeraSans-Roman-20"/>
       <use x="201.126953125" xlink:href="#BitstreamVeraSans-Roman-33"/>
      </g>
     </g>
    </g>
    <g id="xtick_5">
     <g id="text_5">
      <!-- Tag 4 -->
      <defs>
       <path d="
M37.7969 64.3125
L12.8906 25.3906
L37.7969 25.3906
z

M35.2031 72.9062
L47.6094 72.9062
L47.6094 25.3906
L58.0156 25.3906
L58.0156 17.1875
L47.6094 17.1875
L47.6094 0
L37.7969 0
L37.7969 17.1875
L4.89062 17.1875
L4.89062 26.7031
z
" id="BitstreamVeraSans-Roman-34"/>
      </defs>
      <g transform="translate(206.44125 486.925)scale(0.12 -0.12)">
       <use xlink:href="#BitstreamVeraSans-Roman-54"/>
       <use x="44.583984375" xlink:href="#BitstreamVeraSans-Roman-61"/>
       <use x="105.86328125" xlink:href="#BitstreamVeraSans-Roman-67"/>
       <use x="169.33984375" xlink:href="#BitstreamVeraSans-Roman-20"/>
       <use x="201.126953125" xlink:href="#BitstreamVeraSans-Roman-34"/>
      </g>
     </g>
    </g>
    <g id="xtick_6">
     <g id="text_6">
      <!-- Tag 5 -->
      <defs>
       <path d="
M10.7969 72.9062
L49.5156 72.9062
L49.5156 64.5938
L19.8281 64.5938
L19.8281 46.7344
Q21.9688 47.4688 24.1094 47.8281
Q26.2656 48.1875 28.4219 48.1875
Q40.625 48.1875 47.75 41.5
Q54.8906 34.8125 54.8906 23.3906
Q54.8906 11.625 47.5625 5.09375
Q40.2344 -1.42188 26.9062 -1.42188
Q22.3125 -1.42188 17.5469 -0.640625
Q12.7969 0.140625 7.71875 1.70312
L7.71875 11.625
Q12.1094 9.23438 16.7969 8.0625
Q21.4844 6.89062 26.7031 6.89062
Q35.1562 6.89062 40.0781 11.3281
Q45.0156 15.7656 45.0156 23.3906
Q45.0156 31 40.0781 35.4375
Q35.1562 39.8906 26.7031 39.8906
Q22.75 39.8906 18.8125 39.0156
Q14.8906 38.1406 10.7969 36.2812
z
" id="BitstreamVeraSans-Roman-35"/>
      </defs>
      <g transform="translate(248.62875 486.925)scale(0.12 -0.12)">
       <use xlink:href="#BitstreamVeraSans-Roman-54"/>
       <use x="44.583984375" xlink:href="#BitstreamVeraSans-Roman-61"/>
       <use x="105.86328125" xlink:href="#BitstreamVeraSans-Roman-67"/>
       <use x="169.33984375" xlink:href="#BitstreamVeraSans-Roman-20"/>
       <use x="201.126953125" xlink:href="#BitstreamVeraSans-Roman-35"/>
      </g>
     </g>
    </g>
    <g id="xtick_7">
     <g id="text_7">
      <!-- Tag 6 -->
      <defs>
       <path d="
M33.0156 40.375
Q26.375 40.375 22.4844 35.8281
Q18.6094 31.2969 18.6094 23.3906
Q18.6094 15.5312 22.4844 10.9531
Q26.375 6.39062 33.0156 6.39062
Q39.6562 6.39062 43.5312 10.9531
Q47.4062 15.5312 47.4062 23.3906
Q47.4062 31.2969 43.5312 35.8281
Q39.6562 40.375 33.0156 40.375
M52.5938 71.2969
L52.5938 62.3125
Q48.875 64.0625 45.0938 64.9844
Q41.3125 65.9219 37.5938 65.9219
Q27.8281 65.9219 22.6719 59.3281
Q17.5312 52.7344 16.7969 39.4062
Q19.6719 43.6562 24.0156 45.9219
Q28.375 48.1875 33.5938 48.1875
Q44.5781 48.1875 50.9531 41.5156
Q57.3281 34.8594 57.3281 23.3906
Q57.3281 12.1562 50.6875 5.35938
Q44.0469 -1.42188 33.0156 -1.42188
Q20.3594 -1.42188 13.6719 8.26562
Q6.98438 17.9688 6.98438 36.375
Q6.98438 53.6562 15.1875 63.9375
Q23.3906 74.2188 37.2031 74.2188
Q40.9219 74.2188 44.7031 73.4844
Q48.4844 72.75 52.5938 71.2969" id="BitstreamVeraSans-Roman-36"/>
      </defs>
      <g transform="translate(290.4825 486.925)scale(0.12 -0.12)">
       <use xlink:href="#BitstreamVeraSans-Roman-54"/>
       <use x="44.583984375" xlink:href="#BitstreamVeraSans-Roman-61"/>
       <use x="105.86328125" xlink:href="#BitstreamVeraSans-Roman-67"/>
       <use x="169.33984375" xlink:href="#BitstreamVeraSans-Roman-20"/>
       <use x="201.126953125" xlink:href="#BitstreamVeraSans-Roman-36"/>
      </g>
     </g>
    </g>
    <g id="xtick_8">
     <g id="text_8">
      <!-- Tag 7 -->
      <defs>
       <path d="
M8.20312 72.9062
L55.0781 72.9062
L55.0781 68.7031
L28.6094 0
L18.3125 0
L43.2188 64.5938
L8.20312 64.5938
z
" id="BitstreamVeraSans-Roman-37"/>
      </defs>
      <g transform="translate(332.6175 486.925)scale(0.12 -0.12)">
       <use xlink:href="#BitstreamVeraSans-Roman-54"/>
       <use x="44.583984375" xlink:href="#BitstreamVeraSans-Roman-61"/>
       <use x="105.86328125" xlink:href="#BitstreamVeraSans-Roman-67"/>
       <use x="169.33984375" xlink:href="#BitstreamVeraSans-Roman-20"/>
       <use x="201.126953125" xlink:href="#BitstreamVeraSans-Roman-37"/>
      </g>
     </g>
    </g>
    <g id="xtick_9">
     <g id="text_9">
      <!-- Tag 8 -->
      <defs>
       <path d="
M31.7812 34.625
Q24.75 34.625 20.7188 30.8594
Q16.7031 27.0938 16.7031 20.5156
Q16.7031 13.9219 20.7188 10.1562
Q24.75 6.39062 31.7812 6.39062
Q38.8125 6.39062 42.8594 10.1719
Q46.9219 13.9688 46.9219 20.5156
Q46.9219 27.0938 42.8906 30.8594
Q38.875 34.625 31.7812 34.625
M21.9219 38.8125
Q15.5781 40.375 12.0312 44.7188
Q8.5 49.0781 8.5 55.3281
Q8.5 64.0625 14.7188 69.1406
Q20.9531 74.2188 31.7812 74.2188
Q42.6719 74.2188 48.875 69.1406
Q55.0781 64.0625 55.0781 55.3281
Q55.0781 49.0781 51.5312 44.7188
Q48 40.375 41.7031 38.8125
Q48.8281 37.1562 52.7969 32.3125
Q56.7812 27.4844 56.7812 20.5156
Q56.7812 9.90625 50.3125 4.23438
Q43.8438 -1.42188 31.7812 -1.42188
Q19.7344 -1.42188 13.25 4.23438
Q6.78125 9.90625 6.78125 20.5156
Q6.78125 27.4844 10.7812 32.3125
Q14.7969 37.1562 21.9219 38.8125
M18.3125 54.3906
Q18.3125 48.7344 21.8438 45.5625
Q25.3906 42.3906 31.7812 42.3906
Q38.1406 42.3906 41.7188 45.5625
Q45.3125 48.7344 45.3125 54.3906
Q45.3125 60.0625 41.7188 63.2344
Q38.1406 66.4062 31.7812 66.4062
Q25.3906 66.4062 21.8438 63.2344
Q18.3125 60.0625 18.3125 54.3906" id="BitstreamVeraSans-Roman-38"/>
      </defs>
      <g transform="translate(374.5153125 486.925)scale(0.12 -0.12)">
       <use xlink:href="#BitstreamVeraSans-Roman-54"/>
       <use x="44.583984375" xlink:href="#BitstreamVeraSans-Roman-61"/>
       <use x="105.86328125" xlink:href="#BitstreamVeraSans-Roman-67"/>
       <use x="169.33984375" xlink:href="#BitstreamVeraSans-Roman-20"/>
       <use x="201.126953125" xlink:href="#BitstreamVeraSans-Roman-38"/>
      </g>
     </g>
    </g>
    <g id="xtick_10">
     <g id="text_10">
      <!-- Tag 9 -->
      <defs>
       <path d="
M10.9844 1.51562
L10.9844 10.5
Q14.7031 8.73438 18.5 7.8125
Q22.3125 6.89062 25.9844 6.89062
Q35.75 6.89062 40.8906 13.4531
Q46.0469 20.0156 46.7812 33.4062
Q43.9531 29.2031 39.5938 26.9531
Q35.25 24.7031 29.9844 24.7031
Q19.0469 24.7031 12.6719 31.3125
Q6.29688 37.9375 6.29688 49.4219
Q6.29688 60.6406 12.9375 67.4219
Q19.5781 74.2188 30.6094 74.2188
Q43.2656 74.2188 49.9219 64.5156
Q56.5938 54.8281 56.5938 36.375
Q56.5938 19.1406 48.4062 8.85938
Q40.2344 -1.42188 26.4219 -1.42188
Q22.7031 -1.42188 18.8906 -0.6875
Q15.0938 0.046875 10.9844 1.51562
M30.6094 32.4219
Q37.25 32.4219 41.125 36.9531
Q45.0156 41.5 45.0156 49.4219
Q45.0156 57.2812 41.125 61.8438
Q37.25 66.4062 30.6094 66.4062
Q23.9688 66.4062 20.0938 61.8438
Q16.2188 57.2812 16.2188 49.4219
Q16.2188 41.5 20.0938 36.9531
Q23.9688 32.4219 30.6094 32.4219" id="BitstreamVeraSans-Roman-39"/>
      </defs>
      <g transform="translate(416.5265625 486.925)scale(0.12 -0.12)">
       <use xlink:href="#BitstreamVeraSans-Roman-54"/>
       <use x="44.583984375" xlink:href="#BitstreamVeraSans-Roman-61"/>
       <use x="105.86328125" xlink:href="#BitstreamVeraSans-Roman-67"/>
       <use x="169.33984375" xlink:href="#BitstreamVeraSans-Roman-20"/>
       <use x="201.126953125" xlink:href="#BitstreamVeraSans-Roman-39"/>
      </g>
     </g>
    </g>
    <g id="xtick_11">
     <g id="text_11">
      <!-- Tag 10 -->
      <g transform="translate(454.685625 486.925)scale(0.12 -0.12)">
       <use xlink:href="#BitstreamVeraSans-Roman-54"/>
       <use x="44.583984375" xlink:href="#BitstreamVeraSans-Roman-61"/>
       <use x="105.86328125" xlink:href="#BitstreamVeraSans-Roman-67"/>
       <use x="169.33984375" xlink:href="#BitstreamVeraSans-Roman-20"/>
       <use x="201.126953125" xlink:href="#BitstreamVeraSans-Roman-31"/>
       <use x="264.75" xlink:href="#BitstreamVeraSans-Roman-30"/>
      </g>
     </g>
    </g>
    <g id="xtick_12">
     <g id="text_12">
      <!-- Tag 11 -->
      <g transform="translate(496.84125 486.925)scale(0.12 -0.12)">
       <use xlink:href="#BitstreamVeraSans-Roman-54"/>
       <use x="44.583984375" xlink:href="#BitstreamVeraSans-Roman-61"/>
       <use x="105.86328125" xlink:href="#BitstreamVeraSans-Roman-67"/>
       <use x="169.33984375" xlink:href="#BitstreamVeraSans-Roman-20"/>
       <use x="201.126953125" xlink:href="#BitstreamVeraSans-Roman-31"/>
       <use x="264.75" xlink:href="#BitstreamVeraSans-Roman-31"/>
      </g>
     </g>
    </g>
    <g id="xtick_13">
     <g id="text_13">
      <!-- Tag 12 -->
      <g transform="translate(538.888125 486.925)scale(0.12 -0.12)">
       <use xlink:href="#BitstreamVeraSans-Roman-54"/>
       <use x="44.583984375" xlink:href="#BitstreamVeraSans-Roman-61"/>
       <use x="105.86328125" xlink:href="#BitstreamVeraSans-Roman-67"/>
       <use x="169.33984375" xlink:href="#BitstreamVeraSans-Roman-20"/>
       <use x="201.126953125" xlink:href="#BitstreamVeraSans-Roman-31"/>
       <use x="264.75" xlink:href="#BitstreamVeraSans-Roman-32"/>
      </g>
     </g>
    </g>
    <g id="xtick_14">
     <g id="text_14">
      <!-- Tag 13 -->
      <g transform="translate(580.768125 486.925)scale(0.12 -0.12)">
       <use xlink:href="#BitstreamVeraSans-Roman-54"/>
       <use x="44.583984375" xlink:href="#BitstreamVeraSans-Roman-61"/>
       <use x="105.86328125" xlink:href="#BitstreamVeraSans-Roman-67"/>
       <use x="169.33984375" xlink:href="#BitstreamVeraSans-Roman-20"/>
       <use x="201.126953125" xlink:href="#BitstreamVeraSans-Roman-31"/>
       <use x="264.75" xlink:href="#BitstreamVeraSans-Roman-33"/>
      </g>
     </g>
    </g>
    <g id="xtick_15">
     <g id="text_15">
      <!-- Tag 14 -->
      <g transform="translate(622.62375 486.925)scale(0.12 -0.12)">
       <use xlink:href="#BitstreamVeraSans-Roman-54"/>
       <use x="44.583984375" xlink:href="#BitstreamVeraSans-Roman-61"/>
       <use x="105.86328125" xlink:href="#BitstreamVeraSans-Roman-67"/>
       <use x="169.33984375" xlink:href="#BitstreamVeraSans-Roman-20"/>
       <use x="201.126953125" xlink:href="#BitstreamVeraSans-Roman-31"/>
       <use x="264.75" xlink:href="#BitstreamVeraSans-Roman-34"/>
      </g>
     </g>
    </g>
    <g id="xtick_16">
     <g id="text_16">
      <!-- Tag 15 -->
      <g transform="translate(664.81125 486.925)scale(0.12 -0.12)">
       <use xlink:href="#BitstreamVeraSans-Roman-54"/>
       <use x="44.583984375" xlink:href="#BitstreamVeraSans-Roman-61"/>
       <use x="105.86328125" xlink:href="#BitstreamVeraSans-Roman-67"/>
       <use x="169.33984375" xlink:href="#BitstreamVeraSans-Roman-20"/>
       <use x="201.126953125" xlink:href="#BitstreamVeraSans-Roman-31"/>
       <use x="264.75" xlink:href="#BitstreamVeraSans-Roman-35"/>
      </g>
     </g>
    </g>
    <g id="xtick_17">
     <g id="text_17">
      <!-- Tag 16 -->
      <g transform="translate(706.665 486.925)scale(0.12 -0.12)">
       <use xlink:href="#BitstreamVeraSans-Roman-54"/>
       <use x="44.583984375" xlink:href="#BitstreamVeraSans-Roman-61"/>
       <use x="105.86328125" xlink:href="#BitstreamVeraSans-Roman-67"/>
       <use x="169.33984375" xlink:href="#BitstreamVeraSans-Roman-20"/>
       <use x="201.126953125" xlink:href="#BitstreamVeraSans-Roman-31"/>
       <use x="264.75" xlink:href="#BitstreamVeraSans-Roman-36"/>
      </g>
     </g>
    </g>
    <g id="xtick_18">
     <g id="text_18">
      <!-- Tag 17 -->
      <g transform="translate(748.8 486.925)scale(0.12 -0.12)">
       <use xlink:href="#BitstreamVeraSans-Roman-54"/>
       <use x="44.583984375" xlink:href="#BitstreamVeraSans-Roman-61"/>
       <use x="105.86328125" xlink:href="#BitstreamVeraSans-Roman-67"/>
       <use x="169.33984375" xlink:href="#BitstreamVeraSans-Roman-20"/>
       <use x="201.126953125" xlink:href="#BitstreamVeraSans-Roman-31"/>
       <use x="264.75" xlink:href="#BitstreamVeraSans-Roman-37"/>
      </g>
     </g>
    </g>
    <g id="text_19">
     <!-- Tag des Sommerlagers -->
     <defs>
      <path d="
M52 44.1875
Q55.375 50.25 60.0625 53.125
Q64.75 56 71.0938 56
Q79.6406 56 84.2812 50.0156
Q88.9219 44.0469 88.9219 33.0156
L88.9219 0
L79.8906 0
L79.8906 32.7188
Q79.8906 40.5781 77.0938 44.375
Q74.3125 48.1875 68.6094 48.1875
Q61.625 48.1875 57.5625 43.5469
Q53.5156 38.9219 53.5156 30.9062
L53.5156 0
L44.4844 0
L44.4844 32.7188
Q44.4844 40.625 41.7031 44.4062
Q38.9219 48.1875 33.1094 48.1875
Q26.2188 48.1875 22.1562 43.5312
Q18.1094 38.875 18.1094 30.9062
L18.1094 0
L9.07812 0
L9.07812 54.6875
L18.1094 54.6875
L18.1094 46.1875
Q21.1875 51.2188 25.4844 53.6094
Q29.7812 56 35.6875 56
Q41.6562 56 45.8281 52.9688
Q50 49.9531 52 44.1875" id="BitstreamVeraSans-Roman-6d"/>
      <path d="
M30.6094 48.3906
Q23.3906 48.3906 19.1875 42.75
Q14.9844 37.1094 14.9844 27.2969
Q14.9844 17.4844 19.1562 11.8438
Q23.3438 6.20312 30.6094 6.20312
Q37.7969 6.20312 41.9844 11.8594
Q46.1875 17.5312 46.1875 27.2969
Q46.1875 37.0156 41.9844 42.7031
Q37.7969 48.3906 30.6094 48.3906
M30.6094 56
Q42.3281 56 49.0156 48.375
Q55.7188 40.7656 55.7188 27.2969
Q55.7188 13.875 49.0156 6.21875
Q42.3281 -1.42188 30.6094 -1.42188
Q18.8438 -1.42188 12.1719 6.21875
Q5.51562 13.875 5.51562 27.2969
Q5.51562 40.7656 12.1719 48.375
Q18.8438 56 30.6094 56" id="BitstreamVeraSans-Roman-6f"/>
      <path d="
M9.42188 75.9844
L18.4062 75.9844
L18.4062 0
L9.42188 0
z
" id="BitstreamVeraSans-Roman-6c"/>
      <path d="
M53.5156 70.5156
L53.5156 60.8906
Q47.9062 63.5781 42.9219 64.8906
Q37.9375 66.2188 33.2969 66.2188
Q25.25 66.2188 20.875 63.0938
Q16.5 59.9688 16.5 54.2031
Q16.5 49.3594 19.4062 46.8906
Q22.3125 44.4375 30.4219 42.9219
L36.375 41.7031
Q47.4062 39.5938 52.6562 34.2969
Q57.9062 29 57.9062 20.125
Q57.9062 9.51562 50.7969 4.04688
Q43.7031 -1.42188 29.9844 -1.42188
Q24.8125 -1.42188 18.9688 -0.25
Q13.1406 0.921875 6.89062 3.21875
L6.89062 13.375
Q12.8906 10.0156 18.6562 8.29688
Q24.4219 6.59375 29.9844 6.59375
Q38.4219 6.59375 43.0156 9.90625
Q47.6094 13.2344 47.6094 19.3906
Q47.6094 24.75 44.3125 27.7812
Q41.0156 30.8125 33.5 32.3281
L27.4844 33.5
Q16.4531 35.6875 11.5156 40.375
Q6.59375 45.0625 6.59375 53.4219
Q6.59375 63.0938 13.4062 68.6562
Q20.2188 74.2188 32.1719 74.2188
Q37.3125 74.2188 42.625 73.2812
Q47.9531 72.3594 53.5156 70.5156" id="BitstreamVeraSans-Roman-53"/>
      <path d="
M56.2031 29.5938
L56.2031 25.2031
L14.8906 25.2031
Q15.4844 15.9219 20.4844 11.0625
Q25.4844 6.20312 34.4219 6.20312
Q39.5938 6.20312 44.4531 7.46875
Q49.3125 8.73438 54.1094 11.2812
L54.1094 2.78125
Q49.2656 0.734375 44.1875 -0.34375
Q39.1094 -1.42188 33.8906 -1.42188
Q20.7969 -1.42188 13.1562 6.1875
Q5.51562 13.8125 5.51562 26.8125
Q5.51562 40.2344 12.7656 48.1094
Q20.0156 56 32.3281 56
Q43.3594 56 49.7812 48.8906
Q56.2031 41.7969 56.2031 29.5938
M47.2188 32.2344
Q47.125 39.5938 43.0938 43.9844
Q39.0625 48.3906 32.4219 48.3906
Q24.9062 48.3906 20.3906 44.1406
Q15.875 39.8906 15.1875 32.1719
z
" id="BitstreamVeraSans-Roman-65"/>
      <path d="
M45.4062 46.3906
L45.4062 75.9844
L54.3906 75.9844
L54.3906 0
L45.4062 0
L45.4062 8.20312
Q42.5781 3.32812 38.25 0.953125
Q33.9375 -1.42188 27.875 -1.42188
Q17.9688 -1.42188 11.7344 6.48438
Q5.51562 14.4062 5.51562 27.2969
Q5.51562 40.1875 11.7344 48.0938
Q17.9688 56 27.875 56
Q33.9375 56 38.25 53.625
Q42.5781 51.2656 45.4062 46.3906
M14.7969 27.2969
Q14.7969 17.3906 18.875 11.75
Q22.9531 6.10938 30.0781 6.10938
Q37.2031 6.10938 41.2969 11.75
Q45.4062 17.3906 45.4062 27.2969
Q45.4062 37.2031 41.2969 42.8438
Q37.2031 48.4844 30.0781 48.4844
Q22.9531 48.4844 18.875 42.8438
Q14.7969 37.2031 14.7969 27.2969" id="BitstreamVeraSans-Roman-64"/>
      <path d="
M41.1094 46.2969
Q39.5938 47.1719 37.8125 47.5781
Q36.0312 48 33.8906 48
Q26.2656 48 22.1875 43.0469
Q18.1094 38.0938 18.1094 28.8125
L18.1094 0
L9.07812 0
L9.07812 54.6875
L18.1094 54.6875
L18.1094 46.1875
Q20.9531 51.1719 25.4844 53.5781
Q30.0312 56 36.5312 56
Q37.4531 56 38.5781 55.875
Q39.7031 55.7656 41.0625 55.5156
z
" id="BitstreamVeraSans-Roman-72"/>
      <path d="
M44.2812 53.0781
L44.2812 44.5781
Q40.4844 46.5312 36.375 47.5
Q32.2812 48.4844 27.875 48.4844
Q21.1875 48.4844 17.8438 46.4375
Q14.5 44.3906 14.5 40.2812
Q14.5 37.1562 16.8906 35.375
Q19.2812 33.5938 26.5156 31.9844
L29.5938 31.2969
Q39.1562 29.25 43.1875 25.5156
Q47.2188 21.7812 47.2188 15.0938
Q47.2188 7.46875 41.1875 3.01562
Q35.1562 -1.42188 24.6094 -1.42188
Q20.2188 -1.42188 15.4531 -0.5625
Q10.6875 0.296875 5.42188 2
L5.42188 11.2812
Q10.4062 8.6875 15.2344 7.39062
Q20.0625 6.10938 24.8125 6.10938
Q31.1562 6.10938 34.5625 8.28125
Q37.9844 10.4531 37.9844 14.4062
Q37.9844 18.0625 35.5156 20.0156
Q33.0625 21.9688 24.7031 23.7812
L21.5781 24.5156
Q13.2344 26.2656 9.51562 29.9062
Q5.8125 33.5469 5.8125 39.8906
Q5.8125 47.6094 11.2812 51.7969
Q16.75 56 26.8125 56
Q31.7812 56 36.1719 55.2656
Q40.5781 54.5469 44.2812 53.0781" id="BitstreamVeraSans-Roman-73"/>
     </defs>
     <g transform="translate(363.916875 503.53875)scale(0.12 -0.12)">
      <use xlink:href="#BitstreamVeraSans-Roman-54"/>
      <use x="44.583984375" xlink:href="#BitstreamVeraSans-Roman-61"/>
      <use x="105.86328125" xlink:href="#BitstreamVeraSans-Roman-67"/>
      <use x="169.33984375" xlink:href="#BitstreamVeraSans-Roman-20"/>
      <use x="201.126953125" xlink:href="#BitstreamVeraSans-Roman-64"/>
      <use x="264.603515625" xlink:href="#BitstreamVeraSans-Roman-65"/>
      <use x="326.126953125" xlink:href="#BitstreamVeraSans-Roman-73"/>
      <use x="378.2265625" xlink:href="#BitstreamVeraSans-Roman-20"/>
      <use x="410.013671875" xlink:href="#BitstreamVeraSans-Roman-53"/>
      <use x="473.490234375" xlink:href="#BitstreamVeraSans-Roman-6f"/>
      <use x="534.671875" xlink:href="#BitstreamVeraSans-Roman-6d"/>
      <use x="632.083984375" xlink:href="#BitstreamVeraSans-Roman-6d"/>
      <use x="729.49609375" xlink:href="#BitstreamVeraSans-Roman-65"/>
      <use x="791.01953125" xlink:href="#BitstreamVeraSans-Roman-72"/>
      <use x="832.1328125" xlink:href="#BitstreamVeraSans-Roman-6c"/>
      <use x="859.916015625" xlink:href="#BitstreamVeraSans-Roman-61"/>
      <use x="921.1953125" xlink:href="#BitstreamVeraSans-Roman-67"/>
      <use x="984.671875" xlink:href="#BitstreamVeraSans-Roman-65"/>
      <use x="1046.1953125" xlink:href="#BitstreamVeraSans-Roman-72"/>
      <use x="1087.30859375" xlink:href="#BitstreamVeraSans-Roman-73"/>
     </g>
    </g>
   </g>
   <g id="matplotlib.axis_2">
    <g id="ytick_1">
     <g id="text_20">
      <!-- 0 -->
      <g transform="translate(31.360625 477.118125)scale(0.12 -0.12)">
       <use xlink:href="#BitstreamVeraSans-Roman-30"/>
      </g>
     </g>
    </g>
    <g id="ytick_2">
     <g id="text_21">
      <!-- 5 -->
      <g transform="translate(31.746875 384.958125)scale(0.12 -0.12)">
       <use xlink:href="#BitstreamVeraSans-Roman-35"/>
      </g>
     </g>
    </g>
    <g id="ytick_3">
     <g id="text_22">
      <!-- 10 -->
      <g transform="translate(24.2525 292.798125)scale(0.12 -0.12)">
       <use xlink:href="#BitstreamVeraSans-Roman-31"/>
       <use x="63.623046875" xlink:href="#BitstreamVeraSans-Roman-30"/>
      </g>
     </g>
    </g>
    <g id="ytick_4">
     <g id="text_23">
      <!-- 15 -->
      <g transform="translate(24.50375 200.638125)scale(0.12 -0.12)">
       <use xlink:href="#BitstreamVeraSans-Roman-31"/>
       <use x="63.623046875" xlink:href="#BitstreamVeraSans-Roman-35"/>
      </g>
     </g>
    </g>
    <g id="ytick_5">
     <g id="text_24">
      <!-- 20 -->
      <g transform="translate(23.81375 108.478125)scale(0.12 -0.12)">
       <use xlink:href="#BitstreamVeraSans-Roman-32"/>
       <use x="63.623046875" xlink:href="#BitstreamVeraSans-Roman-30"/>
      </g>
     </g>
    </g>
    <g id="ytick_6">
     <g id="text_25">
      <!-- 25 -->
      <g transform="translate(24.065 16.318125)scale(0.12 -0.12)">
       <use xlink:href="#BitstreamVeraSans-Roman-32"/>
       <use x="63.623046875" xlink:href="#BitstreamVeraSans-Roman-35"/>
      </g>
     </g>
    </g>
    <g id="text_26">
     <!-- Fotos pro Tag in Prozent vom jeweiligen Sommerlager -->
     <defs>
      <path d="
M54.8906 33.0156
L54.8906 0
L45.9062 0
L45.9062 32.7188
Q45.9062 40.4844 42.875 44.3281
Q39.8438 48.1875 33.7969 48.1875
Q26.5156 48.1875 22.3125 43.5469
Q18.1094 38.9219 18.1094 30.9062
L18.1094 0
L9.07812 0
L9.07812 54.6875
L18.1094 54.6875
L18.1094 46.1875
Q21.3438 51.125 25.7031 53.5625
Q30.0781 56 35.7969 56
Q45.2188 56 50.0469 50.1719
Q54.8906 44.3438 54.8906 33.0156" id="BitstreamVeraSans-Roman-6e"/>
      <path d="
M9.42188 54.6875
L18.4062 54.6875
L18.4062 -0.984375
Q18.4062 -11.4219 14.4219 -16.1094
Q10.4531 -20.7969 1.60938 -20.7969
L-1.8125 -20.7969
L-1.8125 -13.1875
L0.59375 -13.1875
Q5.71875 -13.1875 7.5625 -10.8125
Q9.42188 -8.45312 9.42188 -0.984375
z

M9.42188 75.9844
L18.4062 75.9844
L18.4062 64.5938
L9.42188 64.5938
z
" id="BitstreamVeraSans-Roman-6a"/>
      <path d="
M5.51562 54.6875
L48.1875 54.6875
L48.1875 46.4844
L14.4062 7.17188
L48.1875 7.17188
L48.1875 0
L4.29688 0
L4.29688 8.20312
L38.0938 47.5156
L5.51562 47.5156
z
" id="BitstreamVeraSans-Roman-7a"/>
      <path d="
M19.6719 64.7969
L19.6719 37.4062
L32.0781 37.4062
Q38.9688 37.4062 42.7188 40.9688
Q46.4844 44.5312 46.4844 51.125
Q46.4844 57.6719 42.7188 61.2344
Q38.9688 64.7969 32.0781 64.7969
z

M9.8125 72.9062
L32.0781 72.9062
Q44.3438 72.9062 50.6094 67.3594
Q56.8906 61.8125 56.8906 51.125
Q56.8906 40.3281 50.6094 34.8125
Q44.3438 29.2969 32.0781 29.2969
L19.6719 29.2969
L19.6719 0
L9.8125 0
z
" id="BitstreamVeraSans-Roman-50"/>
      <path d="
M9.8125 72.9062
L51.7031 72.9062
L51.7031 64.5938
L19.6719 64.5938
L19.6719 43.1094
L48.5781 43.1094
L48.5781 34.8125
L19.6719 34.8125
L19.6719 0
L9.8125 0
z
" id="BitstreamVeraSans-Roman-46"/>
      <path d="
M9.42188 54.6875
L18.4062 54.6875
L18.4062 0
L9.42188 0
z

M9.42188 75.9844
L18.4062 75.9844
L18.4062 64.5938
L9.42188 64.5938
z
" id="BitstreamVeraSans-Roman-69"/>
      <path d="
M2.98438 54.6875
L12.5 54.6875
L29.5938 8.79688
L46.6875 54.6875
L56.2031 54.6875
L35.6875 0
L23.4844 0
z
" id="BitstreamVeraSans-Roman-76"/>
      <path d="
M4.20312 54.6875
L13.1875 54.6875
L24.4219 12.0156
L35.5938 54.6875
L46.1875 54.6875
L57.4219 12.0156
L68.6094 54.6875
L77.5938 54.6875
L63.2812 0
L52.6875 0
L40.9219 44.8281
L29.1094 0
L18.5 0
z
" id="BitstreamVeraSans-Roman-77"/>
      <path d="
M18.3125 70.2188
L18.3125 54.6875
L36.8125 54.6875
L36.8125 47.7031
L18.3125 47.7031
L18.3125 18.0156
Q18.3125 11.3281 20.1406 9.42188
Q21.9688 7.51562 27.5938 7.51562
L36.8125 7.51562
L36.8125 0
L27.5938 0
Q17.1875 0 13.2344 3.875
Q9.28125 7.76562 9.28125 18.0156
L9.28125 47.7031
L2.6875 47.7031
L2.6875 54.6875
L9.28125 54.6875
L9.28125 70.2188
z
" id="BitstreamVeraSans-Roman-74"/>
      <path d="
M18.1094 8.20312
L18.1094 -20.7969
L9.07812 -20.7969
L9.07812 54.6875
L18.1094 54.6875
L18.1094 46.3906
Q20.9531 51.2656 25.2656 53.625
Q29.5938 56 35.5938 56
Q45.5625 56 51.7812 48.0938
Q58.0156 40.1875 58.0156 27.2969
Q58.0156 14.4062 51.7812 6.48438
Q45.5625 -1.42188 35.5938 -1.42188
Q29.5938 -1.42188 25.2656 0.953125
Q20.9531 3.32812 18.1094 8.20312
M48.6875 27.2969
Q48.6875 37.2031 44.6094 42.8438
Q40.5312 48.4844 33.4062 48.4844
Q26.2656 48.4844 22.1875 42.8438
Q18.1094 37.2031 18.1094 27.2969
Q18.1094 17.3906 22.1875 11.75
Q26.2656 6.10938 33.4062 6.10938
Q40.5312 6.10938 44.6094 11.75
Q48.6875 17.3906 48.6875 27.2969" id="BitstreamVeraSans-Roman-70"/>
     </defs>
     <g transform="translate(16.318125 404.7290625)rotate(-90.0)scale(0.12 -0.12)">
      <use xlink:href="#BitstreamVeraSans-Roman-46"/>
      <use x="53.89453125" xlink:href="#BitstreamVeraSans-Roman-6f"/>
      <use x="115.076171875" xlink:href="#BitstreamVeraSans-Roman-74"/>
      <use x="154.28515625" xlink:href="#BitstreamVeraSans-Roman-6f"/>
      <use x="215.466796875" xlink:href="#BitstreamVeraSans-Roman-73"/>
      <use x="267.56640625" xlink:href="#BitstreamVeraSans-Roman-20"/>
      <use x="299.353515625" xlink:href="#BitstreamVeraSans-Roman-70"/>
      <use x="362.830078125" xlink:href="#BitstreamVeraSans-Roman-72"/>
      <use x="401.693359375" xlink:href="#BitstreamVeraSans-Roman-6f"/>
      <use x="462.875" xlink:href="#BitstreamVeraSans-Roman-20"/>
      <use x="494.662109375" xlink:href="#BitstreamVeraSans-Roman-54"/>
      <use x="539.24609375" xlink:href="#BitstreamVeraSans-Roman-61"/>
      <use x="600.525390625" xlink:href="#BitstreamVeraSans-Roman-67"/>
      <use x="664.001953125" xlink:href="#BitstreamVeraSans-Roman-20"/>
      <use x="695.7890625" xlink:href="#BitstreamVeraSans-Roman-69"/>
      <use x="723.572265625" xlink:href="#BitstreamVeraSans-Roman-6e"/>
      <use x="786.951171875" xlink:href="#BitstreamVeraSans-Roman-20"/>
      <use x="818.73828125" xlink:href="#BitstreamVeraSans-Roman-50"/>
      <use x="877.291015625" xlink:href="#BitstreamVeraSans-Roman-72"/>
      <use x="916.154296875" xlink:href="#BitstreamVeraSans-Roman-6f"/>
      <use x="977.3359375" xlink:href="#BitstreamVeraSans-Roman-7a"/>
      <use x="1029.82617188" xlink:href="#BitstreamVeraSans-Roman-65"/>
      <use x="1091.34960938" xlink:href="#BitstreamVeraSans-Roman-6e"/>
      <use x="1154.72851562" xlink:href="#BitstreamVeraSans-Roman-74"/>
      <use x="1193.9375" xlink:href="#BitstreamVeraSans-Roman-20"/>
      <use x="1225.72460938" xlink:href="#BitstreamVeraSans-Roman-76"/>
      <use x="1284.90429688" xlink:href="#BitstreamVeraSans-Roman-6f"/>
      <use x="1346.0859375" xlink:href="#BitstreamVeraSans-Roman-6d"/>
      <use x="1443.49804688" xlink:href="#BitstreamVeraSans-Roman-20"/>
      <use x="1475.28515625" xlink:href="#BitstreamVeraSans-Roman-6a"/>
      <use x="1503.06835938" xlink:href="#BitstreamVeraSans-Roman-65"/>
      <use x="1564.59179688" xlink:href="#BitstreamVeraSans-Roman-77"/>
      <use x="1646.37890625" xlink:href="#BitstreamVeraSans-Roman-65"/>
      <use x="1707.90234375" xlink:href="#BitstreamVeraSans-Roman-69"/>
      <use x="1735.68554688" xlink:href="#BitstreamVeraSans-Roman-6c"/>
      <use x="1763.46875" xlink:href="#BitstreamVeraSans-Roman-69"/>
      <use x="1791.25195312" xlink:href="#BitstreamVeraSans-Roman-67"/>
      <use x="1854.72851562" xlink:href="#BitstreamVeraSans-Roman-65"/>
      <use x="1916.25195312" xlink:href="#BitstreamVeraSans-Roman-6e"/>
      <use x="1979.63085938" xlink:href="#BitstreamVeraSans-Roman-20"/>
      <use x="2011.41796875" xlink:href="#BitstreamVeraSans-Roman-53"/>
      <use x="2074.89453125" xlink:href="#BitstreamVeraSans-Roman-6f"/>
      <use x="2136.07617188" xlink:href="#BitstreamVeraSans-Roman-6d"/>
      <use x="2233.48828125" xlink:href="#BitstreamVeraSans-Roman-6d"/>
      <use x="2330.90039062" xlink:href="#BitstreamVeraSans-Roman-65"/>
      <use x="2392.42382812" xlink:href="#BitstreamVeraSans-Roman-72"/>
      <use x="2433.53710938" xlink:href="#BitstreamVeraSans-Roman-6c"/>
      <use x="2461.3203125" xlink:href="#BitstreamVeraSans-Roman-61"/>
      <use x="2522.59960938" xlink:href="#BitstreamVeraSans-Roman-67"/>
      <use x="2586.07617188" xlink:href="#BitstreamVeraSans-Roman-65"/>
      <use x="2647.59960938" xlink:href="#BitstreamVeraSans-Roman-72"/>
     </g>
    </g>
   </g>
   <g id="legend_1">
    <g id="patch_59">
     <path d="
M728.783 87.9364
L815.408 87.9364
L815.408 20.2069
L728.783 20.2069
z
" style="fill:#f8f8f8;"/>
    </g>
    <g id="patch_60">
     <path d="
M734.543 36.9086
L763.342 36.9086
L763.342 26.8286
L734.543 26.8286
z
" style="fill:#66c2a5;stroke:#ffffff;stroke-linejoin:miter;"/>
    </g>
    <g id="text_27">
     <!-- 2014 -->
     <g style="fill:#262626;" transform="translate(774.8625 36.908625)scale(0.144 -0.144)">
      <use xlink:href="#BitstreamVeraSans-Roman-32"/>
      <use x="63.623046875" xlink:href="#BitstreamVeraSans-Roman-30"/>
      <use x="127.24609375" xlink:href="#BitstreamVeraSans-Roman-31"/>
      <use x="190.869140625" xlink:href="#BitstreamVeraSans-Roman-34"/>
     </g>
    </g>
    <g id="patch_61">
     <path d="
M734.543 58.0451
L763.342 58.0451
L763.342 47.9651
L734.543 47.9651
z
" style="fill:#fc8d62;stroke:#ffffff;stroke-linejoin:miter;"/>
    </g>
    <g id="text_28">
     <!-- 2012 -->
     <g style="fill:#262626;" transform="translate(774.8625 58.045125)scale(0.144 -0.144)">
      <use xlink:href="#BitstreamVeraSans-Roman-32"/>
      <use x="63.623046875" xlink:href="#BitstreamVeraSans-Roman-30"/>
      <use x="127.24609375" xlink:href="#BitstreamVeraSans-Roman-31"/>
      <use x="190.869140625" xlink:href="#BitstreamVeraSans-Roman-32"/>
     </g>
    </g>
    <g id="patch_62">
     <path d="
M734.543 79.1816
L763.342 79.1816
L763.342 69.1016
L734.543 69.1016
z
" style="fill:#8da0cb;stroke:#ffffff;stroke-linejoin:miter;"/>
    </g>
    <g id="text_29">
     <!-- 2010 -->
     <g style="fill:#262626;" transform="translate(774.8625 79.181625)scale(0.144 -0.144)">
      <use xlink:href="#BitstreamVeraSans-Roman-32"/>
      <use x="63.623046875" xlink:href="#BitstreamVeraSans-Roman-30"/>
      <use x="127.24609375" xlink:href="#BitstreamVeraSans-Roman-31"/>
      <use x="190.869140625" xlink:href="#BitstreamVeraSans-Roman-30"/>
     </g>
    </g>
   </g>
  </g>
 </g>
 <defs>
  <clipPath id="p9c58825132">
   <rect height="460.8" width="781.2" x="41.4075" y="13.006875"/>
  </clipPath>
 </defs>
</svg>
