<?xml version="1.0" encoding="utf-8" standalone="no"?>
<!DOCTYPE svg PUBLIC "-//W3C//DTD SVG 1.1//EN"
  "http://www.w3.org/Graphics/SVG/1.1/DTD/svg11.dtd">
<!-- Created with matplotlib (http://matplotlib.org/) -->
<svg height="339pt" version="1.1" viewBox="0 0 619 339" width="619pt" xmlns="http://www.w3.org/2000/svg" xmlns:xlink="http://www.w3.org/1999/xlink">
 <defs>
  <style type="text/css">
*{stroke-linecap:butt;stroke-linejoin:round;stroke-miterlimit:100000;}
  </style>
 </defs>
 <g id="figure_1">
  <g id="patch_1">
   <path d="M 0 339.754687 
L 619.466562 339.754687 
L 619.466562 0 
L 0 0 
z
" style="fill:#ffffff;"/>
  </g>
  <g id="axes_1">
   <g id="patch_2">
    <path d="M 51.766563 290.772656 
L 609.766562 290.772656 
L 609.766562 11.772656 
L 51.766563 11.772656 
z
" style="fill:#eaeaf2;"/>
   </g>
   <g id="matplotlib.axis_1">
    <g id="xtick_1">
     <g id="line2d_1">
      <path clip-path="url(#p36595aedb3)" d="M 51.766563 290.772656 
L 51.766563 11.772656 
" style="fill:none;stroke:#ffffff;stroke-linecap:round;"/>
     </g>
     <g id="line2d_2">
      <defs>
       <path d="M 0 0 
L 0 0 
" id="maed7a8f310" style="stroke:#262626;"/>
      </defs>
      <g>
       <use style="fill:#262626;stroke:#262626;" x="51.7665625" xlink:href="#maed7a8f310" y="290.77265625"/>
      </g>
     </g>
     <g id="line2d_3">
      <g>
       <use style="fill:#262626;stroke:#262626;" x="51.7665625" xlink:href="#maed7a8f310" y="11.77265625"/>
      </g>
     </g>
    </g>
    <g id="xtick_2">
     <g id="line2d_4">
      <path clip-path="url(#p36595aedb3)" d="M 118.726562 290.772656 
L 118.726562 11.772656 
" style="fill:none;stroke:#ffffff;stroke-linecap:round;"/>
     </g>
     <g id="line2d_5">
      <g>
       <use style="fill:#262626;stroke:#262626;" x="118.7265625" xlink:href="#maed7a8f310" y="290.77265625"/>
      </g>
     </g>
     <g id="line2d_6">
      <g>
       <use style="fill:#262626;stroke:#262626;" x="118.7265625" xlink:href="#maed7a8f310" y="11.77265625"/>
      </g>
     </g>
     <g id="text_1">
      <!-- Jan -->
      <defs>
       <path d="M 2.875 20.3125 
L 11.421875 21.484375 
Q 11.765625 13.28125 14.5 10.25 
Q 17.234375 7.234375 22.078125 7.234375 
Q 25.640625 7.234375 28.21875 8.859375 
Q 30.8125 10.5 31.78125 13.296875 
Q 32.765625 16.109375 32.765625 22.265625 
L 32.765625 71.578125 
L 42.234375 71.578125 
L 42.234375 22.796875 
Q 42.234375 13.8125 40.0625 8.875 
Q 37.890625 3.953125 33.171875 1.359375 
Q 28.46875 -1.21875 22.125 -1.21875 
Q 12.703125 -1.21875 7.6875 4.203125 
Q 2.6875 9.625 2.875 20.3125 
" id="ArialMT-4a"/>
       <path d="M 40.4375 6.390625 
Q 35.546875 2.25 31.03125 0.53125 
Q 26.515625 -1.171875 21.34375 -1.171875 
Q 12.796875 -1.171875 8.203125 3 
Q 3.609375 7.171875 3.609375 13.671875 
Q 3.609375 17.484375 5.34375 20.625 
Q 7.078125 23.78125 9.890625 25.6875 
Q 12.703125 27.59375 16.21875 28.5625 
Q 18.796875 29.25 24.03125 29.890625 
Q 34.671875 31.15625 39.703125 32.90625 
Q 39.75 34.71875 39.75 35.203125 
Q 39.75 40.578125 37.25 42.78125 
Q 33.890625 45.75 27.25 45.75 
Q 21.046875 45.75 18.09375 43.578125 
Q 15.140625 41.40625 13.71875 35.890625 
L 5.125 37.0625 
Q 6.296875 42.578125 8.984375 45.96875 
Q 11.671875 49.359375 16.75 51.1875 
Q 21.828125 53.03125 28.515625 53.03125 
Q 35.15625 53.03125 39.296875 51.46875 
Q 43.453125 49.90625 45.40625 47.53125 
Q 47.359375 45.171875 48.140625 41.546875 
Q 48.578125 39.3125 48.578125 33.453125 
L 48.578125 21.734375 
Q 48.578125 9.46875 49.140625 6.21875 
Q 49.703125 2.984375 51.375 0 
L 42.1875 0 
Q 40.828125 2.734375 40.4375 6.390625 
M 39.703125 26.03125 
Q 34.90625 24.078125 25.34375 22.703125 
Q 19.921875 21.921875 17.671875 20.9375 
Q 15.4375 19.96875 14.203125 18.09375 
Q 12.984375 16.21875 12.984375 13.921875 
Q 12.984375 10.40625 15.640625 8.0625 
Q 18.3125 5.71875 23.4375 5.71875 
Q 28.515625 5.71875 32.46875 7.9375 
Q 36.421875 10.15625 38.28125 14.015625 
Q 39.703125 17 39.703125 22.796875 
z
" id="ArialMT-61"/>
       <path d="M 6.59375 0 
L 6.59375 51.859375 
L 14.5 51.859375 
L 14.5 44.484375 
Q 20.21875 53.03125 31 53.03125 
Q 35.6875 53.03125 39.625 51.34375 
Q 43.5625 49.65625 45.515625 46.921875 
Q 47.46875 44.1875 48.25 40.4375 
Q 48.734375 37.984375 48.734375 31.890625 
L 48.734375 0 
L 39.9375 0 
L 39.9375 31.546875 
Q 39.9375 36.921875 38.90625 39.578125 
Q 37.890625 42.234375 35.28125 43.8125 
Q 32.671875 45.40625 29.15625 45.40625 
Q 23.53125 45.40625 19.453125 41.84375 
Q 15.375 38.28125 15.375 28.328125 
L 15.375 0 
z
" id="ArialMT-6e"/>
      </defs>
      <g style="fill:#262626;" transform="translate(110.665625 304.93046875)scale(0.1 -0.1)">
       <use xlink:href="#ArialMT-4a"/>
       <use x="50.0" xlink:href="#ArialMT-61"/>
       <use x="105.615234375" xlink:href="#ArialMT-6e"/>
      </g>
      <!-- 2015 -->
      <defs>
       <path d="M 4.15625 35.296875 
Q 4.15625 48 6.765625 55.734375 
Q 9.375 63.484375 14.515625 67.671875 
Q 19.671875 71.875 27.484375 71.875 
Q 33.25 71.875 37.59375 69.546875 
Q 41.9375 67.234375 44.765625 62.859375 
Q 47.609375 58.5 49.21875 52.21875 
Q 50.828125 45.953125 50.828125 35.296875 
Q 50.828125 22.703125 48.234375 14.96875 
Q 45.65625 7.234375 40.5 3 
Q 35.359375 -1.21875 27.484375 -1.21875 
Q 17.140625 -1.21875 11.234375 6.203125 
Q 4.15625 15.140625 4.15625 35.296875 
M 13.1875 35.296875 
Q 13.1875 17.671875 17.3125 11.828125 
Q 21.4375 6 27.484375 6 
Q 33.546875 6 37.671875 11.859375 
Q 41.796875 17.71875 41.796875 35.296875 
Q 41.796875 52.984375 37.671875 58.78125 
Q 33.546875 64.59375 27.390625 64.59375 
Q 21.34375 64.59375 17.71875 59.46875 
Q 13.1875 52.9375 13.1875 35.296875 
" id="ArialMT-30"/>
       <path d="M 37.25 0 
L 28.46875 0 
L 28.46875 56 
Q 25.296875 52.984375 20.140625 49.953125 
Q 14.984375 46.921875 10.890625 45.40625 
L 10.890625 53.90625 
Q 18.265625 57.375 23.78125 62.296875 
Q 29.296875 67.234375 31.59375 71.875 
L 37.25 71.875 
z
" id="ArialMT-31"/>
       <path d="M 50.34375 8.453125 
L 50.34375 0 
L 3.03125 0 
Q 2.9375 3.171875 4.046875 6.109375 
Q 5.859375 10.9375 9.828125 15.625 
Q 13.8125 20.3125 21.34375 26.46875 
Q 33.015625 36.03125 37.109375 41.625 
Q 41.21875 47.21875 41.21875 52.203125 
Q 41.21875 57.421875 37.46875 61 
Q 33.734375 64.59375 27.734375 64.59375 
Q 21.390625 64.59375 17.578125 60.78125 
Q 13.765625 56.984375 13.71875 50.25 
L 4.6875 51.171875 
Q 5.609375 61.28125 11.65625 66.578125 
Q 17.71875 71.875 27.9375 71.875 
Q 38.234375 71.875 44.234375 66.15625 
Q 50.25 60.453125 50.25 52 
Q 50.25 47.703125 48.484375 43.546875 
Q 46.734375 39.40625 42.65625 34.8125 
Q 38.578125 30.21875 29.109375 22.21875 
Q 21.1875 15.578125 18.9375 13.203125 
Q 16.703125 10.84375 15.234375 8.453125 
z
" id="ArialMT-32"/>
       <path d="M 4.15625 18.75 
L 13.375 19.53125 
Q 14.40625 12.796875 18.140625 9.390625 
Q 21.875 6 27.15625 6 
Q 33.5 6 37.890625 10.78125 
Q 42.28125 15.578125 42.28125 23.484375 
Q 42.28125 31 38.0625 35.34375 
Q 33.84375 39.703125 27 39.703125 
Q 22.75 39.703125 19.328125 37.765625 
Q 15.921875 35.84375 13.96875 32.765625 
L 5.71875 33.84375 
L 12.640625 70.609375 
L 48.25 70.609375 
L 48.25 62.203125 
L 19.671875 62.203125 
L 15.828125 42.96875 
Q 22.265625 47.46875 29.34375 47.46875 
Q 38.71875 47.46875 45.15625 40.96875 
Q 51.609375 34.46875 51.609375 24.265625 
Q 51.609375 14.546875 45.953125 7.46875 
Q 39.0625 -1.21875 27.15625 -1.21875 
Q 17.390625 -1.21875 11.203125 4.25 
Q 5.03125 9.71875 4.15625 18.75 
" id="ArialMT-35"/>
      </defs>
      <g style="fill:#262626;" transform="translate(107.6046875 315.50734375)scale(0.1 -0.1)">
       <use xlink:href="#ArialMT-32"/>
       <use x="55.615234375" xlink:href="#ArialMT-30"/>
       <use x="111.23046875" xlink:href="#ArialMT-31"/>
       <use x="166.845703125" xlink:href="#ArialMT-35"/>
      </g>
     </g>
    </g>
    <g id="xtick_3">
     <g id="line2d_7">
      <path clip-path="url(#p36595aedb3)" d="M 215.446563 290.772656 
L 215.446563 11.772656 
" style="fill:none;stroke:#ffffff;stroke-linecap:round;"/>
     </g>
     <g id="line2d_8">
      <g>
       <use style="fill:#262626;stroke:#262626;" x="215.4465625" xlink:href="#maed7a8f310" y="290.77265625"/>
      </g>
     </g>
     <g id="line2d_9">
      <g>
       <use style="fill:#262626;stroke:#262626;" x="215.4465625" xlink:href="#maed7a8f310" y="11.77265625"/>
      </g>
     </g>
     <g id="text_2">
      <!-- Apr -->
      <defs>
       <path d="M 6.5 0 
L 6.5 51.859375 
L 14.40625 51.859375 
L 14.40625 44 
Q 17.4375 49.515625 20 51.265625 
Q 22.5625 53.03125 25.640625 53.03125 
Q 30.078125 53.03125 34.671875 50.203125 
L 31.640625 42.046875 
Q 28.421875 43.953125 25.203125 43.953125 
Q 22.3125 43.953125 20.015625 42.21875 
Q 17.71875 40.484375 16.75 37.40625 
Q 15.28125 32.71875 15.28125 27.15625 
L 15.28125 0 
z
" id="ArialMT-72"/>
       <path d="M 6.59375 -19.875 
L 6.59375 51.859375 
L 14.59375 51.859375 
L 14.59375 45.125 
Q 17.4375 49.078125 21 51.046875 
Q 24.5625 53.03125 29.640625 53.03125 
Q 36.28125 53.03125 41.359375 49.609375 
Q 46.4375 46.1875 49.015625 39.953125 
Q 51.609375 33.734375 51.609375 26.3125 
Q 51.609375 18.359375 48.75 11.984375 
Q 45.90625 5.609375 40.453125 2.21875 
Q 35.015625 -1.171875 29 -1.171875 
Q 24.609375 -1.171875 21.109375 0.6875 
Q 17.625 2.546875 15.375 5.375 
L 15.375 -19.875 
z
M 14.546875 25.640625 
Q 14.546875 15.625 18.59375 10.84375 
Q 22.65625 6.0625 28.421875 6.0625 
Q 34.28125 6.0625 38.453125 11.015625 
Q 42.625 15.96875 42.625 26.375 
Q 42.625 36.28125 38.546875 41.203125 
Q 34.46875 46.140625 28.8125 46.140625 
Q 23.1875 46.140625 18.859375 40.890625 
Q 14.546875 35.640625 14.546875 25.640625 
" id="ArialMT-70"/>
       <path d="M -0.140625 0 
L 27.34375 71.578125 
L 37.546875 71.578125 
L 66.84375 0 
L 56.0625 0 
L 47.703125 21.6875 
L 17.78125 21.6875 
L 9.90625 0 
z
M 20.515625 29.390625 
L 44.78125 29.390625 
L 37.3125 49.21875 
Q 33.890625 58.25 32.234375 64.0625 
Q 30.859375 57.171875 28.375 50.390625 
z
" id="ArialMT-41"/>
      </defs>
      <g style="fill:#262626;" transform="translate(207.66609375 304.93046875)scale(0.1 -0.1)">
       <use xlink:href="#ArialMT-41"/>
       <use x="66.69921875" xlink:href="#ArialMT-70"/>
       <use x="122.314453125" xlink:href="#ArialMT-72"/>
      </g>
     </g>
    </g>
    <g id="xtick_4">
     <g id="line2d_10">
      <path clip-path="url(#p36595aedb3)" d="M 312.166562 290.772656 
L 312.166562 11.772656 
" style="fill:none;stroke:#ffffff;stroke-linecap:round;"/>
     </g>
     <g id="line2d_11">
      <g>
       <use style="fill:#262626;stroke:#262626;" x="312.1665625" xlink:href="#maed7a8f310" y="290.77265625"/>
      </g>
     </g>
     <g id="line2d_12">
      <g>
       <use style="fill:#262626;stroke:#262626;" x="312.1665625" xlink:href="#maed7a8f310" y="11.77265625"/>
      </g>
     </g>
     <g id="text_3">
      <!-- Jul -->
      <defs>
       <path d="M 40.578125 0 
L 40.578125 7.625 
Q 34.515625 -1.171875 24.125 -1.171875 
Q 19.53125 -1.171875 15.546875 0.578125 
Q 11.578125 2.34375 9.640625 5 
Q 7.71875 7.671875 6.9375 11.53125 
Q 6.390625 14.109375 6.390625 19.734375 
L 6.390625 51.859375 
L 15.1875 51.859375 
L 15.1875 23.09375 
Q 15.1875 16.21875 15.71875 13.8125 
Q 16.546875 10.359375 19.234375 8.375 
Q 21.921875 6.390625 25.875 6.390625 
Q 29.828125 6.390625 33.296875 8.421875 
Q 36.765625 10.453125 38.203125 13.9375 
Q 39.65625 17.4375 39.65625 24.078125 
L 39.65625 51.859375 
L 48.4375 51.859375 
L 48.4375 0 
z
" id="ArialMT-75"/>
       <path d="M 6.390625 0 
L 6.390625 71.578125 
L 15.1875 71.578125 
L 15.1875 0 
z
" id="ArialMT-6c"/>
      </defs>
      <g style="fill:#262626;" transform="translate(305.77515625 304.93046875)scale(0.1 -0.1)">
       <use xlink:href="#ArialMT-4a"/>
       <use x="50.0" xlink:href="#ArialMT-75"/>
       <use x="105.615234375" xlink:href="#ArialMT-6c"/>
      </g>
     </g>
    </g>
    <g id="xtick_5">
     <g id="line2d_13">
      <path clip-path="url(#p36595aedb3)" d="M 408.886562 290.772656 
L 408.886562 11.772656 
" style="fill:none;stroke:#ffffff;stroke-linecap:round;"/>
     </g>
     <g id="line2d_14">
      <g>
       <use style="fill:#262626;stroke:#262626;" x="408.8865625" xlink:href="#maed7a8f310" y="290.77265625"/>
      </g>
     </g>
     <g id="line2d_15">
      <g>
       <use style="fill:#262626;stroke:#262626;" x="408.8865625" xlink:href="#maed7a8f310" y="11.77265625"/>
      </g>
     </g>
     <g id="text_4">
      <!-- Oct -->
      <defs>
       <path d="M 40.4375 19 
L 49.078125 17.875 
Q 47.65625 8.9375 41.8125 3.875 
Q 35.984375 -1.171875 27.484375 -1.171875 
Q 16.84375 -1.171875 10.375 5.78125 
Q 3.90625 12.75 3.90625 25.734375 
Q 3.90625 34.125 6.6875 40.421875 
Q 9.46875 46.734375 15.15625 49.875 
Q 20.84375 53.03125 27.546875 53.03125 
Q 35.984375 53.03125 41.359375 48.75 
Q 46.734375 44.484375 48.25 36.625 
L 39.703125 35.296875 
Q 38.484375 40.53125 35.375 43.15625 
Q 32.28125 45.796875 27.875 45.796875 
Q 21.234375 45.796875 17.078125 41.03125 
Q 12.9375 36.28125 12.9375 25.984375 
Q 12.9375 15.53125 16.9375 10.796875 
Q 20.953125 6.0625 27.390625 6.0625 
Q 32.5625 6.0625 36.03125 9.234375 
Q 39.5 12.40625 40.4375 19 
" id="ArialMT-63"/>
       <path d="M 4.828125 34.859375 
Q 4.828125 52.6875 14.390625 62.765625 
Q 23.96875 72.859375 39.109375 72.859375 
Q 49.03125 72.859375 56.984375 68.109375 
Q 64.9375 63.375 69.109375 54.90625 
Q 73.296875 46.4375 73.296875 35.6875 
Q 73.296875 24.8125 68.890625 16.21875 
Q 64.5 7.625 56.4375 3.203125 
Q 48.390625 -1.21875 39.0625 -1.21875 
Q 28.953125 -1.21875 20.984375 3.65625 
Q 13.03125 8.546875 8.921875 16.984375 
Q 4.828125 25.4375 4.828125 34.859375 
M 14.59375 34.71875 
Q 14.59375 21.78125 21.546875 14.328125 
Q 28.515625 6.890625 39.015625 6.890625 
Q 49.703125 6.890625 56.609375 14.40625 
Q 63.53125 21.921875 63.53125 35.75 
Q 63.53125 44.484375 60.578125 51 
Q 57.625 57.515625 51.921875 61.109375 
Q 46.234375 64.703125 39.15625 64.703125 
Q 29.109375 64.703125 21.84375 57.78125 
Q 14.59375 50.875 14.59375 34.71875 
" id="ArialMT-4f"/>
       <path d="M 25.78125 7.859375 
L 27.046875 0.09375 
Q 23.34375 -0.6875 20.40625 -0.6875 
Q 15.625 -0.6875 12.984375 0.828125 
Q 10.359375 2.34375 9.28125 4.8125 
Q 8.203125 7.28125 8.203125 15.1875 
L 8.203125 45.015625 
L 1.765625 45.015625 
L 1.765625 51.859375 
L 8.203125 51.859375 
L 8.203125 64.703125 
L 16.9375 69.96875 
L 16.9375 51.859375 
L 25.78125 51.859375 
L 25.78125 45.015625 
L 16.9375 45.015625 
L 16.9375 14.703125 
Q 16.9375 10.9375 17.40625 9.859375 
Q 17.875 8.796875 18.921875 8.15625 
Q 19.96875 7.515625 21.921875 7.515625 
Q 23.390625 7.515625 25.78125 7.859375 
" id="ArialMT-74"/>
      </defs>
      <g style="fill:#262626;" transform="translate(401.1084375 304.93046875)scale(0.1 -0.1)">
       <use xlink:href="#ArialMT-4f"/>
       <use x="77.783203125" xlink:href="#ArialMT-63"/>
       <use x="127.783203125" xlink:href="#ArialMT-74"/>
      </g>
     </g>
    </g>
    <g id="xtick_6">
     <g id="line2d_16">
      <path clip-path="url(#p36595aedb3)" d="M 505.606563 290.772656 
L 505.606563 11.772656 
" style="fill:none;stroke:#ffffff;stroke-linecap:round;"/>
     </g>
     <g id="line2d_17">
      <g>
       <use style="fill:#262626;stroke:#262626;" x="505.6065625" xlink:href="#maed7a8f310" y="290.77265625"/>
      </g>
     </g>
     <g id="line2d_18">
      <g>
       <use style="fill:#262626;stroke:#262626;" x="505.6065625" xlink:href="#maed7a8f310" y="11.77265625"/>
      </g>
     </g>
     <g id="text_5">
      <!-- Jan -->
      <g style="fill:#262626;" transform="translate(497.545625 304.93046875)scale(0.1 -0.1)">
       <use xlink:href="#ArialMT-4a"/>
       <use x="50.0" xlink:href="#ArialMT-61"/>
       <use x="105.615234375" xlink:href="#ArialMT-6e"/>
      </g>
      <!-- 2016 -->
      <defs>
       <path d="M 49.75 54.046875 
L 41.015625 53.375 
Q 39.84375 58.546875 37.703125 60.890625 
Q 34.125 64.65625 28.90625 64.65625 
Q 24.703125 64.65625 21.53125 62.3125 
Q 17.390625 59.28125 14.984375 53.46875 
Q 12.59375 47.65625 12.5 36.921875 
Q 15.671875 41.75 20.265625 44.09375 
Q 24.859375 46.4375 29.890625 46.4375 
Q 38.671875 46.4375 44.84375 39.96875 
Q 51.03125 33.5 51.03125 23.25 
Q 51.03125 16.5 48.125 10.71875 
Q 45.21875 4.9375 40.140625 1.859375 
Q 35.0625 -1.21875 28.609375 -1.21875 
Q 17.625 -1.21875 10.6875 6.859375 
Q 3.765625 14.9375 3.765625 33.5 
Q 3.765625 54.25 11.421875 63.671875 
Q 18.109375 71.875 29.4375 71.875 
Q 37.890625 71.875 43.28125 67.140625 
Q 48.6875 62.40625 49.75 54.046875 
M 13.875 23.1875 
Q 13.875 18.65625 15.796875 14.5 
Q 17.71875 10.359375 21.1875 8.171875 
Q 24.65625 6 28.46875 6 
Q 34.03125 6 38.03125 10.484375 
Q 42.046875 14.984375 42.046875 22.703125 
Q 42.046875 30.125 38.078125 34.390625 
Q 34.125 38.671875 28.125 38.671875 
Q 22.171875 38.671875 18.015625 34.390625 
Q 13.875 30.125 13.875 23.1875 
" id="ArialMT-36"/>
      </defs>
      <g style="fill:#262626;" transform="translate(494.4846875 315.50734375)scale(0.1 -0.1)">
       <use xlink:href="#ArialMT-32"/>
       <use x="55.615234375" xlink:href="#ArialMT-30"/>
       <use x="111.23046875" xlink:href="#ArialMT-31"/>
       <use x="166.845703125" xlink:href="#ArialMT-36"/>
      </g>
     </g>
    </g>
    <g id="xtick_7">
     <g id="line2d_19">
      <path clip-path="url(#p36595aedb3)" d="M 602.326562 290.772656 
L 602.326562 11.772656 
" style="fill:none;stroke:#ffffff;stroke-linecap:round;"/>
     </g>
     <g id="line2d_20">
      <g>
       <use style="fill:#262626;stroke:#262626;" x="602.3265625" xlink:href="#maed7a8f310" y="290.77265625"/>
      </g>
     </g>
     <g id="line2d_21">
      <g>
       <use style="fill:#262626;stroke:#262626;" x="602.3265625" xlink:href="#maed7a8f310" y="11.77265625"/>
      </g>
     </g>
     <g id="text_6">
      <!-- Apr -->
      <g style="fill:#262626;" transform="translate(594.54609375 304.93046875)scale(0.1 -0.1)">
       <use xlink:href="#ArialMT-41"/>
       <use x="66.69921875" xlink:href="#ArialMT-70"/>
       <use x="122.314453125" xlink:href="#ArialMT-72"/>
      </g>
     </g>
    </g>
    <g id="xtick_8">
     <g id="line2d_22">
      <path clip-path="url(#p36595aedb3)" d="M 609.766563 290.772656 
L 609.766563 11.772656 
" style="fill:none;stroke:#ffffff;stroke-linecap:round;"/>
     </g>
     <g id="line2d_23">
      <g>
       <use style="fill:#262626;stroke:#262626;" x="609.7665625" xlink:href="#maed7a8f310" y="290.77265625"/>
      </g>
     </g>
     <g id="line2d_24">
      <g>
       <use style="fill:#262626;stroke:#262626;" x="609.7665625" xlink:href="#maed7a8f310" y="11.77265625"/>
      </g>
     </g>
    </g>
    <g id="xtick_9">
     <g id="line2d_25">
      <defs>
       <path d="M 0 0 
L 0 0 
" id="mfe26b32bb8" style="stroke:#262626;stroke-width:0.5;"/>
      </defs>
      <g>
       <use style="fill:#262626;stroke:#262626;stroke-width:0.5;" x="51.7665625" xlink:href="#mfe26b32bb8" y="290.77265625"/>
      </g>
     </g>
     <g id="line2d_26">
      <g>
       <use style="fill:#262626;stroke:#262626;stroke-width:0.5;" x="51.7665625" xlink:href="#mfe26b32bb8" y="11.77265625"/>
      </g>
     </g>
    </g>
    <g id="xtick_10">
     <g id="line2d_27">
      <g>
       <use style="fill:#262626;stroke:#262626;stroke-width:0.5;" x="88.9665625" xlink:href="#mfe26b32bb8" y="290.77265625"/>
      </g>
     </g>
     <g id="line2d_28">
      <g>
       <use style="fill:#262626;stroke:#262626;stroke-width:0.5;" x="88.9665625" xlink:href="#mfe26b32bb8" y="11.77265625"/>
      </g>
     </g>
    </g>
    <g id="xtick_11">
     <g id="line2d_29">
      <g>
       <use style="fill:#262626;stroke:#262626;stroke-width:0.5;" x="118.7265625" xlink:href="#mfe26b32bb8" y="290.77265625"/>
      </g>
     </g>
     <g id="line2d_30">
      <g>
       <use style="fill:#262626;stroke:#262626;stroke-width:0.5;" x="118.7265625" xlink:href="#mfe26b32bb8" y="11.77265625"/>
      </g>
     </g>
    </g>
    <g id="xtick_12">
     <g id="line2d_31">
      <g>
       <use style="fill:#262626;stroke:#262626;stroke-width:0.5;" x="148.4865625" xlink:href="#mfe26b32bb8" y="290.77265625"/>
      </g>
     </g>
     <g id="line2d_32">
      <g>
       <use style="fill:#262626;stroke:#262626;stroke-width:0.5;" x="148.4865625" xlink:href="#mfe26b32bb8" y="11.77265625"/>
      </g>
     </g>
    </g>
    <g id="xtick_13">
     <g id="line2d_33">
      <g>
       <use style="fill:#262626;stroke:#262626;stroke-width:0.5;" x="178.2465625" xlink:href="#mfe26b32bb8" y="290.77265625"/>
      </g>
     </g>
     <g id="line2d_34">
      <g>
       <use style="fill:#262626;stroke:#262626;stroke-width:0.5;" x="178.2465625" xlink:href="#mfe26b32bb8" y="11.77265625"/>
      </g>
     </g>
    </g>
    <g id="xtick_14">
     <g id="line2d_35">
      <g>
       <use style="fill:#262626;stroke:#262626;stroke-width:0.5;" x="215.4465625" xlink:href="#mfe26b32bb8" y="290.77265625"/>
      </g>
     </g>
     <g id="line2d_36">
      <g>
       <use style="fill:#262626;stroke:#262626;stroke-width:0.5;" x="215.4465625" xlink:href="#mfe26b32bb8" y="11.77265625"/>
      </g>
     </g>
    </g>
    <g id="xtick_15">
     <g id="line2d_37">
      <g>
       <use style="fill:#262626;stroke:#262626;stroke-width:0.5;" x="245.2065625" xlink:href="#mfe26b32bb8" y="290.77265625"/>
      </g>
     </g>
     <g id="line2d_38">
      <g>
       <use style="fill:#262626;stroke:#262626;stroke-width:0.5;" x="245.2065625" xlink:href="#mfe26b32bb8" y="11.77265625"/>
      </g>
     </g>
    </g>
    <g id="xtick_16">
     <g id="line2d_39">
      <g>
       <use style="fill:#262626;stroke:#262626;stroke-width:0.5;" x="282.4065625" xlink:href="#mfe26b32bb8" y="290.77265625"/>
      </g>
     </g>
     <g id="line2d_40">
      <g>
       <use style="fill:#262626;stroke:#262626;stroke-width:0.5;" x="282.4065625" xlink:href="#mfe26b32bb8" y="11.77265625"/>
      </g>
     </g>
    </g>
    <g id="xtick_17">
     <g id="line2d_41">
      <g>
       <use style="fill:#262626;stroke:#262626;stroke-width:0.5;" x="312.1665625" xlink:href="#mfe26b32bb8" y="290.77265625"/>
      </g>
     </g>
     <g id="line2d_42">
      <g>
       <use style="fill:#262626;stroke:#262626;stroke-width:0.5;" x="312.1665625" xlink:href="#mfe26b32bb8" y="11.77265625"/>
      </g>
     </g>
    </g>
    <g id="xtick_18">
     <g id="line2d_43">
      <g>
       <use style="fill:#262626;stroke:#262626;stroke-width:0.5;" x="341.9265625" xlink:href="#mfe26b32bb8" y="290.77265625"/>
      </g>
     </g>
     <g id="line2d_44">
      <g>
       <use style="fill:#262626;stroke:#262626;stroke-width:0.5;" x="341.9265625" xlink:href="#mfe26b32bb8" y="11.77265625"/>
      </g>
     </g>
    </g>
    <g id="xtick_19">
     <g id="line2d_45">
      <g>
       <use style="fill:#262626;stroke:#262626;stroke-width:0.5;" x="379.1265625" xlink:href="#mfe26b32bb8" y="290.77265625"/>
      </g>
     </g>
     <g id="line2d_46">
      <g>
       <use style="fill:#262626;stroke:#262626;stroke-width:0.5;" x="379.1265625" xlink:href="#mfe26b32bb8" y="11.77265625"/>
      </g>
     </g>
    </g>
    <g id="xtick_20">
     <g id="line2d_47">
      <g>
       <use style="fill:#262626;stroke:#262626;stroke-width:0.5;" x="408.8865625" xlink:href="#mfe26b32bb8" y="290.77265625"/>
      </g>
     </g>
     <g id="line2d_48">
      <g>
       <use style="fill:#262626;stroke:#262626;stroke-width:0.5;" x="408.8865625" xlink:href="#mfe26b32bb8" y="11.77265625"/>
      </g>
     </g>
    </g>
    <g id="xtick_21">
     <g id="line2d_49">
      <g>
       <use style="fill:#262626;stroke:#262626;stroke-width:0.5;" x="438.6465625" xlink:href="#mfe26b32bb8" y="290.77265625"/>
      </g>
     </g>
     <g id="line2d_50">
      <g>
       <use style="fill:#262626;stroke:#262626;stroke-width:0.5;" x="438.6465625" xlink:href="#mfe26b32bb8" y="11.77265625"/>
      </g>
     </g>
    </g>
    <g id="xtick_22">
     <g id="line2d_51">
      <g>
       <use style="fill:#262626;stroke:#262626;stroke-width:0.5;" x="475.8465625" xlink:href="#mfe26b32bb8" y="290.77265625"/>
      </g>
     </g>
     <g id="line2d_52">
      <g>
       <use style="fill:#262626;stroke:#262626;stroke-width:0.5;" x="475.8465625" xlink:href="#mfe26b32bb8" y="11.77265625"/>
      </g>
     </g>
    </g>
    <g id="xtick_23">
     <g id="line2d_53">
      <g>
       <use style="fill:#262626;stroke:#262626;stroke-width:0.5;" x="505.6065625" xlink:href="#mfe26b32bb8" y="290.77265625"/>
      </g>
     </g>
     <g id="line2d_54">
      <g>
       <use style="fill:#262626;stroke:#262626;stroke-width:0.5;" x="505.6065625" xlink:href="#mfe26b32bb8" y="11.77265625"/>
      </g>
     </g>
    </g>
    <g id="xtick_24">
     <g id="line2d_55">
      <g>
       <use style="fill:#262626;stroke:#262626;stroke-width:0.5;" x="542.8065625" xlink:href="#mfe26b32bb8" y="290.77265625"/>
      </g>
     </g>
     <g id="line2d_56">
      <g>
       <use style="fill:#262626;stroke:#262626;stroke-width:0.5;" x="542.8065625" xlink:href="#mfe26b32bb8" y="11.77265625"/>
      </g>
     </g>
    </g>
    <g id="xtick_25">
     <g id="line2d_57">
      <g>
       <use style="fill:#262626;stroke:#262626;stroke-width:0.5;" x="572.5665625" xlink:href="#mfe26b32bb8" y="290.77265625"/>
      </g>
     </g>
     <g id="line2d_58">
      <g>
       <use style="fill:#262626;stroke:#262626;stroke-width:0.5;" x="572.5665625" xlink:href="#mfe26b32bb8" y="11.77265625"/>
      </g>
     </g>
    </g>
    <g id="xtick_26">
     <g id="line2d_59">
      <g>
       <use style="fill:#262626;stroke:#262626;stroke-width:0.5;" x="602.3265625" xlink:href="#mfe26b32bb8" y="290.77265625"/>
      </g>
     </g>
     <g id="line2d_60">
      <g>
       <use style="fill:#262626;stroke:#262626;stroke-width:0.5;" x="602.3265625" xlink:href="#mfe26b32bb8" y="11.77265625"/>
      </g>
     </g>
    </g>
    <g id="text_7">
     <!-- Date -->
     <defs>
      <path d="M 7.71875 0 
L 7.71875 71.578125 
L 32.375 71.578125 
Q 40.71875 71.578125 45.125 70.5625 
Q 51.265625 69.140625 55.609375 65.4375 
Q 61.28125 60.640625 64.078125 53.1875 
Q 66.890625 45.75 66.890625 36.1875 
Q 66.890625 28.03125 64.984375 21.734375 
Q 63.09375 15.4375 60.109375 11.296875 
Q 57.125 7.171875 53.578125 4.796875 
Q 50.046875 2.4375 45.046875 1.21875 
Q 40.046875 0 33.546875 0 
z
M 17.1875 8.453125 
L 32.46875 8.453125 
Q 39.546875 8.453125 43.578125 9.765625 
Q 47.609375 11.078125 50 13.484375 
Q 53.375 16.84375 55.25 22.53125 
Q 57.125 28.21875 57.125 36.328125 
Q 57.125 47.5625 53.4375 53.59375 
Q 49.75 59.625 44.484375 61.671875 
Q 40.671875 63.140625 32.234375 63.140625 
L 17.1875 63.140625 
z
" id="ArialMT-44"/>
      <path d="M 42.09375 16.703125 
L 51.171875 15.578125 
Q 49.03125 7.625 43.21875 3.21875 
Q 37.40625 -1.171875 28.375 -1.171875 
Q 17 -1.171875 10.328125 5.828125 
Q 3.65625 12.84375 3.65625 25.484375 
Q 3.65625 38.578125 10.390625 45.796875 
Q 17.140625 53.03125 27.875 53.03125 
Q 38.28125 53.03125 44.875 45.953125 
Q 51.46875 38.875 51.46875 26.03125 
Q 51.46875 25.25 51.421875 23.6875 
L 12.75 23.6875 
Q 13.234375 15.140625 17.578125 10.59375 
Q 21.921875 6.0625 28.421875 6.0625 
Q 33.25 6.0625 36.671875 8.59375 
Q 40.09375 11.140625 42.09375 16.703125 
M 13.234375 30.90625 
L 42.1875 30.90625 
Q 41.609375 37.453125 38.875 40.71875 
Q 34.671875 45.796875 27.984375 45.796875 
Q 21.921875 45.796875 17.796875 41.75 
Q 13.671875 37.703125 13.234375 30.90625 
" id="ArialMT-65"/>
     </defs>
     <g style="fill:#262626;" transform="translate(319.14953125 330.3684375)scale(0.11 -0.11)">
      <use xlink:href="#ArialMT-44"/>
      <use x="72.216796875" xlink:href="#ArialMT-61"/>
      <use x="127.83203125" xlink:href="#ArialMT-74"/>
      <use x="155.615234375" xlink:href="#ArialMT-65"/>
     </g>
    </g>
   </g>
   <g id="matplotlib.axis_2">
    <g id="ytick_1">
     <g id="line2d_61">
      <path clip-path="url(#p36595aedb3)" d="M 51.766563 290.772656 
L 609.766562 290.772656 
" style="fill:none;stroke:#ffffff;stroke-linecap:round;"/>
     </g>
     <g id="line2d_62">
      <g>
       <use style="fill:#262626;stroke:#262626;" x="51.7665625" xlink:href="#maed7a8f310" y="290.77265625"/>
      </g>
     </g>
     <g id="line2d_63">
      <g>
       <use style="fill:#262626;stroke:#262626;" x="609.7665625" xlink:href="#maed7a8f310" y="290.77265625"/>
      </g>
     </g>
     <g id="text_8">
      <!-- 0 -->
      <g style="fill:#262626;" transform="translate(39.205625 293.3578125)scale(0.1 -0.1)">
       <use xlink:href="#ArialMT-30"/>
      </g>
     </g>
    </g>
    <g id="ytick_2">
     <g id="line2d_64">
      <path clip-path="url(#p36595aedb3)" d="M 51.766563 234.972656 
L 609.766562 234.972656 
" style="fill:none;stroke:#ffffff;stroke-linecap:round;"/>
     </g>
     <g id="line2d_65">
      <g>
       <use style="fill:#262626;stroke:#262626;" x="51.7665625" xlink:href="#maed7a8f310" y="234.97265625"/>
      </g>
     </g>
     <g id="line2d_66">
      <g>
       <use style="fill:#262626;stroke:#262626;" x="609.7665625" xlink:href="#maed7a8f310" y="234.97265625"/>
      </g>
     </g>
     <g id="text_9">
      <!-- 500 -->
      <g style="fill:#262626;" transform="translate(28.08375 237.5578125)scale(0.1 -0.1)">
       <use xlink:href="#ArialMT-35"/>
       <use x="55.615234375" xlink:href="#ArialMT-30"/>
       <use x="111.23046875" xlink:href="#ArialMT-30"/>
      </g>
     </g>
    </g>
    <g id="ytick_3">
     <g id="line2d_67">
      <path clip-path="url(#p36595aedb3)" d="M 51.766563 179.172656 
L 609.766562 179.172656 
" style="fill:none;stroke:#ffffff;stroke-linecap:round;"/>
     </g>
     <g id="line2d_68">
      <g>
       <use style="fill:#262626;stroke:#262626;" x="51.7665625" xlink:href="#maed7a8f310" y="179.17265625"/>
      </g>
     </g>
     <g id="line2d_69">
      <g>
       <use style="fill:#262626;stroke:#262626;" x="609.7665625" xlink:href="#maed7a8f310" y="179.17265625"/>
      </g>
     </g>
     <g id="text_10">
      <!-- 1000 -->
      <g style="fill:#262626;" transform="translate(22.5228125 181.7578125)scale(0.1 -0.1)">
       <use xlink:href="#ArialMT-31"/>
       <use x="55.615234375" xlink:href="#ArialMT-30"/>
       <use x="111.23046875" xlink:href="#ArialMT-30"/>
       <use x="166.845703125" xlink:href="#ArialMT-30"/>
      </g>
     </g>
    </g>
    <g id="ytick_4">
     <g id="line2d_70">
      <path clip-path="url(#p36595aedb3)" d="M 51.766563 123.372656 
L 609.766562 123.372656 
" style="fill:none;stroke:#ffffff;stroke-linecap:round;"/>
     </g>
     <g id="line2d_71">
      <g>
       <use style="fill:#262626;stroke:#262626;" x="51.7665625" xlink:href="#maed7a8f310" y="123.37265625"/>
      </g>
     </g>
     <g id="line2d_72">
      <g>
       <use style="fill:#262626;stroke:#262626;" x="609.7665625" xlink:href="#maed7a8f310" y="123.37265625"/>
      </g>
     </g>
     <g id="text_11">
      <!-- 1500 -->
      <g style="fill:#262626;" transform="translate(22.5228125 125.9578125)scale(0.1 -0.1)">
       <use xlink:href="#ArialMT-31"/>
       <use x="55.615234375" xlink:href="#ArialMT-35"/>
       <use x="111.23046875" xlink:href="#ArialMT-30"/>
       <use x="166.845703125" xlink:href="#ArialMT-30"/>
      </g>
     </g>
    </g>
    <g id="ytick_5">
     <g id="line2d_73">
      <path clip-path="url(#p36595aedb3)" d="M 51.766563 67.572656 
L 609.766562 67.572656 
" style="fill:none;stroke:#ffffff;stroke-linecap:round;"/>
     </g>
     <g id="line2d_74">
      <g>
       <use style="fill:#262626;stroke:#262626;" x="51.7665625" xlink:href="#maed7a8f310" y="67.57265625"/>
      </g>
     </g>
     <g id="line2d_75">
      <g>
       <use style="fill:#262626;stroke:#262626;" x="609.7665625" xlink:href="#maed7a8f310" y="67.57265625"/>
      </g>
     </g>
     <g id="text_12">
      <!-- 2000 -->
      <g style="fill:#262626;" transform="translate(22.5228125 70.1578125)scale(0.1 -0.1)">
       <use xlink:href="#ArialMT-32"/>
       <use x="55.615234375" xlink:href="#ArialMT-30"/>
       <use x="111.23046875" xlink:href="#ArialMT-30"/>
       <use x="166.845703125" xlink:href="#ArialMT-30"/>
      </g>
     </g>
    </g>
    <g id="ytick_6">
     <g id="line2d_76">
      <path clip-path="url(#p36595aedb3)" d="M 51.766563 11.772656 
L 609.766562 11.772656 
" style="fill:none;stroke:#ffffff;stroke-linecap:round;"/>
     </g>
     <g id="line2d_77">
      <g>
       <use style="fill:#262626;stroke:#262626;" x="51.7665625" xlink:href="#maed7a8f310" y="11.77265625"/>
      </g>
     </g>
     <g id="line2d_78">
      <g>
       <use style="fill:#262626;stroke:#262626;" x="609.7665625" xlink:href="#maed7a8f310" y="11.77265625"/>
      </g>
     </g>
     <g id="text_13">
      <!-- 2500 -->
      <g style="fill:#262626;" transform="translate(22.5228125 14.3578125)scale(0.1 -0.1)">
       <use xlink:href="#ArialMT-32"/>
       <use x="55.615234375" xlink:href="#ArialMT-35"/>
       <use x="111.23046875" xlink:href="#ArialMT-30"/>
       <use x="166.845703125" xlink:href="#ArialMT-30"/>
      </g>
     </g>
    </g>
    <g id="text_14">
     <!-- Length per Week / Min -->
     <defs>
      <path d="M 6.640625 61.46875 
L 6.640625 71.578125 
L 15.4375 71.578125 
L 15.4375 61.46875 
z
M 6.640625 0 
L 6.640625 51.859375 
L 15.4375 51.859375 
L 15.4375 0 
z
" id="ArialMT-69"/>
      <path d="M 0 -1.21875 
L 20.75 72.796875 
L 27.78125 72.796875 
L 7.078125 -1.21875 
z
" id="ArialMT-2f"/>
      <path d="M 4.984375 -4.296875 
L 13.53125 -5.5625 
Q 14.0625 -9.515625 16.5 -11.328125 
Q 19.78125 -13.765625 25.4375 -13.765625 
Q 31.546875 -13.765625 34.859375 -11.328125 
Q 38.1875 -8.890625 39.359375 -4.5 
Q 40.046875 -1.8125 39.984375 6.78125 
Q 34.234375 0 25.640625 0 
Q 14.9375 0 9.078125 7.71875 
Q 3.21875 15.4375 3.21875 26.21875 
Q 3.21875 33.640625 5.90625 39.90625 
Q 8.59375 46.1875 13.6875 49.609375 
Q 18.796875 53.03125 25.6875 53.03125 
Q 34.859375 53.03125 40.828125 45.609375 
L 40.828125 51.859375 
L 48.921875 51.859375 
L 48.921875 7.03125 
Q 48.921875 -5.078125 46.453125 -10.125 
Q 44 -15.1875 38.640625 -18.109375 
Q 33.296875 -21.046875 25.484375 -21.046875 
Q 16.21875 -21.046875 10.5 -16.875 
Q 4.78125 -12.703125 4.984375 -4.296875 
M 12.25 26.859375 
Q 12.25 16.65625 16.296875 11.96875 
Q 20.359375 7.28125 26.46875 7.28125 
Q 32.515625 7.28125 36.609375 11.9375 
Q 40.71875 16.609375 40.71875 26.5625 
Q 40.71875 36.078125 36.5 40.90625 
Q 32.28125 45.75 26.3125 45.75 
Q 20.453125 45.75 16.34375 40.984375 
Q 12.25 36.234375 12.25 26.859375 
" id="ArialMT-67"/>
      <path d="M 7.328125 0 
L 7.328125 71.578125 
L 16.796875 71.578125 
L 16.796875 8.453125 
L 52.046875 8.453125 
L 52.046875 0 
z
" id="ArialMT-4c"/>
      <path id="ArialMT-20"/>
      <path d="M 6.640625 0 
L 6.640625 71.578125 
L 15.4375 71.578125 
L 15.4375 30.765625 
L 36.234375 51.859375 
L 47.609375 51.859375 
L 27.78125 32.625 
L 49.609375 0 
L 38.765625 0 
L 21.625 26.515625 
L 15.4375 20.5625 
L 15.4375 0 
z
" id="ArialMT-6b"/>
      <path d="M 20.21875 0 
L 1.21875 71.578125 
L 10.9375 71.578125 
L 21.828125 24.65625 
Q 23.578125 17.28125 24.859375 10.015625 
Q 27.59375 21.484375 28.078125 23.25 
L 41.703125 71.578125 
L 53.125 71.578125 
L 63.375 35.359375 
Q 67.234375 21.875 68.953125 10.015625 
Q 70.3125 16.796875 72.515625 25.59375 
L 83.734375 71.578125 
L 93.265625 71.578125 
L 73.640625 0 
L 64.5 0 
L 49.421875 54.546875 
Q 47.515625 61.375 47.171875 62.9375 
Q 46.046875 58.015625 45.0625 54.546875 
L 29.890625 0 
z
" id="ArialMT-57"/>
      <path d="M 7.421875 0 
L 7.421875 71.578125 
L 21.6875 71.578125 
L 38.625 20.90625 
Q 40.96875 13.8125 42.046875 10.296875 
Q 43.265625 14.203125 45.84375 21.78125 
L 62.984375 71.578125 
L 75.734375 71.578125 
L 75.734375 0 
L 66.609375 0 
L 66.609375 59.90625 
L 45.796875 0 
L 37.25 0 
L 16.546875 60.9375 
L 16.546875 0 
z
" id="ArialMT-4d"/>
      <path d="M 6.59375 0 
L 6.59375 71.578125 
L 15.375 71.578125 
L 15.375 45.90625 
Q 21.53125 53.03125 30.90625 53.03125 
Q 36.671875 53.03125 40.921875 50.75 
Q 45.171875 48.484375 47 44.484375 
Q 48.828125 40.484375 48.828125 32.859375 
L 48.828125 0 
L 40.046875 0 
L 40.046875 32.859375 
Q 40.046875 39.453125 37.1875 42.453125 
Q 34.328125 45.453125 29.109375 45.453125 
Q 25.203125 45.453125 21.75 43.421875 
Q 18.3125 41.40625 16.84375 37.9375 
Q 15.375 34.46875 15.375 28.375 
L 15.375 0 
z
" id="ArialMT-68"/>
     </defs>
     <g style="fill:#262626;" transform="translate(15.20765625 206.6009375)rotate(-90.0)scale(0.11 -0.11)">
      <use xlink:href="#ArialMT-4c"/>
      <use x="55.615234375" xlink:href="#ArialMT-65"/>
      <use x="111.23046875" xlink:href="#ArialMT-6e"/>
      <use x="166.845703125" xlink:href="#ArialMT-67"/>
      <use x="222.4609375" xlink:href="#ArialMT-74"/>
      <use x="250.244140625" xlink:href="#ArialMT-68"/>
      <use x="305.859375" xlink:href="#ArialMT-20"/>
      <use x="333.642578125" xlink:href="#ArialMT-70"/>
      <use x="389.2578125" xlink:href="#ArialMT-65"/>
      <use x="444.873046875" xlink:href="#ArialMT-72"/>
      <use x="478.173828125" xlink:href="#ArialMT-20"/>
      <use x="505.95703125" xlink:href="#ArialMT-57"/>
      <use x="600.326171875" xlink:href="#ArialMT-65"/>
      <use x="655.94140625" xlink:href="#ArialMT-65"/>
      <use x="711.556640625" xlink:href="#ArialMT-6b"/>
      <use x="761.556640625" xlink:href="#ArialMT-20"/>
      <use x="789.33984375" xlink:href="#ArialMT-2f"/>
      <use x="817.123046875" xlink:href="#ArialMT-20"/>
      <use x="844.90625" xlink:href="#ArialMT-4d"/>
      <use x="928.20703125" xlink:href="#ArialMT-69"/>
      <use x="950.423828125" xlink:href="#ArialMT-6e"/>
     </g>
    </g>
   </g>
   <g id="line2d_79">
    <path d="M 51.766563 158.526656 
L 59.206562 220.911056 
L 66.646562 193.234256 
L 74.086563 204.059456 
L 81.526562 190.109456 
L 88.966562 232.405856 
L 96.406563 197.698256 
L 103.846562 149.487056 
L 111.286563 189.216656 
L 118.726562 232.740656 
L 126.166562 160.535456 
L 133.606563 147.701456 
L 141.046562 98.262656 
L 148.486562 153.504656 
L 155.926563 143.572256 
L 163.366562 128.729456 
L 170.806562 75.049856 
L 178.246563 73.264256 
L 185.686562 120.359456 
L 193.126562 103.954256 
L 200.566563 67.907456 
L 208.006562 54.515456 
L 215.446563 117.904256 
L 222.886562 74.380256 
L 230.326562 171.918656 
L 237.766563 185.980256 
L 245.206562 250.150256 
L 252.646562 243.789056 
L 260.086563 214.884656 
L 267.526562 211.425056 
L 274.966562 226.267856 
L 282.406563 216.781856 
L 289.846562 224.928656 
L 297.286563 171.472256 
L 304.726562 148.594256 
L 312.166562 256.846256 
L 319.606563 223.589456 
L 327.046562 200.041856 
L 334.486562 230.843456 
L 341.926563 229.839056 
L 349.366562 264.546656 
L 356.806562 254.056256 
L 364.246563 290.772656 
L 371.686562 250.819856 
L 379.126562 225.040256 
L 386.566563 268.452656 
L 394.006562 186.538256 
L 401.446563 243.119456 
L 408.886562 243.007856 
L 416.326562 246.579056 
L 423.766563 235.307456 
L 431.206562 279.054656 
L 438.646562 229.615856 
L 446.086563 197.363456 
L 453.526562 225.375056 
L 460.966562 141.228656 
L 468.406563 253.386656 
L 475.846562 163.660256 
L 483.286563 191.225456 
L 490.726562 229.839056 
L 498.166562 213.991856 
L 505.606563 244.458656 
L 513.046562 148.929056 
L 520.486562 243.454256 
L 527.926563 263.653856 
L 535.366562 230.397056 
L 542.806562 194.461856 
L 550.246563 191.225456 
L 557.686562 195.466256 
L 565.126562 177.833456 
L 572.566563 290.772656 
L 580.006562 212.429456 
L 587.446563 185.087456 
L 594.886562 283.965056 
L 602.326562 179.061056 
L 609.766563 193.345856 
" style="fill:none;stroke:#55a868;stroke-linecap:round;stroke-width:1.75;"/>
    <defs>
     <path d="M 0 2.5 
C 0.663008 2.5 1.29895 2.236584 1.767767 1.767767 
C 2.236584 1.29895 2.5 0.663008 2.5 0 
C 2.5 -0.663008 2.236584 -1.29895 1.767767 -1.767767 
C 1.29895 -2.236584 0.663008 -2.5 0 -2.5 
C -0.663008 -2.5 -1.29895 -2.236584 -1.767767 -1.767767 
C -2.236584 -1.29895 -2.5 -0.663008 -2.5 0 
C -2.5 0.663008 -2.236584 1.29895 -1.767767 1.767767 
C -1.29895 2.236584 -0.663008 2.5 0 2.5 
z
" id="mc170e0a0bc"/>
    </defs>
    <g>
     <use style="fill:#55a868;" x="51.7665625" xlink:href="#mc170e0a0bc" y="158.52665625"/>
     <use style="fill:#55a868;" x="59.2065625" xlink:href="#mc170e0a0bc" y="220.91105625"/>
     <use style="fill:#55a868;" x="66.6465625" xlink:href="#mc170e0a0bc" y="193.23425625"/>
     <use style="fill:#55a868;" x="74.0865625" xlink:href="#mc170e0a0bc" y="204.05945625"/>
     <use style="fill:#55a868;" x="81.5265625" xlink:href="#mc170e0a0bc" y="190.10945625"/>
     <use style="fill:#55a868;" x="88.9665625" xlink:href="#mc170e0a0bc" y="232.40585625"/>
     <use style="fill:#55a868;" x="96.4065625" xlink:href="#mc170e0a0bc" y="197.69825625"/>
     <use style="fill:#55a868;" x="103.8465625" xlink:href="#mc170e0a0bc" y="149.48705625"/>
     <use style="fill:#55a868;" x="111.2865625" xlink:href="#mc170e0a0bc" y="189.21665625"/>
     <use style="fill:#55a868;" x="118.7265625" xlink:href="#mc170e0a0bc" y="232.74065625"/>
     <use style="fill:#55a868;" x="126.1665625" xlink:href="#mc170e0a0bc" y="160.53545625"/>
     <use style="fill:#55a868;" x="133.6065625" xlink:href="#mc170e0a0bc" y="147.70145625"/>
     <use style="fill:#55a868;" x="141.0465625" xlink:href="#mc170e0a0bc" y="98.26265625"/>
     <use style="fill:#55a868;" x="148.4865625" xlink:href="#mc170e0a0bc" y="153.50465625"/>
     <use style="fill:#55a868;" x="155.9265625" xlink:href="#mc170e0a0bc" y="143.57225625"/>
     <use style="fill:#55a868;" x="163.3665625" xlink:href="#mc170e0a0bc" y="128.72945625"/>
     <use style="fill:#55a868;" x="170.8065625" xlink:href="#mc170e0a0bc" y="75.04985625"/>
     <use style="fill:#55a868;" x="178.2465625" xlink:href="#mc170e0a0bc" y="73.26425625"/>
     <use style="fill:#55a868;" x="185.6865625" xlink:href="#mc170e0a0bc" y="120.35945625"/>
     <use style="fill:#55a868;" x="193.1265625" xlink:href="#mc170e0a0bc" y="103.95425625"/>
     <use style="fill:#55a868;" x="200.5665625" xlink:href="#mc170e0a0bc" y="67.90745625"/>
     <use style="fill:#55a868;" x="208.0065625" xlink:href="#mc170e0a0bc" y="54.51545625"/>
     <use style="fill:#55a868;" x="215.4465625" xlink:href="#mc170e0a0bc" y="117.90425625"/>
     <use style="fill:#55a868;" x="222.8865625" xlink:href="#mc170e0a0bc" y="74.38025625"/>
     <use style="fill:#55a868;" x="230.3265625" xlink:href="#mc170e0a0bc" y="171.91865625"/>
     <use style="fill:#55a868;" x="237.7665625" xlink:href="#mc170e0a0bc" y="185.98025625"/>
     <use style="fill:#55a868;" x="245.2065625" xlink:href="#mc170e0a0bc" y="250.15025625"/>
     <use style="fill:#55a868;" x="252.6465625" xlink:href="#mc170e0a0bc" y="243.78905625"/>
     <use style="fill:#55a868;" x="260.0865625" xlink:href="#mc170e0a0bc" y="214.88465625"/>
     <use style="fill:#55a868;" x="267.5265625" xlink:href="#mc170e0a0bc" y="211.42505625"/>
     <use style="fill:#55a868;" x="274.9665625" xlink:href="#mc170e0a0bc" y="226.26785625"/>
     <use style="fill:#55a868;" x="282.4065625" xlink:href="#mc170e0a0bc" y="216.78185625"/>
     <use style="fill:#55a868;" x="289.8465625" xlink:href="#mc170e0a0bc" y="224.92865625"/>
     <use style="fill:#55a868;" x="297.2865625" xlink:href="#mc170e0a0bc" y="171.47225625"/>
     <use style="fill:#55a868;" x="304.7265625" xlink:href="#mc170e0a0bc" y="148.59425625"/>
     <use style="fill:#55a868;" x="312.1665625" xlink:href="#mc170e0a0bc" y="256.84625625"/>
     <use style="fill:#55a868;" x="319.6065625" xlink:href="#mc170e0a0bc" y="223.58945625"/>
     <use style="fill:#55a868;" x="327.0465625" xlink:href="#mc170e0a0bc" y="200.04185625"/>
     <use style="fill:#55a868;" x="334.4865625" xlink:href="#mc170e0a0bc" y="230.84345625"/>
     <use style="fill:#55a868;" x="341.9265625" xlink:href="#mc170e0a0bc" y="229.83905625"/>
     <use style="fill:#55a868;" x="349.3665625" xlink:href="#mc170e0a0bc" y="264.54665625"/>
     <use style="fill:#55a868;" x="356.8065625" xlink:href="#mc170e0a0bc" y="254.05625625"/>
     <use style="fill:#55a868;" x="364.2465625" xlink:href="#mc170e0a0bc" y="290.77265625"/>
     <use style="fill:#55a868;" x="371.6865625" xlink:href="#mc170e0a0bc" y="250.81985625"/>
     <use style="fill:#55a868;" x="379.1265625" xlink:href="#mc170e0a0bc" y="225.04025625"/>
     <use style="fill:#55a868;" x="386.5665625" xlink:href="#mc170e0a0bc" y="268.45265625"/>
     <use style="fill:#55a868;" x="394.0065625" xlink:href="#mc170e0a0bc" y="186.53825625"/>
     <use style="fill:#55a868;" x="401.4465625" xlink:href="#mc170e0a0bc" y="243.11945625"/>
     <use style="fill:#55a868;" x="408.8865625" xlink:href="#mc170e0a0bc" y="243.00785625"/>
     <use style="fill:#55a868;" x="416.3265625" xlink:href="#mc170e0a0bc" y="246.57905625"/>
     <use style="fill:#55a868;" x="423.7665625" xlink:href="#mc170e0a0bc" y="235.30745625"/>
     <use style="fill:#55a868;" x="431.2065625" xlink:href="#mc170e0a0bc" y="279.05465625"/>
     <use style="fill:#55a868;" x="438.6465625" xlink:href="#mc170e0a0bc" y="229.61585625"/>
     <use style="fill:#55a868;" x="446.0865625" xlink:href="#mc170e0a0bc" y="197.36345625"/>
     <use style="fill:#55a868;" x="453.5265625" xlink:href="#mc170e0a0bc" y="225.37505625"/>
     <use style="fill:#55a868;" x="460.9665625" xlink:href="#mc170e0a0bc" y="141.22865625"/>
     <use style="fill:#55a868;" x="468.4065625" xlink:href="#mc170e0a0bc" y="253.38665625"/>
     <use style="fill:#55a868;" x="475.8465625" xlink:href="#mc170e0a0bc" y="163.66025625"/>
     <use style="fill:#55a868;" x="483.2865625" xlink:href="#mc170e0a0bc" y="191.22545625"/>
     <use style="fill:#55a868;" x="490.7265625" xlink:href="#mc170e0a0bc" y="229.83905625"/>
     <use style="fill:#55a868;" x="498.1665625" xlink:href="#mc170e0a0bc" y="213.99185625"/>
     <use style="fill:#55a868;" x="505.6065625" xlink:href="#mc170e0a0bc" y="244.45865625"/>
     <use style="fill:#55a868;" x="513.0465625" xlink:href="#mc170e0a0bc" y="148.92905625"/>
     <use style="fill:#55a868;" x="520.4865625" xlink:href="#mc170e0a0bc" y="243.45425625"/>
     <use style="fill:#55a868;" x="527.9265625" xlink:href="#mc170e0a0bc" y="263.65385625"/>
     <use style="fill:#55a868;" x="535.3665625" xlink:href="#mc170e0a0bc" y="230.39705625"/>
     <use style="fill:#55a868;" x="542.8065625" xlink:href="#mc170e0a0bc" y="194.46185625"/>
     <use style="fill:#55a868;" x="550.2465625" xlink:href="#mc170e0a0bc" y="191.22545625"/>
     <use style="fill:#55a868;" x="557.6865625" xlink:href="#mc170e0a0bc" y="195.46625625"/>
     <use style="fill:#55a868;" x="565.1265625" xlink:href="#mc170e0a0bc" y="177.83345625"/>
     <use style="fill:#55a868;" x="572.5665625" xlink:href="#mc170e0a0bc" y="290.77265625"/>
     <use style="fill:#55a868;" x="580.0065625" xlink:href="#mc170e0a0bc" y="212.42945625"/>
     <use style="fill:#55a868;" x="587.4465625" xlink:href="#mc170e0a0bc" y="185.08745625"/>
     <use style="fill:#55a868;" x="594.8865625" xlink:href="#mc170e0a0bc" y="283.96505625"/>
     <use style="fill:#55a868;" x="602.3265625" xlink:href="#mc170e0a0bc" y="179.06105625"/>
     <use style="fill:#55a868;" x="609.7665625" xlink:href="#mc170e0a0bc" y="193.34585625"/>
    </g>
   </g>
   <g id="patch_3">
    <path d="M 51.766563 290.772656 
L 51.766563 11.772656 
" style="fill:none;"/>
   </g>
   <g id="patch_4">
    <path d="M 51.766563 11.772656 
L 609.766563 11.772656 
" style="fill:none;"/>
   </g>
   <g id="patch_5">
    <path d="M 609.766562 290.772656 
L 609.766562 11.772656 
" style="fill:none;"/>
   </g>
   <g id="patch_6">
    <path d="M 51.766563 290.772656 
L 609.766563 290.772656 
" style="fill:none;"/>
   </g>
  </g>
 </g>
 <defs>
  <clipPath id="p36595aedb3">
   <rect height="279.0" width="558.0" x="51.7665625" y="11.77265625"/>
  </clipPath>
 </defs>
</svg>
