<?xml version="1.0" encoding="utf-8" standalone="no"?>
<!DOCTYPE svg PUBLIC "-//W3C//DTD SVG 1.1//EN"
  "http://www.w3.org/Graphics/SVG/1.1/DTD/svg11.dtd">
<!-- Created with matplotlib (http://matplotlib.org/) -->
<svg height="329pt" version="1.1" viewBox="0 0 622 329" width="622pt" xmlns="http://www.w3.org/2000/svg" xmlns:xlink="http://www.w3.org/1999/xlink">
 <defs>
  <style type="text/css">
*{stroke-linecap:butt;stroke-linejoin:round;stroke-miterlimit:100000;}
  </style>
 </defs>
 <g id="figure_1">
  <g id="patch_1">
   <path d="M 0 329.440781 
L 622.391094 329.440781 
L 622.391094 0 
L 0 0 
z
" style="fill:#ffffff;"/>
  </g>
  <g id="axes_1">
   <g id="patch_2">
    <path d="M 48.849687 290.772656 
L 606.849687 290.772656 
L 606.849687 11.772656 
L 48.849687 11.772656 
z
" style="fill:#eaeaf2;"/>
   </g>
   <g id="matplotlib.axis_1">
    <g id="xtick_1">
     <g id="line2d_1">
      <path clip-path="url(#p5e8c02fc12)" d="M 48.849687 290.772656 
L 48.849687 11.772656 
" style="fill:none;stroke:#ffffff;stroke-linecap:round;"/>
     </g>
     <g id="line2d_2">
      <defs>
       <path d="M 0 0 
L 0 0 
" id="mf344beafa8" style="stroke:#262626;"/>
      </defs>
      <g>
       <use style="fill:#262626;stroke:#262626;" x="48.8496875" xlink:href="#mf344beafa8" y="290.77265625"/>
      </g>
     </g>
     <g id="line2d_3">
      <g>
       <use style="fill:#262626;stroke:#262626;" x="48.8496875" xlink:href="#mf344beafa8" y="11.77265625"/>
      </g>
     </g>
     <g id="text_1">
      <!-- 0 -->
      <defs>
       <path d="M 4.15625 35.296875 
Q 4.15625 48 6.765625 55.734375 
Q 9.375 63.484375 14.515625 67.671875 
Q 19.671875 71.875 27.484375 71.875 
Q 33.25 71.875 37.59375 69.546875 
Q 41.9375 67.234375 44.765625 62.859375 
Q 47.609375 58.5 49.21875 52.21875 
Q 50.828125 45.953125 50.828125 35.296875 
Q 50.828125 22.703125 48.234375 14.96875 
Q 45.65625 7.234375 40.5 3 
Q 35.359375 -1.21875 27.484375 -1.21875 
Q 17.140625 -1.21875 11.234375 6.203125 
Q 4.15625 15.140625 4.15625 35.296875 
M 13.1875 35.296875 
Q 13.1875 17.671875 17.3125 11.828125 
Q 21.4375 6 27.484375 6 
Q 33.546875 6 37.671875 11.859375 
Q 41.796875 17.71875 41.796875 35.296875 
Q 41.796875 52.984375 37.671875 58.78125 
Q 33.546875 64.59375 27.390625 64.59375 
Q 21.34375 64.59375 17.71875 59.46875 
Q 13.1875 52.9375 13.1875 35.296875 
" id="ArialMT-30"/>
      </defs>
      <g style="fill:#262626;" transform="translate(46.06921875 304.93046875)scale(0.1 -0.1)">
       <use xlink:href="#ArialMT-30"/>
      </g>
     </g>
    </g>
    <g id="xtick_2">
     <g id="line2d_4">
      <path clip-path="url(#p5e8c02fc12)" d="M 128.563973 290.772656 
L 128.563973 11.772656 
" style="fill:none;stroke:#ffffff;stroke-linecap:round;"/>
     </g>
     <g id="line2d_5">
      <g>
       <use style="fill:#262626;stroke:#262626;" x="128.563973214" xlink:href="#mf344beafa8" y="290.77265625"/>
      </g>
     </g>
     <g id="line2d_6">
      <g>
       <use style="fill:#262626;stroke:#262626;" x="128.563973214" xlink:href="#mf344beafa8" y="11.77265625"/>
      </g>
     </g>
     <g id="text_2">
      <!-- 20 -->
      <defs>
       <path d="M 50.34375 8.453125 
L 50.34375 0 
L 3.03125 0 
Q 2.9375 3.171875 4.046875 6.109375 
Q 5.859375 10.9375 9.828125 15.625 
Q 13.8125 20.3125 21.34375 26.46875 
Q 33.015625 36.03125 37.109375 41.625 
Q 41.21875 47.21875 41.21875 52.203125 
Q 41.21875 57.421875 37.46875 61 
Q 33.734375 64.59375 27.734375 64.59375 
Q 21.390625 64.59375 17.578125 60.78125 
Q 13.765625 56.984375 13.71875 50.25 
L 4.6875 51.171875 
Q 5.609375 61.28125 11.65625 66.578125 
Q 17.71875 71.875 27.9375 71.875 
Q 38.234375 71.875 44.234375 66.15625 
Q 50.25 60.453125 50.25 52 
Q 50.25 47.703125 48.484375 43.546875 
Q 46.734375 39.40625 42.65625 34.8125 
Q 38.578125 30.21875 29.109375 22.21875 
Q 21.1875 15.578125 18.9375 13.203125 
Q 16.703125 10.84375 15.234375 8.453125 
z
" id="ArialMT-32"/>
      </defs>
      <g style="fill:#262626;" transform="translate(123.003035714 304.93046875)scale(0.1 -0.1)">
       <use xlink:href="#ArialMT-32"/>
       <use x="55.615234375" xlink:href="#ArialMT-30"/>
      </g>
     </g>
    </g>
    <g id="xtick_3">
     <g id="line2d_7">
      <path clip-path="url(#p5e8c02fc12)" d="M 208.278259 290.772656 
L 208.278259 11.772656 
" style="fill:none;stroke:#ffffff;stroke-linecap:round;"/>
     </g>
     <g id="line2d_8">
      <g>
       <use style="fill:#262626;stroke:#262626;" x="208.278258929" xlink:href="#mf344beafa8" y="290.77265625"/>
      </g>
     </g>
     <g id="line2d_9">
      <g>
       <use style="fill:#262626;stroke:#262626;" x="208.278258929" xlink:href="#mf344beafa8" y="11.77265625"/>
      </g>
     </g>
     <g id="text_3">
      <!-- 40 -->
      <defs>
       <path d="M 32.328125 0 
L 32.328125 17.140625 
L 1.265625 17.140625 
L 1.265625 25.203125 
L 33.9375 71.578125 
L 41.109375 71.578125 
L 41.109375 25.203125 
L 50.78125 25.203125 
L 50.78125 17.140625 
L 41.109375 17.140625 
L 41.109375 0 
z
M 32.328125 25.203125 
L 32.328125 57.46875 
L 9.90625 25.203125 
z
" id="ArialMT-34"/>
      </defs>
      <g style="fill:#262626;" transform="translate(202.717321429 304.93046875)scale(0.1 -0.1)">
       <use xlink:href="#ArialMT-34"/>
       <use x="55.615234375" xlink:href="#ArialMT-30"/>
      </g>
     </g>
    </g>
    <g id="xtick_4">
     <g id="line2d_10">
      <path clip-path="url(#p5e8c02fc12)" d="M 287.992545 290.772656 
L 287.992545 11.772656 
" style="fill:none;stroke:#ffffff;stroke-linecap:round;"/>
     </g>
     <g id="line2d_11">
      <g>
       <use style="fill:#262626;stroke:#262626;" x="287.992544643" xlink:href="#mf344beafa8" y="290.77265625"/>
      </g>
     </g>
     <g id="line2d_12">
      <g>
       <use style="fill:#262626;stroke:#262626;" x="287.992544643" xlink:href="#mf344beafa8" y="11.77265625"/>
      </g>
     </g>
     <g id="text_4">
      <!-- 60 -->
      <defs>
       <path d="M 49.75 54.046875 
L 41.015625 53.375 
Q 39.84375 58.546875 37.703125 60.890625 
Q 34.125 64.65625 28.90625 64.65625 
Q 24.703125 64.65625 21.53125 62.3125 
Q 17.390625 59.28125 14.984375 53.46875 
Q 12.59375 47.65625 12.5 36.921875 
Q 15.671875 41.75 20.265625 44.09375 
Q 24.859375 46.4375 29.890625 46.4375 
Q 38.671875 46.4375 44.84375 39.96875 
Q 51.03125 33.5 51.03125 23.25 
Q 51.03125 16.5 48.125 10.71875 
Q 45.21875 4.9375 40.140625 1.859375 
Q 35.0625 -1.21875 28.609375 -1.21875 
Q 17.625 -1.21875 10.6875 6.859375 
Q 3.765625 14.9375 3.765625 33.5 
Q 3.765625 54.25 11.421875 63.671875 
Q 18.109375 71.875 29.4375 71.875 
Q 37.890625 71.875 43.28125 67.140625 
Q 48.6875 62.40625 49.75 54.046875 
M 13.875 23.1875 
Q 13.875 18.65625 15.796875 14.5 
Q 17.71875 10.359375 21.1875 8.171875 
Q 24.65625 6 28.46875 6 
Q 34.03125 6 38.03125 10.484375 
Q 42.046875 14.984375 42.046875 22.703125 
Q 42.046875 30.125 38.078125 34.390625 
Q 34.125 38.671875 28.125 38.671875 
Q 22.171875 38.671875 18.015625 34.390625 
Q 13.875 30.125 13.875 23.1875 
" id="ArialMT-36"/>
      </defs>
      <g style="fill:#262626;" transform="translate(282.431607143 304.93046875)scale(0.1 -0.1)">
       <use xlink:href="#ArialMT-36"/>
       <use x="55.615234375" xlink:href="#ArialMT-30"/>
      </g>
     </g>
    </g>
    <g id="xtick_5">
     <g id="line2d_13">
      <path clip-path="url(#p5e8c02fc12)" d="M 367.70683 290.772656 
L 367.70683 11.772656 
" style="fill:none;stroke:#ffffff;stroke-linecap:round;"/>
     </g>
     <g id="line2d_14">
      <g>
       <use style="fill:#262626;stroke:#262626;" x="367.706830357" xlink:href="#mf344beafa8" y="290.77265625"/>
      </g>
     </g>
     <g id="line2d_15">
      <g>
       <use style="fill:#262626;stroke:#262626;" x="367.706830357" xlink:href="#mf344beafa8" y="11.77265625"/>
      </g>
     </g>
     <g id="text_5">
      <!-- 80 -->
      <defs>
       <path d="M 17.671875 38.8125 
Q 12.203125 40.828125 9.5625 44.53125 
Q 6.9375 48.25 6.9375 53.421875 
Q 6.9375 61.234375 12.546875 66.546875 
Q 18.171875 71.875 27.484375 71.875 
Q 36.859375 71.875 42.578125 66.421875 
Q 48.296875 60.984375 48.296875 53.171875 
Q 48.296875 48.1875 45.671875 44.5 
Q 43.0625 40.828125 37.75 38.8125 
Q 44.34375 36.671875 47.78125 31.875 
Q 51.21875 27.09375 51.21875 20.453125 
Q 51.21875 11.28125 44.71875 5.03125 
Q 38.234375 -1.21875 27.640625 -1.21875 
Q 17.046875 -1.21875 10.546875 5.046875 
Q 4.046875 11.328125 4.046875 20.703125 
Q 4.046875 27.6875 7.59375 32.390625 
Q 11.140625 37.109375 17.671875 38.8125 
M 15.921875 53.71875 
Q 15.921875 48.640625 19.1875 45.40625 
Q 22.46875 42.1875 27.6875 42.1875 
Q 32.765625 42.1875 36.015625 45.375 
Q 39.265625 48.578125 39.265625 53.21875 
Q 39.265625 58.0625 35.90625 61.359375 
Q 32.5625 64.65625 27.59375 64.65625 
Q 22.5625 64.65625 19.234375 61.421875 
Q 15.921875 58.203125 15.921875 53.71875 
M 13.09375 20.65625 
Q 13.09375 16.890625 14.875 13.375 
Q 16.65625 9.859375 20.171875 7.921875 
Q 23.6875 6 27.734375 6 
Q 34.03125 6 38.125 10.046875 
Q 42.234375 14.109375 42.234375 20.359375 
Q 42.234375 26.703125 38.015625 30.859375 
Q 33.796875 35.015625 27.4375 35.015625 
Q 21.234375 35.015625 17.15625 30.90625 
Q 13.09375 26.8125 13.09375 20.65625 
" id="ArialMT-38"/>
      </defs>
      <g style="fill:#262626;" transform="translate(362.145892857 304.93046875)scale(0.1 -0.1)">
       <use xlink:href="#ArialMT-38"/>
       <use x="55.615234375" xlink:href="#ArialMT-30"/>
      </g>
     </g>
    </g>
    <g id="xtick_6">
     <g id="line2d_16">
      <path clip-path="url(#p5e8c02fc12)" d="M 447.421116 290.772656 
L 447.421116 11.772656 
" style="fill:none;stroke:#ffffff;stroke-linecap:round;"/>
     </g>
     <g id="line2d_17">
      <g>
       <use style="fill:#262626;stroke:#262626;" x="447.421116071" xlink:href="#mf344beafa8" y="290.77265625"/>
      </g>
     </g>
     <g id="line2d_18">
      <g>
       <use style="fill:#262626;stroke:#262626;" x="447.421116071" xlink:href="#mf344beafa8" y="11.77265625"/>
      </g>
     </g>
     <g id="text_6">
      <!-- 100 -->
      <defs>
       <path d="M 37.25 0 
L 28.46875 0 
L 28.46875 56 
Q 25.296875 52.984375 20.140625 49.953125 
Q 14.984375 46.921875 10.890625 45.40625 
L 10.890625 53.90625 
Q 18.265625 57.375 23.78125 62.296875 
Q 29.296875 67.234375 31.59375 71.875 
L 37.25 71.875 
z
" id="ArialMT-31"/>
      </defs>
      <g style="fill:#262626;" transform="translate(439.079709821 304.93046875)scale(0.1 -0.1)">
       <use xlink:href="#ArialMT-31"/>
       <use x="55.615234375" xlink:href="#ArialMT-30"/>
       <use x="111.23046875" xlink:href="#ArialMT-30"/>
      </g>
     </g>
    </g>
    <g id="xtick_7">
     <g id="line2d_19">
      <path clip-path="url(#p5e8c02fc12)" d="M 527.135402 290.772656 
L 527.135402 11.772656 
" style="fill:none;stroke:#ffffff;stroke-linecap:round;"/>
     </g>
     <g id="line2d_20">
      <g>
       <use style="fill:#262626;stroke:#262626;" x="527.135401786" xlink:href="#mf344beafa8" y="290.77265625"/>
      </g>
     </g>
     <g id="line2d_21">
      <g>
       <use style="fill:#262626;stroke:#262626;" x="527.135401786" xlink:href="#mf344beafa8" y="11.77265625"/>
      </g>
     </g>
     <g id="text_7">
      <!-- 120 -->
      <g style="fill:#262626;" transform="translate(518.793995536 304.93046875)scale(0.1 -0.1)">
       <use xlink:href="#ArialMT-31"/>
       <use x="55.615234375" xlink:href="#ArialMT-32"/>
       <use x="111.23046875" xlink:href="#ArialMT-30"/>
      </g>
     </g>
    </g>
    <g id="xtick_8">
     <g id="line2d_22">
      <path clip-path="url(#p5e8c02fc12)" d="M 606.849687 290.772656 
L 606.849687 11.772656 
" style="fill:none;stroke:#ffffff;stroke-linecap:round;"/>
     </g>
     <g id="line2d_23">
      <g>
       <use style="fill:#262626;stroke:#262626;" x="606.8496875" xlink:href="#mf344beafa8" y="290.77265625"/>
      </g>
     </g>
     <g id="line2d_24">
      <g>
       <use style="fill:#262626;stroke:#262626;" x="606.8496875" xlink:href="#mf344beafa8" y="11.77265625"/>
      </g>
     </g>
     <g id="text_8">
      <!-- 140 -->
      <g style="fill:#262626;" transform="translate(598.50828125 304.93046875)scale(0.1 -0.1)">
       <use xlink:href="#ArialMT-31"/>
       <use x="55.615234375" xlink:href="#ArialMT-34"/>
       <use x="111.23046875" xlink:href="#ArialMT-30"/>
      </g>
     </g>
    </g>
    <g id="text_9">
     <!-- Length of Set / Min -->
     <defs>
      <path d="M 4.984375 -4.296875 
L 13.53125 -5.5625 
Q 14.0625 -9.515625 16.5 -11.328125 
Q 19.78125 -13.765625 25.4375 -13.765625 
Q 31.546875 -13.765625 34.859375 -11.328125 
Q 38.1875 -8.890625 39.359375 -4.5 
Q 40.046875 -1.8125 39.984375 6.78125 
Q 34.234375 0 25.640625 0 
Q 14.9375 0 9.078125 7.71875 
Q 3.21875 15.4375 3.21875 26.21875 
Q 3.21875 33.640625 5.90625 39.90625 
Q 8.59375 46.1875 13.6875 49.609375 
Q 18.796875 53.03125 25.6875 53.03125 
Q 34.859375 53.03125 40.828125 45.609375 
L 40.828125 51.859375 
L 48.921875 51.859375 
L 48.921875 7.03125 
Q 48.921875 -5.078125 46.453125 -10.125 
Q 44 -15.1875 38.640625 -18.109375 
Q 33.296875 -21.046875 25.484375 -21.046875 
Q 16.21875 -21.046875 10.5 -16.875 
Q 4.78125 -12.703125 4.984375 -4.296875 
M 12.25 26.859375 
Q 12.25 16.65625 16.296875 11.96875 
Q 20.359375 7.28125 26.46875 7.28125 
Q 32.515625 7.28125 36.609375 11.9375 
Q 40.71875 16.609375 40.71875 26.5625 
Q 40.71875 36.078125 36.5 40.90625 
Q 32.28125 45.75 26.3125 45.75 
Q 20.453125 45.75 16.34375 40.984375 
Q 12.25 36.234375 12.25 26.859375 
" id="ArialMT-67"/>
      <path d="M 7.328125 0 
L 7.328125 71.578125 
L 16.796875 71.578125 
L 16.796875 8.453125 
L 52.046875 8.453125 
L 52.046875 0 
z
" id="ArialMT-4c"/>
      <path id="ArialMT-20"/>
      <path d="M 25.78125 7.859375 
L 27.046875 0.09375 
Q 23.34375 -0.6875 20.40625 -0.6875 
Q 15.625 -0.6875 12.984375 0.828125 
Q 10.359375 2.34375 9.28125 4.8125 
Q 8.203125 7.28125 8.203125 15.1875 
L 8.203125 45.015625 
L 1.765625 45.015625 
L 1.765625 51.859375 
L 8.203125 51.859375 
L 8.203125 64.703125 
L 16.9375 69.96875 
L 16.9375 51.859375 
L 25.78125 51.859375 
L 25.78125 45.015625 
L 16.9375 45.015625 
L 16.9375 14.703125 
Q 16.9375 10.9375 17.40625 9.859375 
Q 17.875 8.796875 18.921875 8.15625 
Q 19.96875 7.515625 21.921875 7.515625 
Q 23.390625 7.515625 25.78125 7.859375 
" id="ArialMT-74"/>
      <path d="M 4.5 23 
L 13.421875 23.78125 
Q 14.0625 18.40625 16.375 14.96875 
Q 18.703125 11.53125 23.578125 9.40625 
Q 28.46875 7.28125 34.578125 7.28125 
Q 39.984375 7.28125 44.140625 8.890625 
Q 48.296875 10.5 50.3125 13.296875 
Q 52.34375 16.109375 52.34375 19.4375 
Q 52.34375 22.796875 50.390625 25.3125 
Q 48.4375 27.828125 43.953125 29.546875 
Q 41.0625 30.671875 31.203125 33.03125 
Q 21.34375 35.40625 17.390625 37.5 
Q 12.25 40.1875 9.734375 44.15625 
Q 7.234375 48.140625 7.234375 53.078125 
Q 7.234375 58.5 10.296875 63.203125 
Q 13.375 67.921875 19.28125 70.359375 
Q 25.203125 72.796875 32.421875 72.796875 
Q 40.375 72.796875 46.453125 70.234375 
Q 52.546875 67.671875 55.8125 62.6875 
Q 59.078125 57.71875 59.328125 51.421875 
L 50.25 50.734375 
Q 49.515625 57.515625 45.28125 60.984375 
Q 41.0625 64.453125 32.8125 64.453125 
Q 24.21875 64.453125 20.28125 61.296875 
Q 16.359375 58.15625 16.359375 53.71875 
Q 16.359375 49.859375 19.140625 47.359375 
Q 21.875 44.875 33.421875 42.265625 
Q 44.96875 39.65625 49.265625 37.703125 
Q 55.515625 34.8125 58.484375 30.390625 
Q 61.46875 25.984375 61.46875 20.21875 
Q 61.46875 14.5 58.203125 9.4375 
Q 54.9375 4.390625 48.796875 1.578125 
Q 42.671875 -1.21875 35.015625 -1.21875 
Q 25.296875 -1.21875 18.71875 1.609375 
Q 12.15625 4.4375 8.421875 10.125 
Q 4.6875 15.828125 4.5 23 
" id="ArialMT-53"/>
      <path d="M 6.59375 0 
L 6.59375 71.578125 
L 15.375 71.578125 
L 15.375 45.90625 
Q 21.53125 53.03125 30.90625 53.03125 
Q 36.671875 53.03125 40.921875 50.75 
Q 45.171875 48.484375 47 44.484375 
Q 48.828125 40.484375 48.828125 32.859375 
L 48.828125 0 
L 40.046875 0 
L 40.046875 32.859375 
Q 40.046875 39.453125 37.1875 42.453125 
Q 34.328125 45.453125 29.109375 45.453125 
Q 25.203125 45.453125 21.75 43.421875 
Q 18.3125 41.40625 16.84375 37.9375 
Q 15.375 34.46875 15.375 28.375 
L 15.375 0 
z
" id="ArialMT-68"/>
      <path d="M 42.09375 16.703125 
L 51.171875 15.578125 
Q 49.03125 7.625 43.21875 3.21875 
Q 37.40625 -1.171875 28.375 -1.171875 
Q 17 -1.171875 10.328125 5.828125 
Q 3.65625 12.84375 3.65625 25.484375 
Q 3.65625 38.578125 10.390625 45.796875 
Q 17.140625 53.03125 27.875 53.03125 
Q 38.28125 53.03125 44.875 45.953125 
Q 51.46875 38.875 51.46875 26.03125 
Q 51.46875 25.25 51.421875 23.6875 
L 12.75 23.6875 
Q 13.234375 15.140625 17.578125 10.59375 
Q 21.921875 6.0625 28.421875 6.0625 
Q 33.25 6.0625 36.671875 8.59375 
Q 40.09375 11.140625 42.09375 16.703125 
M 13.234375 30.90625 
L 42.1875 30.90625 
Q 41.609375 37.453125 38.875 40.71875 
Q 34.671875 45.796875 27.984375 45.796875 
Q 21.921875 45.796875 17.796875 41.75 
Q 13.671875 37.703125 13.234375 30.90625 
" id="ArialMT-65"/>
      <path d="M 0 -1.21875 
L 20.75 72.796875 
L 27.78125 72.796875 
L 7.078125 -1.21875 
z
" id="ArialMT-2f"/>
      <path d="M 8.6875 0 
L 8.6875 45.015625 
L 0.921875 45.015625 
L 0.921875 51.859375 
L 8.6875 51.859375 
L 8.6875 57.375 
Q 8.6875 62.59375 9.625 65.140625 
Q 10.890625 68.5625 14.078125 70.671875 
Q 17.28125 72.796875 23.046875 72.796875 
Q 26.765625 72.796875 31.25 71.921875 
L 29.9375 64.265625 
Q 27.203125 64.75 24.75 64.75 
Q 20.75 64.75 19.09375 63.03125 
Q 17.4375 61.328125 17.4375 56.640625 
L 17.4375 51.859375 
L 27.546875 51.859375 
L 27.546875 45.015625 
L 17.4375 45.015625 
L 17.4375 0 
z
" id="ArialMT-66"/>
      <path d="M 6.640625 61.46875 
L 6.640625 71.578125 
L 15.4375 71.578125 
L 15.4375 61.46875 
z
M 6.640625 0 
L 6.640625 51.859375 
L 15.4375 51.859375 
L 15.4375 0 
z
" id="ArialMT-69"/>
      <path d="M 6.59375 0 
L 6.59375 51.859375 
L 14.5 51.859375 
L 14.5 44.484375 
Q 20.21875 53.03125 31 53.03125 
Q 35.6875 53.03125 39.625 51.34375 
Q 43.5625 49.65625 45.515625 46.921875 
Q 47.46875 44.1875 48.25 40.4375 
Q 48.734375 37.984375 48.734375 31.890625 
L 48.734375 0 
L 39.9375 0 
L 39.9375 31.546875 
Q 39.9375 36.921875 38.90625 39.578125 
Q 37.890625 42.234375 35.28125 43.8125 
Q 32.671875 45.40625 29.15625 45.40625 
Q 23.53125 45.40625 19.453125 41.84375 
Q 15.375 38.28125 15.375 28.328125 
L 15.375 0 
z
" id="ArialMT-6e"/>
      <path d="M 7.421875 0 
L 7.421875 71.578125 
L 21.6875 71.578125 
L 38.625 20.90625 
Q 40.96875 13.8125 42.046875 10.296875 
Q 43.265625 14.203125 45.84375 21.78125 
L 62.984375 71.578125 
L 75.734375 71.578125 
L 75.734375 0 
L 66.609375 0 
L 66.609375 59.90625 
L 45.796875 0 
L 37.25 0 
L 16.546875 60.9375 
L 16.546875 0 
z
" id="ArialMT-4d"/>
      <path d="M 3.328125 25.921875 
Q 3.328125 40.328125 11.328125 47.265625 
Q 18.015625 53.03125 27.640625 53.03125 
Q 38.328125 53.03125 45.109375 46.015625 
Q 51.90625 39.015625 51.90625 26.65625 
Q 51.90625 16.65625 48.90625 10.90625 
Q 45.90625 5.171875 40.15625 2 
Q 34.421875 -1.171875 27.640625 -1.171875 
Q 16.75 -1.171875 10.03125 5.8125 
Q 3.328125 12.796875 3.328125 25.921875 
M 12.359375 25.921875 
Q 12.359375 15.96875 16.703125 11.015625 
Q 21.046875 6.0625 27.640625 6.0625 
Q 34.1875 6.0625 38.53125 11.03125 
Q 42.875 16.015625 42.875 26.21875 
Q 42.875 35.84375 38.5 40.796875 
Q 34.125 45.75 27.640625 45.75 
Q 21.046875 45.75 16.703125 40.8125 
Q 12.359375 35.890625 12.359375 25.921875 
" id="ArialMT-6f"/>
     </defs>
     <g style="fill:#262626;" transform="translate(281.68578125 319.925625)scale(0.11 -0.11)">
      <use xlink:href="#ArialMT-4c"/>
      <use x="55.615234375" xlink:href="#ArialMT-65"/>
      <use x="111.23046875" xlink:href="#ArialMT-6e"/>
      <use x="166.845703125" xlink:href="#ArialMT-67"/>
      <use x="222.4609375" xlink:href="#ArialMT-74"/>
      <use x="250.244140625" xlink:href="#ArialMT-68"/>
      <use x="305.859375" xlink:href="#ArialMT-20"/>
      <use x="333.642578125" xlink:href="#ArialMT-6f"/>
      <use x="389.2578125" xlink:href="#ArialMT-66"/>
      <use x="417.041015625" xlink:href="#ArialMT-20"/>
      <use x="444.82421875" xlink:href="#ArialMT-53"/>
      <use x="511.5234375" xlink:href="#ArialMT-65"/>
      <use x="567.138671875" xlink:href="#ArialMT-74"/>
      <use x="594.921875" xlink:href="#ArialMT-20"/>
      <use x="622.705078125" xlink:href="#ArialMT-2f"/>
      <use x="650.48828125" xlink:href="#ArialMT-20"/>
      <use x="678.271484375" xlink:href="#ArialMT-4d"/>
      <use x="761.572265625" xlink:href="#ArialMT-69"/>
      <use x="783.7890625" xlink:href="#ArialMT-6e"/>
     </g>
    </g>
   </g>
   <g id="matplotlib.axis_2">
    <g id="ytick_1">
     <g id="line2d_25">
      <path clip-path="url(#p5e8c02fc12)" d="M 48.849687 290.772656 
L 606.849687 290.772656 
" style="fill:none;stroke:#ffffff;stroke-linecap:round;"/>
     </g>
     <g id="line2d_26">
      <g>
       <use style="fill:#262626;stroke:#262626;" x="48.8496875" xlink:href="#mf344beafa8" y="290.77265625"/>
      </g>
     </g>
     <g id="line2d_27">
      <g>
       <use style="fill:#262626;stroke:#262626;" x="606.8496875" xlink:href="#mf344beafa8" y="290.77265625"/>
      </g>
     </g>
     <g id="text_10">
      <!-- 0.00 -->
      <defs>
       <path d="M 9.078125 0 
L 9.078125 10.015625 
L 19.09375 10.015625 
L 19.09375 0 
z
" id="ArialMT-2e"/>
      </defs>
      <g style="fill:#262626;" transform="translate(22.38875 293.3578125)scale(0.1 -0.1)">
       <use xlink:href="#ArialMT-30"/>
       <use x="55.615234375" xlink:href="#ArialMT-2e"/>
       <use x="83.3984375" xlink:href="#ArialMT-30"/>
       <use x="139.013671875" xlink:href="#ArialMT-30"/>
      </g>
     </g>
    </g>
    <g id="ytick_2">
     <g id="line2d_28">
      <path clip-path="url(#p5e8c02fc12)" d="M 48.849687 259.772656 
L 606.849687 259.772656 
" style="fill:none;stroke:#ffffff;stroke-linecap:round;"/>
     </g>
     <g id="line2d_29">
      <g>
       <use style="fill:#262626;stroke:#262626;" x="48.8496875" xlink:href="#mf344beafa8" y="259.77265625"/>
      </g>
     </g>
     <g id="line2d_30">
      <g>
       <use style="fill:#262626;stroke:#262626;" x="606.8496875" xlink:href="#mf344beafa8" y="259.77265625"/>
      </g>
     </g>
     <g id="text_11">
      <!-- 0.02 -->
      <g style="fill:#262626;" transform="translate(22.38875 262.3578125)scale(0.1 -0.1)">
       <use xlink:href="#ArialMT-30"/>
       <use x="55.615234375" xlink:href="#ArialMT-2e"/>
       <use x="83.3984375" xlink:href="#ArialMT-30"/>
       <use x="139.013671875" xlink:href="#ArialMT-32"/>
      </g>
     </g>
    </g>
    <g id="ytick_3">
     <g id="line2d_31">
      <path clip-path="url(#p5e8c02fc12)" d="M 48.849687 228.772656 
L 606.849687 228.772656 
" style="fill:none;stroke:#ffffff;stroke-linecap:round;"/>
     </g>
     <g id="line2d_32">
      <g>
       <use style="fill:#262626;stroke:#262626;" x="48.8496875" xlink:href="#mf344beafa8" y="228.77265625"/>
      </g>
     </g>
     <g id="line2d_33">
      <g>
       <use style="fill:#262626;stroke:#262626;" x="606.8496875" xlink:href="#mf344beafa8" y="228.77265625"/>
      </g>
     </g>
     <g id="text_12">
      <!-- 0.04 -->
      <g style="fill:#262626;" transform="translate(22.38875 231.3578125)scale(0.1 -0.1)">
       <use xlink:href="#ArialMT-30"/>
       <use x="55.615234375" xlink:href="#ArialMT-2e"/>
       <use x="83.3984375" xlink:href="#ArialMT-30"/>
       <use x="139.013671875" xlink:href="#ArialMT-34"/>
      </g>
     </g>
    </g>
    <g id="ytick_4">
     <g id="line2d_34">
      <path clip-path="url(#p5e8c02fc12)" d="M 48.849687 197.772656 
L 606.849687 197.772656 
" style="fill:none;stroke:#ffffff;stroke-linecap:round;"/>
     </g>
     <g id="line2d_35">
      <g>
       <use style="fill:#262626;stroke:#262626;" x="48.8496875" xlink:href="#mf344beafa8" y="197.77265625"/>
      </g>
     </g>
     <g id="line2d_36">
      <g>
       <use style="fill:#262626;stroke:#262626;" x="606.8496875" xlink:href="#mf344beafa8" y="197.77265625"/>
      </g>
     </g>
     <g id="text_13">
      <!-- 0.06 -->
      <g style="fill:#262626;" transform="translate(22.38875 200.3578125)scale(0.1 -0.1)">
       <use xlink:href="#ArialMT-30"/>
       <use x="55.615234375" xlink:href="#ArialMT-2e"/>
       <use x="83.3984375" xlink:href="#ArialMT-30"/>
       <use x="139.013671875" xlink:href="#ArialMT-36"/>
      </g>
     </g>
    </g>
    <g id="ytick_5">
     <g id="line2d_37">
      <path clip-path="url(#p5e8c02fc12)" d="M 48.849687 166.772656 
L 606.849687 166.772656 
" style="fill:none;stroke:#ffffff;stroke-linecap:round;"/>
     </g>
     <g id="line2d_38">
      <g>
       <use style="fill:#262626;stroke:#262626;" x="48.8496875" xlink:href="#mf344beafa8" y="166.77265625"/>
      </g>
     </g>
     <g id="line2d_39">
      <g>
       <use style="fill:#262626;stroke:#262626;" x="606.8496875" xlink:href="#mf344beafa8" y="166.77265625"/>
      </g>
     </g>
     <g id="text_14">
      <!-- 0.08 -->
      <g style="fill:#262626;" transform="translate(22.38875 169.3578125)scale(0.1 -0.1)">
       <use xlink:href="#ArialMT-30"/>
       <use x="55.615234375" xlink:href="#ArialMT-2e"/>
       <use x="83.3984375" xlink:href="#ArialMT-30"/>
       <use x="139.013671875" xlink:href="#ArialMT-38"/>
      </g>
     </g>
    </g>
    <g id="ytick_6">
     <g id="line2d_40">
      <path clip-path="url(#p5e8c02fc12)" d="M 48.849687 135.772656 
L 606.849687 135.772656 
" style="fill:none;stroke:#ffffff;stroke-linecap:round;"/>
     </g>
     <g id="line2d_41">
      <g>
       <use style="fill:#262626;stroke:#262626;" x="48.8496875" xlink:href="#mf344beafa8" y="135.77265625"/>
      </g>
     </g>
     <g id="line2d_42">
      <g>
       <use style="fill:#262626;stroke:#262626;" x="606.8496875" xlink:href="#mf344beafa8" y="135.77265625"/>
      </g>
     </g>
     <g id="text_15">
      <!-- 0.10 -->
      <g style="fill:#262626;" transform="translate(22.38875 138.3578125)scale(0.1 -0.1)">
       <use xlink:href="#ArialMT-30"/>
       <use x="55.615234375" xlink:href="#ArialMT-2e"/>
       <use x="83.3984375" xlink:href="#ArialMT-31"/>
       <use x="139.013671875" xlink:href="#ArialMT-30"/>
      </g>
     </g>
    </g>
    <g id="ytick_7">
     <g id="line2d_43">
      <path clip-path="url(#p5e8c02fc12)" d="M 48.849687 104.772656 
L 606.849687 104.772656 
" style="fill:none;stroke:#ffffff;stroke-linecap:round;"/>
     </g>
     <g id="line2d_44">
      <g>
       <use style="fill:#262626;stroke:#262626;" x="48.8496875" xlink:href="#mf344beafa8" y="104.77265625"/>
      </g>
     </g>
     <g id="line2d_45">
      <g>
       <use style="fill:#262626;stroke:#262626;" x="606.8496875" xlink:href="#mf344beafa8" y="104.77265625"/>
      </g>
     </g>
     <g id="text_16">
      <!-- 0.12 -->
      <g style="fill:#262626;" transform="translate(22.38875 107.3578125)scale(0.1 -0.1)">
       <use xlink:href="#ArialMT-30"/>
       <use x="55.615234375" xlink:href="#ArialMT-2e"/>
       <use x="83.3984375" xlink:href="#ArialMT-31"/>
       <use x="139.013671875" xlink:href="#ArialMT-32"/>
      </g>
     </g>
    </g>
    <g id="ytick_8">
     <g id="line2d_46">
      <path clip-path="url(#p5e8c02fc12)" d="M 48.849687 73.772656 
L 606.849687 73.772656 
" style="fill:none;stroke:#ffffff;stroke-linecap:round;"/>
     </g>
     <g id="line2d_47">
      <g>
       <use style="fill:#262626;stroke:#262626;" x="48.8496875" xlink:href="#mf344beafa8" y="73.77265625"/>
      </g>
     </g>
     <g id="line2d_48">
      <g>
       <use style="fill:#262626;stroke:#262626;" x="606.8496875" xlink:href="#mf344beafa8" y="73.77265625"/>
      </g>
     </g>
     <g id="text_17">
      <!-- 0.14 -->
      <g style="fill:#262626;" transform="translate(22.38875 76.3578125)scale(0.1 -0.1)">
       <use xlink:href="#ArialMT-30"/>
       <use x="55.615234375" xlink:href="#ArialMT-2e"/>
       <use x="83.3984375" xlink:href="#ArialMT-31"/>
       <use x="139.013671875" xlink:href="#ArialMT-34"/>
      </g>
     </g>
    </g>
    <g id="ytick_9">
     <g id="line2d_49">
      <path clip-path="url(#p5e8c02fc12)" d="M 48.849687 42.772656 
L 606.849687 42.772656 
" style="fill:none;stroke:#ffffff;stroke-linecap:round;"/>
     </g>
     <g id="line2d_50">
      <g>
       <use style="fill:#262626;stroke:#262626;" x="48.8496875" xlink:href="#mf344beafa8" y="42.77265625"/>
      </g>
     </g>
     <g id="line2d_51">
      <g>
       <use style="fill:#262626;stroke:#262626;" x="606.8496875" xlink:href="#mf344beafa8" y="42.77265625"/>
      </g>
     </g>
     <g id="text_18">
      <!-- 0.16 -->
      <g style="fill:#262626;" transform="translate(22.38875 45.3578125)scale(0.1 -0.1)">
       <use xlink:href="#ArialMT-30"/>
       <use x="55.615234375" xlink:href="#ArialMT-2e"/>
       <use x="83.3984375" xlink:href="#ArialMT-31"/>
       <use x="139.013671875" xlink:href="#ArialMT-36"/>
      </g>
     </g>
    </g>
    <g id="ytick_10">
     <g id="line2d_52">
      <path clip-path="url(#p5e8c02fc12)" d="M 48.849687 11.772656 
L 606.849687 11.772656 
" style="fill:none;stroke:#ffffff;stroke-linecap:round;"/>
     </g>
     <g id="line2d_53">
      <g>
       <use style="fill:#262626;stroke:#262626;" x="48.8496875" xlink:href="#mf344beafa8" y="11.77265625"/>
      </g>
     </g>
     <g id="line2d_54">
      <g>
       <use style="fill:#262626;stroke:#262626;" x="606.8496875" xlink:href="#mf344beafa8" y="11.77265625"/>
      </g>
     </g>
     <g id="text_19">
      <!-- 0.18 -->
      <g style="fill:#262626;" transform="translate(22.38875 14.3578125)scale(0.1 -0.1)">
       <use xlink:href="#ArialMT-30"/>
       <use x="55.615234375" xlink:href="#ArialMT-2e"/>
       <use x="83.3984375" xlink:href="#ArialMT-31"/>
       <use x="139.013671875" xlink:href="#ArialMT-38"/>
      </g>
     </g>
    </g>
    <g id="text_20">
     <!-- Density -->
     <defs>
      <path d="M 7.71875 0 
L 7.71875 71.578125 
L 32.375 71.578125 
Q 40.71875 71.578125 45.125 70.5625 
Q 51.265625 69.140625 55.609375 65.4375 
Q 61.28125 60.640625 64.078125 53.1875 
Q 66.890625 45.75 66.890625 36.1875 
Q 66.890625 28.03125 64.984375 21.734375 
Q 63.09375 15.4375 60.109375 11.296875 
Q 57.125 7.171875 53.578125 4.796875 
Q 50.046875 2.4375 45.046875 1.21875 
Q 40.046875 0 33.546875 0 
z
M 17.1875 8.453125 
L 32.46875 8.453125 
Q 39.546875 8.453125 43.578125 9.765625 
Q 47.609375 11.078125 50 13.484375 
Q 53.375 16.84375 55.25 22.53125 
Q 57.125 28.21875 57.125 36.328125 
Q 57.125 47.5625 53.4375 53.59375 
Q 49.75 59.625 44.484375 61.671875 
Q 40.671875 63.140625 32.234375 63.140625 
L 17.1875 63.140625 
z
" id="ArialMT-44"/>
      <path d="M 6.203125 -19.96875 
L 5.21875 -11.71875 
Q 8.109375 -12.5 10.25 -12.5 
Q 13.1875 -12.5 14.9375 -11.515625 
Q 16.703125 -10.546875 17.828125 -8.796875 
Q 18.65625 -7.46875 20.515625 -2.25 
Q 20.75 -1.515625 21.296875 -0.09375 
L 1.609375 51.859375 
L 11.078125 51.859375 
L 21.875 21.828125 
Q 23.96875 16.109375 25.640625 9.8125 
Q 27.15625 15.875 29.25 21.625 
L 40.328125 51.859375 
L 49.125 51.859375 
L 29.390625 -0.875 
Q 26.21875 -9.421875 24.46875 -12.640625 
Q 22.125 -17 19.09375 -19.015625 
Q 16.0625 -21.046875 11.859375 -21.046875 
Q 9.328125 -21.046875 6.203125 -19.96875 
" id="ArialMT-79"/>
      <path d="M 3.078125 15.484375 
L 11.765625 16.84375 
Q 12.5 11.625 15.84375 8.84375 
Q 19.1875 6.0625 25.203125 6.0625 
Q 31.25 6.0625 34.171875 8.515625 
Q 37.109375 10.984375 37.109375 14.3125 
Q 37.109375 17.28125 34.515625 19 
Q 32.71875 20.171875 25.53125 21.96875 
Q 15.875 24.421875 12.140625 26.203125 
Q 8.40625 27.984375 6.46875 31.125 
Q 4.546875 34.28125 4.546875 38.09375 
Q 4.546875 41.546875 6.125 44.5 
Q 7.71875 47.46875 10.453125 49.421875 
Q 12.5 50.921875 16.03125 51.96875 
Q 19.578125 53.03125 23.640625 53.03125 
Q 29.734375 53.03125 34.34375 51.265625 
Q 38.96875 49.515625 41.15625 46.5 
Q 43.359375 43.5 44.1875 38.484375 
L 35.59375 37.3125 
Q 35.015625 41.3125 32.203125 43.546875 
Q 29.390625 45.796875 24.265625 45.796875 
Q 18.21875 45.796875 15.625 43.796875 
Q 13.03125 41.796875 13.03125 39.109375 
Q 13.03125 37.40625 14.109375 36.03125 
Q 15.1875 34.625 17.484375 33.6875 
Q 18.796875 33.203125 25.25 31.453125 
Q 34.578125 28.953125 38.25 27.359375 
Q 41.9375 25.78125 44.03125 22.75 
Q 46.140625 19.734375 46.140625 15.234375 
Q 46.140625 10.84375 43.578125 6.953125 
Q 41.015625 3.078125 36.171875 0.953125 
Q 31.34375 -1.171875 25.25 -1.171875 
Q 15.140625 -1.171875 9.84375 3.03125 
Q 4.546875 7.234375 3.078125 15.484375 
" id="ArialMT-73"/>
     </defs>
     <g style="fill:#262626;" transform="translate(15.07359375 169.61171875)rotate(-90.0)scale(0.11 -0.11)">
      <use xlink:href="#ArialMT-44"/>
      <use x="72.216796875" xlink:href="#ArialMT-65"/>
      <use x="127.83203125" xlink:href="#ArialMT-6e"/>
      <use x="183.447265625" xlink:href="#ArialMT-73"/>
      <use x="233.447265625" xlink:href="#ArialMT-69"/>
      <use x="255.6640625" xlink:href="#ArialMT-74"/>
      <use x="283.447265625" xlink:href="#ArialMT-79"/>
     </g>
    </g>
   </g>
   <g id="patch_3">
    <path clip-path="url(#p5e8c02fc12)" d="M 88.70683 290.772656 
L 98.591402 290.772656 
L 98.591402 288.807247 
L 88.70683 288.807247 
z
" style="fill:#55a868;opacity:0.4;stroke:#000000;stroke-linejoin:miter;stroke-width:0.3;"/>
   </g>
   <g id="patch_4">
    <path clip-path="url(#p5e8c02fc12)" d="M 98.591402 290.772656 
L 108.475973 290.772656 
L 108.475973 290.772656 
L 98.591402 290.772656 
z
" style="fill:#55a868;opacity:0.4;stroke:#000000;stroke-linejoin:miter;stroke-width:0.3;"/>
   </g>
   <g id="patch_5">
    <path clip-path="url(#p5e8c02fc12)" d="M 108.475973 290.772656 
L 118.360545 290.772656 
L 118.360545 290.772656 
L 108.475973 290.772656 
z
" style="fill:#55a868;opacity:0.4;stroke:#000000;stroke-linejoin:miter;stroke-width:0.3;"/>
   </g>
   <g id="patch_6">
    <path clip-path="url(#p5e8c02fc12)" d="M 118.360545 290.772656 
L 128.245116 290.772656 
L 128.245116 290.772656 
L 118.360545 290.772656 
z
" style="fill:#55a868;opacity:0.4;stroke:#000000;stroke-linejoin:miter;stroke-width:0.3;"/>
   </g>
   <g id="patch_7">
    <path clip-path="url(#p5e8c02fc12)" d="M 128.245116 290.772656 
L 138.129687 290.772656 
L 138.129687 289.462384 
L 128.245116 289.462384 
z
" style="fill:#55a868;opacity:0.4;stroke:#000000;stroke-linejoin:miter;stroke-width:0.3;"/>
   </g>
   <g id="patch_8">
    <path clip-path="url(#p5e8c02fc12)" d="M 138.129687 290.772656 
L 148.014259 290.772656 
L 148.014259 290.772656 
L 138.129687 290.772656 
z
" style="fill:#55a868;opacity:0.4;stroke:#000000;stroke-linejoin:miter;stroke-width:0.3;"/>
   </g>
   <g id="patch_9">
    <path clip-path="url(#p5e8c02fc12)" d="M 148.014259 290.772656 
L 157.89883 290.772656 
L 157.89883 288.807247 
L 148.014259 288.807247 
z
" style="fill:#55a868;opacity:0.4;stroke:#000000;stroke-linejoin:miter;stroke-width:0.3;"/>
   </g>
   <g id="patch_10">
    <path clip-path="url(#p5e8c02fc12)" d="M 157.89883 290.772656 
L 167.783402 290.772656 
L 167.783402 289.462384 
L 157.89883 289.462384 
z
" style="fill:#55a868;opacity:0.4;stroke:#000000;stroke-linejoin:miter;stroke-width:0.3;"/>
   </g>
   <g id="patch_11">
    <path clip-path="url(#p5e8c02fc12)" d="M 167.783402 290.772656 
L 177.667973 290.772656 
L 177.667973 283.566157 
L 167.783402 283.566157 
z
" style="fill:#55a868;opacity:0.4;stroke:#000000;stroke-linejoin:miter;stroke-width:0.3;"/>
   </g>
   <g id="patch_12">
    <path clip-path="url(#p5e8c02fc12)" d="M 177.667973 290.772656 
L 187.552545 290.772656 
L 187.552545 288.152111 
L 177.667973 288.152111 
z
" style="fill:#55a868;opacity:0.4;stroke:#000000;stroke-linejoin:miter;stroke-width:0.3;"/>
   </g>
   <g id="patch_13">
    <path clip-path="url(#p5e8c02fc12)" d="M 187.552545 290.772656 
L 197.437116 290.772656 
L 197.437116 288.152111 
L 187.552545 288.152111 
z
" style="fill:#55a868;opacity:0.4;stroke:#000000;stroke-linejoin:miter;stroke-width:0.3;"/>
   </g>
   <g id="patch_14">
    <path clip-path="url(#p5e8c02fc12)" d="M 197.437116 290.772656 
L 207.321687 290.772656 
L 207.321687 290.11752 
L 197.437116 290.11752 
z
" style="fill:#55a868;opacity:0.4;stroke:#000000;stroke-linejoin:miter;stroke-width:0.3;"/>
   </g>
   <g id="patch_15">
    <path clip-path="url(#p5e8c02fc12)" d="M 207.321687 290.772656 
L 217.206259 290.772656 
L 217.206259 286.186702 
L 207.321687 286.186702 
z
" style="fill:#55a868;opacity:0.4;stroke:#000000;stroke-linejoin:miter;stroke-width:0.3;"/>
   </g>
   <g id="patch_16">
    <path clip-path="url(#p5e8c02fc12)" d="M 217.206259 290.772656 
L 227.09083 290.772656 
L 227.09083 287.496975 
L 217.206259 287.496975 
z
" style="fill:#55a868;opacity:0.4;stroke:#000000;stroke-linejoin:miter;stroke-width:0.3;"/>
   </g>
   <g id="patch_17">
    <path clip-path="url(#p5e8c02fc12)" d="M 227.09083 290.772656 
L 236.975402 290.772656 
L 236.975402 280.290476 
L 227.09083 280.290476 
z
" style="fill:#55a868;opacity:0.4;stroke:#000000;stroke-linejoin:miter;stroke-width:0.3;"/>
   </g>
   <g id="patch_18">
    <path clip-path="url(#p5e8c02fc12)" d="M 236.975402 290.772656 
L 246.859973 290.772656 
L 246.859973 286.841839 
L 236.975402 286.841839 
z
" style="fill:#55a868;opacity:0.4;stroke:#000000;stroke-linejoin:miter;stroke-width:0.3;"/>
   </g>
   <g id="patch_19">
    <path clip-path="url(#p5e8c02fc12)" d="M 246.859973 290.772656 
L 256.744545 290.772656 
L 256.744545 272.428841 
L 246.859973 272.428841 
z
" style="fill:#55a868;opacity:0.4;stroke:#000000;stroke-linejoin:miter;stroke-width:0.3;"/>
   </g>
   <g id="patch_20">
    <path clip-path="url(#p5e8c02fc12)" d="M 256.744545 290.772656 
L 266.629116 290.772656 
L 266.629116 271.773704 
L 256.744545 271.773704 
z
" style="fill:#55a868;opacity:0.4;stroke:#000000;stroke-linejoin:miter;stroke-width:0.3;"/>
   </g>
   <g id="patch_21">
    <path clip-path="url(#p5e8c02fc12)" d="M 266.629116 290.772656 
L 276.513688 290.772656 
L 276.513688 238.361755 
L 266.629116 238.361755 
z
" style="fill:#55a868;opacity:0.4;stroke:#000000;stroke-linejoin:miter;stroke-width:0.3;"/>
   </g>
   <g id="patch_22">
    <path clip-path="url(#p5e8c02fc12)" d="M 276.513688 290.772656 
L 286.398259 290.772656 
L 286.398259 227.224438 
L 276.513688 227.224438 
z
" style="fill:#55a868;opacity:0.4;stroke:#000000;stroke-linejoin:miter;stroke-width:0.3;"/>
   </g>
   <g id="patch_23">
    <path clip-path="url(#p5e8c02fc12)" d="M 286.398259 290.772656 
L 296.28283 290.772656 
L 296.28283 37.890057 
L 286.398259 37.890057 
z
" style="fill:#55a868;opacity:0.4;stroke:#000000;stroke-linejoin:miter;stroke-width:0.3;"/>
   </g>
   <g id="patch_24">
    <path clip-path="url(#p5e8c02fc12)" d="M 296.28283 290.772656 
L 306.167402 290.772656 
L 306.167402 258.670979 
L 296.28283 258.670979 
z
" style="fill:#55a868;opacity:0.4;stroke:#000000;stroke-linejoin:miter;stroke-width:0.3;"/>
   </g>
   <g id="patch_25">
    <path clip-path="url(#p5e8c02fc12)" d="M 306.167402 290.772656 
L 316.051973 290.772656 
L 316.051973 273.739113 
L 306.167402 273.739113 
z
" style="fill:#55a868;opacity:0.4;stroke:#000000;stroke-linejoin:miter;stroke-width:0.3;"/>
   </g>
   <g id="patch_26">
    <path clip-path="url(#p5e8c02fc12)" d="M 316.051973 290.772656 
L 325.936545 290.772656 
L 325.936545 282.255885 
L 316.051973 282.255885 
z
" style="fill:#55a868;opacity:0.4;stroke:#000000;stroke-linejoin:miter;stroke-width:0.3;"/>
   </g>
   <g id="patch_27">
    <path clip-path="url(#p5e8c02fc12)" d="M 325.936545 290.772656 
L 335.821116 290.772656 
L 335.821116 284.221294 
L 325.936545 284.221294 
z
" style="fill:#55a868;opacity:0.4;stroke:#000000;stroke-linejoin:miter;stroke-width:0.3;"/>
   </g>
   <g id="patch_28">
    <path clip-path="url(#p5e8c02fc12)" d="M 335.821116 290.772656 
L 345.705688 290.772656 
L 345.705688 281.600748 
L 335.821116 281.600748 
z
" style="fill:#55a868;opacity:0.4;stroke:#000000;stroke-linejoin:miter;stroke-width:0.3;"/>
   </g>
   <g id="patch_29">
    <path clip-path="url(#p5e8c02fc12)" d="M 345.705688 290.772656 
L 355.590259 290.772656 
L 355.590259 286.841839 
L 345.705688 286.841839 
z
" style="fill:#55a868;opacity:0.4;stroke:#000000;stroke-linejoin:miter;stroke-width:0.3;"/>
   </g>
   <g id="patch_30">
    <path clip-path="url(#p5e8c02fc12)" d="M 355.590259 290.772656 
L 365.47483 290.772656 
L 365.47483 280.945612 
L 355.590259 280.945612 
z
" style="fill:#55a868;opacity:0.4;stroke:#000000;stroke-linejoin:miter;stroke-width:0.3;"/>
   </g>
   <g id="patch_31">
    <path clip-path="url(#p5e8c02fc12)" d="M 365.47483 290.772656 
L 375.359402 290.772656 
L 375.359402 284.87643 
L 365.47483 284.87643 
z
" style="fill:#55a868;opacity:0.4;stroke:#000000;stroke-linejoin:miter;stroke-width:0.3;"/>
   </g>
   <g id="patch_32">
    <path clip-path="url(#p5e8c02fc12)" d="M 375.359402 290.772656 
L 385.243973 290.772656 
L 385.243973 287.496975 
L 375.359402 287.496975 
z
" style="fill:#55a868;opacity:0.4;stroke:#000000;stroke-linejoin:miter;stroke-width:0.3;"/>
   </g>
   <g id="patch_33">
    <path clip-path="url(#p5e8c02fc12)" d="M 385.243973 290.772656 
L 395.128545 290.772656 
L 395.128545 288.807247 
L 385.243973 288.807247 
z
" style="fill:#55a868;opacity:0.4;stroke:#000000;stroke-linejoin:miter;stroke-width:0.3;"/>
   </g>
   <g id="patch_34">
    <path clip-path="url(#p5e8c02fc12)" d="M 395.128545 290.772656 
L 405.013116 290.772656 
L 405.013116 284.87643 
L 395.128545 284.87643 
z
" style="fill:#55a868;opacity:0.4;stroke:#000000;stroke-linejoin:miter;stroke-width:0.3;"/>
   </g>
   <g id="patch_35">
    <path clip-path="url(#p5e8c02fc12)" d="M 405.013116 290.772656 
L 414.897688 290.772656 
L 414.897688 288.152111 
L 405.013116 288.152111 
z
" style="fill:#55a868;opacity:0.4;stroke:#000000;stroke-linejoin:miter;stroke-width:0.3;"/>
   </g>
   <g id="patch_36">
    <path clip-path="url(#p5e8c02fc12)" d="M 414.897688 290.772656 
L 424.782259 290.772656 
L 424.782259 289.462384 
L 414.897688 289.462384 
z
" style="fill:#55a868;opacity:0.4;stroke:#000000;stroke-linejoin:miter;stroke-width:0.3;"/>
   </g>
   <g id="patch_37">
    <path clip-path="url(#p5e8c02fc12)" d="M 424.782259 290.772656 
L 434.66683 290.772656 
L 434.66683 289.462384 
L 424.782259 289.462384 
z
" style="fill:#55a868;opacity:0.4;stroke:#000000;stroke-linejoin:miter;stroke-width:0.3;"/>
   </g>
   <g id="patch_38">
    <path clip-path="url(#p5e8c02fc12)" d="M 434.66683 290.772656 
L 444.551402 290.772656 
L 444.551402 289.462384 
L 434.66683 289.462384 
z
" style="fill:#55a868;opacity:0.4;stroke:#000000;stroke-linejoin:miter;stroke-width:0.3;"/>
   </g>
   <g id="patch_39">
    <path clip-path="url(#p5e8c02fc12)" d="M 444.551402 290.772656 
L 454.435973 290.772656 
L 454.435973 290.11752 
L 444.551402 290.11752 
z
" style="fill:#55a868;opacity:0.4;stroke:#000000;stroke-linejoin:miter;stroke-width:0.3;"/>
   </g>
   <g id="patch_40">
    <path clip-path="url(#p5e8c02fc12)" d="M 454.435973 290.772656 
L 464.320545 290.772656 
L 464.320545 290.11752 
L 454.435973 290.11752 
z
" style="fill:#55a868;opacity:0.4;stroke:#000000;stroke-linejoin:miter;stroke-width:0.3;"/>
   </g>
   <g id="patch_41">
    <path clip-path="url(#p5e8c02fc12)" d="M 464.320545 290.772656 
L 474.205116 290.772656 
L 474.205116 290.772656 
L 464.320545 290.772656 
z
" style="fill:#55a868;opacity:0.4;stroke:#000000;stroke-linejoin:miter;stroke-width:0.3;"/>
   </g>
   <g id="patch_42">
    <path clip-path="url(#p5e8c02fc12)" d="M 474.205116 290.772656 
L 484.089688 290.772656 
L 484.089688 290.11752 
L 474.205116 290.11752 
z
" style="fill:#55a868;opacity:0.4;stroke:#000000;stroke-linejoin:miter;stroke-width:0.3;"/>
   </g>
   <g id="patch_43">
    <path clip-path="url(#p5e8c02fc12)" d="M 484.089688 290.772656 
L 493.974259 290.772656 
L 493.974259 289.462384 
L 484.089688 289.462384 
z
" style="fill:#55a868;opacity:0.4;stroke:#000000;stroke-linejoin:miter;stroke-width:0.3;"/>
   </g>
   <g id="patch_44">
    <path clip-path="url(#p5e8c02fc12)" d="M 493.974259 290.772656 
L 503.85883 290.772656 
L 503.85883 290.11752 
L 493.974259 290.11752 
z
" style="fill:#55a868;opacity:0.4;stroke:#000000;stroke-linejoin:miter;stroke-width:0.3;"/>
   </g>
   <g id="patch_45">
    <path clip-path="url(#p5e8c02fc12)" d="M 503.85883 290.772656 
L 513.743402 290.772656 
L 513.743402 289.462384 
L 503.85883 289.462384 
z
" style="fill:#55a868;opacity:0.4;stroke:#000000;stroke-linejoin:miter;stroke-width:0.3;"/>
   </g>
   <g id="patch_46">
    <path clip-path="url(#p5e8c02fc12)" d="M 513.743402 290.772656 
L 523.627973 290.772656 
L 523.627973 283.566157 
L 513.743402 283.566157 
z
" style="fill:#55a868;opacity:0.4;stroke:#000000;stroke-linejoin:miter;stroke-width:0.3;"/>
   </g>
   <g id="patch_47">
    <path clip-path="url(#p5e8c02fc12)" d="M 523.627973 290.772656 
L 533.512545 290.772656 
L 533.512545 240.327164 
L 523.627973 240.327164 
z
" style="fill:#55a868;opacity:0.4;stroke:#000000;stroke-linejoin:miter;stroke-width:0.3;"/>
   </g>
   <g id="patch_48">
    <path clip-path="url(#p5e8c02fc12)" d="M 533.512545 290.772656 
L 543.397116 290.772656 
L 543.397116 288.807247 
L 533.512545 288.807247 
z
" style="fill:#55a868;opacity:0.4;stroke:#000000;stroke-linejoin:miter;stroke-width:0.3;"/>
   </g>
   <g id="patch_49">
    <path clip-path="url(#p5e8c02fc12)" d="M 543.397116 290.772656 
L 553.281687 290.772656 
L 553.281687 290.772656 
L 543.397116 290.772656 
z
" style="fill:#55a868;opacity:0.4;stroke:#000000;stroke-linejoin:miter;stroke-width:0.3;"/>
   </g>
   <g id="patch_50">
    <path clip-path="url(#p5e8c02fc12)" d="M 553.281687 290.772656 
L 563.166259 290.772656 
L 563.166259 290.11752 
L 553.281687 290.11752 
z
" style="fill:#55a868;opacity:0.4;stroke:#000000;stroke-linejoin:miter;stroke-width:0.3;"/>
   </g>
   <g id="patch_51">
    <path clip-path="url(#p5e8c02fc12)" d="M 563.166259 290.772656 
L 573.05083 290.772656 
L 573.05083 290.772656 
L 563.166259 290.772656 
z
" style="fill:#55a868;opacity:0.4;stroke:#000000;stroke-linejoin:miter;stroke-width:0.3;"/>
   </g>
   <g id="patch_52">
    <path clip-path="url(#p5e8c02fc12)" d="M 573.05083 290.772656 
L 582.935402 290.772656 
L 582.935402 290.11752 
L 573.05083 290.11752 
z
" style="fill:#55a868;opacity:0.4;stroke:#000000;stroke-linejoin:miter;stroke-width:0.3;"/>
   </g>
   <g id="line2d_55">
    <path clip-path="url(#p5e8c02fc12)" d="M 88.70683 290.37754 
L 93.729664 290.357305 
L 98.752497 290.34723 
L 103.77533 290.340357 
L 108.798163 290.326799 
L 113.820997 290.295375 
L 118.84383 290.235307 
L 123.866663 290.137577 
L 128.889496 289.995865 
L 133.91233 289.807285 
L 138.935163 289.57323 
L 143.957996 289.300346 
L 148.980829 289.001244 
L 154.003663 288.694193 
L 159.026496 288.401093 
L 164.049329 288.143549 
L 169.072162 287.937706 
L 174.094996 287.789261 
L 179.117829 287.690278 
L 184.140662 287.618947 
L 189.163495 287.542381 
L 194.186329 287.421365 
L 199.209162 287.215104 
L 204.231995 286.883798 
L 209.254828 286.387299 
L 214.277662 285.679062 
L 219.300495 284.695904 
L 224.323328 283.345556 
L 229.346161 281.495749 
L 234.368995 278.970243 
L 239.391828 275.558555 
L 244.414661 271.046002 
L 249.437494 265.267688 
L 254.460328 258.183 
L 259.483161 249.956346 
L 264.505994 241.018524 
L 269.528827 232.077275 
L 274.551661 224.051873 
L 279.574494 217.927595 
L 284.597327 214.556558 
L 289.62016 214.458993 
L 294.642993 217.688798 
L 299.665827 223.811017 
L 304.68866 232.001355 
L 309.711493 241.235014 
L 314.734326 250.503352 
L 319.75716 258.994007 
L 324.779993 266.191747 
L 329.802826 271.890664 
L 334.825659 276.137732 
L 339.848493 279.142454 
L 344.871326 281.185864 
L 349.894159 282.550207 
L 354.916992 283.476468 
L 359.939826 284.146563 
L 364.962659 284.68259 
L 369.985492 285.155686 
L 375.008325 285.599174 
L 380.031159 286.022599 
L 385.053992 286.424352 
L 390.076825 286.801066 
L 395.099658 287.152673 
L 400.122492 287.483149 
L 405.145325 287.798227 
L 410.168158 288.102175 
L 415.190991 288.395578 
L 420.213825 288.67514 
L 425.236658 288.935289 
L 430.259491 289.170483 
L 435.282324 289.376972 
L 440.305158 289.553219 
L 445.327991 289.698926 
L 450.350824 289.813123 
L 455.373657 289.891888 
L 460.396491 289.926034 
L 465.419324 289.898838 
L 470.442157 289.783992 
L 475.46499 289.544496 
L 480.487824 289.134108 
L 485.510657 288.503453 
L 490.53349 287.612322 
L 495.556323 286.447551 
L 500.579157 285.042433 
L 505.60199 283.490419 
L 510.624823 281.944843 
L 515.647656 280.599363 
L 520.67049 279.650457 
L 525.693323 279.251364 
L 530.716156 279.472242 
L 535.738989 280.28083 
L 540.761823 281.550904 
L 545.784656 283.095453 
L 550.807489 284.712529 
L 555.830322 286.228314 
L 560.853156 287.52511 
L 565.875989 288.549369 
L 570.898822 289.302559 
L 575.921655 289.822387 
L 580.944489 290.162558 
L 585.967322 290.376837 
" style="fill:none;stroke:#55a868;stroke-linecap:round;stroke-width:1.75;"/>
   </g>
   <g id="patch_53">
    <path d="M 48.849687 290.772656 
L 48.849687 11.772656 
" style="fill:none;"/>
   </g>
   <g id="patch_54">
    <path d="M 48.849687 11.772656 
L 606.849687 11.772656 
" style="fill:none;"/>
   </g>
   <g id="patch_55">
    <path d="M 606.849687 290.772656 
L 606.849687 11.772656 
" style="fill:none;"/>
   </g>
   <g id="patch_56">
    <path d="M 48.849687 290.772656 
L 606.849687 290.772656 
" style="fill:none;"/>
   </g>
  </g>
 </g>
 <defs>
  <clipPath id="p5e8c02fc12">
   <rect height="279.0" width="558.0" x="48.8496875" y="11.77265625"/>
  </clipPath>
 </defs>
</svg>
