<?xml version="1.0" encoding="utf-8" standalone="no"?>
<!DOCTYPE svg PUBLIC "-//W3C//DTD SVG 1.1//EN"
  "http://www.w3.org/Graphics/SVG/1.1/DTD/svg11.dtd">
<!-- Created with matplotlib (http://matplotlib.org/) -->
<svg height="329pt" version="1.1" viewBox="0 0 627 329" width="627pt" xmlns="http://www.w3.org/2000/svg" xmlns:xlink="http://www.w3.org/1999/xlink">
 <defs>
  <style type="text/css">
*{stroke-linecap:butt;stroke-linejoin:round;stroke-miterlimit:100000;}
  </style>
 </defs>
 <g id="figure_1">
  <g id="patch_1">
   <path d="M 0 329.440781 
L 627.952031 329.440781 
L 627.952031 0 
L 0 0 
z
" style="fill:#ffffff;"/>
  </g>
  <g id="axes_1">
   <g id="patch_2">
    <path d="M 54.410625 290.772656 
L 612.410625 290.772656 
L 612.410625 11.772656 
L 54.410625 11.772656 
z
" style="fill:#eaeaf2;"/>
   </g>
   <g id="matplotlib.axis_1">
    <g id="xtick_1">
     <g id="line2d_1">
      <path clip-path="url(#pc544976978)" d="M 54.410625 290.772656 
L 54.410625 11.772656 
" style="fill:none;stroke:#ffffff;stroke-linecap:round;"/>
     </g>
     <g id="line2d_2">
      <defs>
       <path d="M 0 0 
L 0 0 
" id="m2e65585082" style="stroke:#262626;"/>
      </defs>
      <g>
       <use style="fill:#262626;stroke:#262626;" x="54.410625" xlink:href="#m2e65585082" y="290.77265625"/>
      </g>
     </g>
     <g id="line2d_3">
      <g>
       <use style="fill:#262626;stroke:#262626;" x="54.410625" xlink:href="#m2e65585082" y="11.77265625"/>
      </g>
     </g>
     <g id="text_1">
      <!-- −200 -->
      <defs>
       <path d="M 4.15625 35.296875 
Q 4.15625 48 6.765625 55.734375 
Q 9.375 63.484375 14.515625 67.671875 
Q 19.671875 71.875 27.484375 71.875 
Q 33.25 71.875 37.59375 69.546875 
Q 41.9375 67.234375 44.765625 62.859375 
Q 47.609375 58.5 49.21875 52.21875 
Q 50.828125 45.953125 50.828125 35.296875 
Q 50.828125 22.703125 48.234375 14.96875 
Q 45.65625 7.234375 40.5 3 
Q 35.359375 -1.21875 27.484375 -1.21875 
Q 17.140625 -1.21875 11.234375 6.203125 
Q 4.15625 15.140625 4.15625 35.296875 
M 13.1875 35.296875 
Q 13.1875 17.671875 17.3125 11.828125 
Q 21.4375 6 27.484375 6 
Q 33.546875 6 37.671875 11.859375 
Q 41.796875 17.71875 41.796875 35.296875 
Q 41.796875 52.984375 37.671875 58.78125 
Q 33.546875 64.59375 27.390625 64.59375 
Q 21.34375 64.59375 17.71875 59.46875 
Q 13.1875 52.9375 13.1875 35.296875 
" id="ArialMT-30"/>
       <path d="M 50.34375 8.453125 
L 50.34375 0 
L 3.03125 0 
Q 2.9375 3.171875 4.046875 6.109375 
Q 5.859375 10.9375 9.828125 15.625 
Q 13.8125 20.3125 21.34375 26.46875 
Q 33.015625 36.03125 37.109375 41.625 
Q 41.21875 47.21875 41.21875 52.203125 
Q 41.21875 57.421875 37.46875 61 
Q 33.734375 64.59375 27.734375 64.59375 
Q 21.390625 64.59375 17.578125 60.78125 
Q 13.765625 56.984375 13.71875 50.25 
L 4.6875 51.171875 
Q 5.609375 61.28125 11.65625 66.578125 
Q 17.71875 71.875 27.9375 71.875 
Q 38.234375 71.875 44.234375 66.15625 
Q 50.25 60.453125 50.25 52 
Q 50.25 47.703125 48.484375 43.546875 
Q 46.734375 39.40625 42.65625 34.8125 
Q 38.578125 30.21875 29.109375 22.21875 
Q 21.1875 15.578125 18.9375 13.203125 
Q 16.703125 10.84375 15.234375 8.453125 
z
" id="ArialMT-32"/>
       <path d="M 52.828125 31.203125 
L 5.5625 31.203125 
L 5.5625 39.40625 
L 52.828125 39.40625 
z
" id="ArialMT-2212"/>
      </defs>
      <g style="fill:#262626;" transform="translate(43.14890625 304.93046875)scale(0.1 -0.1)">
       <use xlink:href="#ArialMT-2212"/>
       <use x="58.3984375" xlink:href="#ArialMT-32"/>
       <use x="114.013671875" xlink:href="#ArialMT-30"/>
       <use x="169.62890625" xlink:href="#ArialMT-30"/>
      </g>
     </g>
    </g>
    <g id="xtick_2">
     <g id="line2d_4">
      <path clip-path="url(#pc544976978)" d="M 124.160625 290.772656 
L 124.160625 11.772656 
" style="fill:none;stroke:#ffffff;stroke-linecap:round;"/>
     </g>
     <g id="line2d_5">
      <g>
       <use style="fill:#262626;stroke:#262626;" x="124.160625" xlink:href="#m2e65585082" y="290.77265625"/>
      </g>
     </g>
     <g id="line2d_6">
      <g>
       <use style="fill:#262626;stroke:#262626;" x="124.160625" xlink:href="#m2e65585082" y="11.77265625"/>
      </g>
     </g>
     <g id="text_2">
      <!-- −100 -->
      <defs>
       <path d="M 37.25 0 
L 28.46875 0 
L 28.46875 56 
Q 25.296875 52.984375 20.140625 49.953125 
Q 14.984375 46.921875 10.890625 45.40625 
L 10.890625 53.90625 
Q 18.265625 57.375 23.78125 62.296875 
Q 29.296875 67.234375 31.59375 71.875 
L 37.25 71.875 
z
" id="ArialMT-31"/>
      </defs>
      <g style="fill:#262626;" transform="translate(112.89890625 304.93046875)scale(0.1 -0.1)">
       <use xlink:href="#ArialMT-2212"/>
       <use x="58.3984375" xlink:href="#ArialMT-31"/>
       <use x="114.013671875" xlink:href="#ArialMT-30"/>
       <use x="169.62890625" xlink:href="#ArialMT-30"/>
      </g>
     </g>
    </g>
    <g id="xtick_3">
     <g id="line2d_7">
      <path clip-path="url(#pc544976978)" d="M 193.910625 290.772656 
L 193.910625 11.772656 
" style="fill:none;stroke:#ffffff;stroke-linecap:round;"/>
     </g>
     <g id="line2d_8">
      <g>
       <use style="fill:#262626;stroke:#262626;" x="193.910625" xlink:href="#m2e65585082" y="290.77265625"/>
      </g>
     </g>
     <g id="line2d_9">
      <g>
       <use style="fill:#262626;stroke:#262626;" x="193.910625" xlink:href="#m2e65585082" y="11.77265625"/>
      </g>
     </g>
     <g id="text_3">
      <!-- 0 -->
      <g style="fill:#262626;" transform="translate(191.13015625 304.93046875)scale(0.1 -0.1)">
       <use xlink:href="#ArialMT-30"/>
      </g>
     </g>
    </g>
    <g id="xtick_4">
     <g id="line2d_10">
      <path clip-path="url(#pc544976978)" d="M 263.660625 290.772656 
L 263.660625 11.772656 
" style="fill:none;stroke:#ffffff;stroke-linecap:round;"/>
     </g>
     <g id="line2d_11">
      <g>
       <use style="fill:#262626;stroke:#262626;" x="263.660625" xlink:href="#m2e65585082" y="290.77265625"/>
      </g>
     </g>
     <g id="line2d_12">
      <g>
       <use style="fill:#262626;stroke:#262626;" x="263.660625" xlink:href="#m2e65585082" y="11.77265625"/>
      </g>
     </g>
     <g id="text_4">
      <!-- 100 -->
      <g style="fill:#262626;" transform="translate(255.31921875 304.93046875)scale(0.1 -0.1)">
       <use xlink:href="#ArialMT-31"/>
       <use x="55.615234375" xlink:href="#ArialMT-30"/>
       <use x="111.23046875" xlink:href="#ArialMT-30"/>
      </g>
     </g>
    </g>
    <g id="xtick_5">
     <g id="line2d_13">
      <path clip-path="url(#pc544976978)" d="M 333.410625 290.772656 
L 333.410625 11.772656 
" style="fill:none;stroke:#ffffff;stroke-linecap:round;"/>
     </g>
     <g id="line2d_14">
      <g>
       <use style="fill:#262626;stroke:#262626;" x="333.410625" xlink:href="#m2e65585082" y="290.77265625"/>
      </g>
     </g>
     <g id="line2d_15">
      <g>
       <use style="fill:#262626;stroke:#262626;" x="333.410625" xlink:href="#m2e65585082" y="11.77265625"/>
      </g>
     </g>
     <g id="text_5">
      <!-- 200 -->
      <g style="fill:#262626;" transform="translate(325.06921875 304.93046875)scale(0.1 -0.1)">
       <use xlink:href="#ArialMT-32"/>
       <use x="55.615234375" xlink:href="#ArialMT-30"/>
       <use x="111.23046875" xlink:href="#ArialMT-30"/>
      </g>
     </g>
    </g>
    <g id="xtick_6">
     <g id="line2d_16">
      <path clip-path="url(#pc544976978)" d="M 403.160625 290.772656 
L 403.160625 11.772656 
" style="fill:none;stroke:#ffffff;stroke-linecap:round;"/>
     </g>
     <g id="line2d_17">
      <g>
       <use style="fill:#262626;stroke:#262626;" x="403.160625" xlink:href="#m2e65585082" y="290.77265625"/>
      </g>
     </g>
     <g id="line2d_18">
      <g>
       <use style="fill:#262626;stroke:#262626;" x="403.160625" xlink:href="#m2e65585082" y="11.77265625"/>
      </g>
     </g>
     <g id="text_6">
      <!-- 300 -->
      <defs>
       <path d="M 4.203125 18.890625 
L 12.984375 20.0625 
Q 14.5 12.59375 18.140625 9.296875 
Q 21.78125 6 27 6 
Q 33.203125 6 37.46875 10.296875 
Q 41.75 14.59375 41.75 20.953125 
Q 41.75 27 37.796875 30.921875 
Q 33.84375 34.859375 27.734375 34.859375 
Q 25.25 34.859375 21.53125 33.890625 
L 22.515625 41.609375 
Q 23.390625 41.5 23.921875 41.5 
Q 29.546875 41.5 34.03125 44.421875 
Q 38.53125 47.359375 38.53125 53.46875 
Q 38.53125 58.296875 35.25 61.46875 
Q 31.984375 64.65625 26.8125 64.65625 
Q 21.6875 64.65625 18.265625 61.421875 
Q 14.84375 58.203125 13.875 51.765625 
L 5.078125 53.328125 
Q 6.6875 62.15625 12.390625 67.015625 
Q 18.109375 71.875 26.609375 71.875 
Q 32.46875 71.875 37.390625 69.359375 
Q 42.328125 66.84375 44.9375 62.5 
Q 47.5625 58.15625 47.5625 53.265625 
Q 47.5625 48.640625 45.0625 44.828125 
Q 42.578125 41.015625 37.703125 38.765625 
Q 44.046875 37.3125 47.5625 32.6875 
Q 51.078125 28.078125 51.078125 21.140625 
Q 51.078125 11.765625 44.234375 5.25 
Q 37.40625 -1.265625 26.953125 -1.265625 
Q 17.53125 -1.265625 11.296875 4.34375 
Q 5.078125 9.96875 4.203125 18.890625 
" id="ArialMT-33"/>
      </defs>
      <g style="fill:#262626;" transform="translate(394.81921875 304.93046875)scale(0.1 -0.1)">
       <use xlink:href="#ArialMT-33"/>
       <use x="55.615234375" xlink:href="#ArialMT-30"/>
       <use x="111.23046875" xlink:href="#ArialMT-30"/>
      </g>
     </g>
    </g>
    <g id="xtick_7">
     <g id="line2d_19">
      <path clip-path="url(#pc544976978)" d="M 472.910625 290.772656 
L 472.910625 11.772656 
" style="fill:none;stroke:#ffffff;stroke-linecap:round;"/>
     </g>
     <g id="line2d_20">
      <g>
       <use style="fill:#262626;stroke:#262626;" x="472.910625" xlink:href="#m2e65585082" y="290.77265625"/>
      </g>
     </g>
     <g id="line2d_21">
      <g>
       <use style="fill:#262626;stroke:#262626;" x="472.910625" xlink:href="#m2e65585082" y="11.77265625"/>
      </g>
     </g>
     <g id="text_7">
      <!-- 400 -->
      <defs>
       <path d="M 32.328125 0 
L 32.328125 17.140625 
L 1.265625 17.140625 
L 1.265625 25.203125 
L 33.9375 71.578125 
L 41.109375 71.578125 
L 41.109375 25.203125 
L 50.78125 25.203125 
L 50.78125 17.140625 
L 41.109375 17.140625 
L 41.109375 0 
z
M 32.328125 25.203125 
L 32.328125 57.46875 
L 9.90625 25.203125 
z
" id="ArialMT-34"/>
      </defs>
      <g style="fill:#262626;" transform="translate(464.56921875 304.93046875)scale(0.1 -0.1)">
       <use xlink:href="#ArialMT-34"/>
       <use x="55.615234375" xlink:href="#ArialMT-30"/>
       <use x="111.23046875" xlink:href="#ArialMT-30"/>
      </g>
     </g>
    </g>
    <g id="xtick_8">
     <g id="line2d_22">
      <path clip-path="url(#pc544976978)" d="M 542.660625 290.772656 
L 542.660625 11.772656 
" style="fill:none;stroke:#ffffff;stroke-linecap:round;"/>
     </g>
     <g id="line2d_23">
      <g>
       <use style="fill:#262626;stroke:#262626;" x="542.660625" xlink:href="#m2e65585082" y="290.77265625"/>
      </g>
     </g>
     <g id="line2d_24">
      <g>
       <use style="fill:#262626;stroke:#262626;" x="542.660625" xlink:href="#m2e65585082" y="11.77265625"/>
      </g>
     </g>
     <g id="text_8">
      <!-- 500 -->
      <defs>
       <path d="M 4.15625 18.75 
L 13.375 19.53125 
Q 14.40625 12.796875 18.140625 9.390625 
Q 21.875 6 27.15625 6 
Q 33.5 6 37.890625 10.78125 
Q 42.28125 15.578125 42.28125 23.484375 
Q 42.28125 31 38.0625 35.34375 
Q 33.84375 39.703125 27 39.703125 
Q 22.75 39.703125 19.328125 37.765625 
Q 15.921875 35.84375 13.96875 32.765625 
L 5.71875 33.84375 
L 12.640625 70.609375 
L 48.25 70.609375 
L 48.25 62.203125 
L 19.671875 62.203125 
L 15.828125 42.96875 
Q 22.265625 47.46875 29.34375 47.46875 
Q 38.71875 47.46875 45.15625 40.96875 
Q 51.609375 34.46875 51.609375 24.265625 
Q 51.609375 14.546875 45.953125 7.46875 
Q 39.0625 -1.21875 27.15625 -1.21875 
Q 17.390625 -1.21875 11.203125 4.25 
Q 5.03125 9.71875 4.15625 18.75 
" id="ArialMT-35"/>
      </defs>
      <g style="fill:#262626;" transform="translate(534.31921875 304.93046875)scale(0.1 -0.1)">
       <use xlink:href="#ArialMT-35"/>
       <use x="55.615234375" xlink:href="#ArialMT-30"/>
       <use x="111.23046875" xlink:href="#ArialMT-30"/>
      </g>
     </g>
    </g>
    <g id="xtick_9">
     <g id="line2d_25">
      <path clip-path="url(#pc544976978)" d="M 612.410625 290.772656 
L 612.410625 11.772656 
" style="fill:none;stroke:#ffffff;stroke-linecap:round;"/>
     </g>
     <g id="line2d_26">
      <g>
       <use style="fill:#262626;stroke:#262626;" x="612.410625" xlink:href="#m2e65585082" y="290.77265625"/>
      </g>
     </g>
     <g id="line2d_27">
      <g>
       <use style="fill:#262626;stroke:#262626;" x="612.410625" xlink:href="#m2e65585082" y="11.77265625"/>
      </g>
     </g>
     <g id="text_9">
      <!-- 600 -->
      <defs>
       <path d="M 49.75 54.046875 
L 41.015625 53.375 
Q 39.84375 58.546875 37.703125 60.890625 
Q 34.125 64.65625 28.90625 64.65625 
Q 24.703125 64.65625 21.53125 62.3125 
Q 17.390625 59.28125 14.984375 53.46875 
Q 12.59375 47.65625 12.5 36.921875 
Q 15.671875 41.75 20.265625 44.09375 
Q 24.859375 46.4375 29.890625 46.4375 
Q 38.671875 46.4375 44.84375 39.96875 
Q 51.03125 33.5 51.03125 23.25 
Q 51.03125 16.5 48.125 10.71875 
Q 45.21875 4.9375 40.140625 1.859375 
Q 35.0625 -1.21875 28.609375 -1.21875 
Q 17.625 -1.21875 10.6875 6.859375 
Q 3.765625 14.9375 3.765625 33.5 
Q 3.765625 54.25 11.421875 63.671875 
Q 18.109375 71.875 29.4375 71.875 
Q 37.890625 71.875 43.28125 67.140625 
Q 48.6875 62.40625 49.75 54.046875 
M 13.875 23.1875 
Q 13.875 18.65625 15.796875 14.5 
Q 17.71875 10.359375 21.1875 8.171875 
Q 24.65625 6 28.46875 6 
Q 34.03125 6 38.03125 10.484375 
Q 42.046875 14.984375 42.046875 22.703125 
Q 42.046875 30.125 38.078125 34.390625 
Q 34.125 38.671875 28.125 38.671875 
Q 22.171875 38.671875 18.015625 34.390625 
Q 13.875 30.125 13.875 23.1875 
" id="ArialMT-36"/>
      </defs>
      <g style="fill:#262626;" transform="translate(604.06921875 304.93046875)scale(0.1 -0.1)">
       <use xlink:href="#ArialMT-36"/>
       <use x="55.615234375" xlink:href="#ArialMT-30"/>
       <use x="111.23046875" xlink:href="#ArialMT-30"/>
      </g>
     </g>
    </g>
    <g id="text_10">
     <!-- Length of Set / Min -->
     <defs>
      <path d="M 4.984375 -4.296875 
L 13.53125 -5.5625 
Q 14.0625 -9.515625 16.5 -11.328125 
Q 19.78125 -13.765625 25.4375 -13.765625 
Q 31.546875 -13.765625 34.859375 -11.328125 
Q 38.1875 -8.890625 39.359375 -4.5 
Q 40.046875 -1.8125 39.984375 6.78125 
Q 34.234375 0 25.640625 0 
Q 14.9375 0 9.078125 7.71875 
Q 3.21875 15.4375 3.21875 26.21875 
Q 3.21875 33.640625 5.90625 39.90625 
Q 8.59375 46.1875 13.6875 49.609375 
Q 18.796875 53.03125 25.6875 53.03125 
Q 34.859375 53.03125 40.828125 45.609375 
L 40.828125 51.859375 
L 48.921875 51.859375 
L 48.921875 7.03125 
Q 48.921875 -5.078125 46.453125 -10.125 
Q 44 -15.1875 38.640625 -18.109375 
Q 33.296875 -21.046875 25.484375 -21.046875 
Q 16.21875 -21.046875 10.5 -16.875 
Q 4.78125 -12.703125 4.984375 -4.296875 
M 12.25 26.859375 
Q 12.25 16.65625 16.296875 11.96875 
Q 20.359375 7.28125 26.46875 7.28125 
Q 32.515625 7.28125 36.609375 11.9375 
Q 40.71875 16.609375 40.71875 26.5625 
Q 40.71875 36.078125 36.5 40.90625 
Q 32.28125 45.75 26.3125 45.75 
Q 20.453125 45.75 16.34375 40.984375 
Q 12.25 36.234375 12.25 26.859375 
" id="ArialMT-67"/>
      <path d="M 7.328125 0 
L 7.328125 71.578125 
L 16.796875 71.578125 
L 16.796875 8.453125 
L 52.046875 8.453125 
L 52.046875 0 
z
" id="ArialMT-4c"/>
      <path id="ArialMT-20"/>
      <path d="M 25.78125 7.859375 
L 27.046875 0.09375 
Q 23.34375 -0.6875 20.40625 -0.6875 
Q 15.625 -0.6875 12.984375 0.828125 
Q 10.359375 2.34375 9.28125 4.8125 
Q 8.203125 7.28125 8.203125 15.1875 
L 8.203125 45.015625 
L 1.765625 45.015625 
L 1.765625 51.859375 
L 8.203125 51.859375 
L 8.203125 64.703125 
L 16.9375 69.96875 
L 16.9375 51.859375 
L 25.78125 51.859375 
L 25.78125 45.015625 
L 16.9375 45.015625 
L 16.9375 14.703125 
Q 16.9375 10.9375 17.40625 9.859375 
Q 17.875 8.796875 18.921875 8.15625 
Q 19.96875 7.515625 21.921875 7.515625 
Q 23.390625 7.515625 25.78125 7.859375 
" id="ArialMT-74"/>
      <path d="M 4.5 23 
L 13.421875 23.78125 
Q 14.0625 18.40625 16.375 14.96875 
Q 18.703125 11.53125 23.578125 9.40625 
Q 28.46875 7.28125 34.578125 7.28125 
Q 39.984375 7.28125 44.140625 8.890625 
Q 48.296875 10.5 50.3125 13.296875 
Q 52.34375 16.109375 52.34375 19.4375 
Q 52.34375 22.796875 50.390625 25.3125 
Q 48.4375 27.828125 43.953125 29.546875 
Q 41.0625 30.671875 31.203125 33.03125 
Q 21.34375 35.40625 17.390625 37.5 
Q 12.25 40.1875 9.734375 44.15625 
Q 7.234375 48.140625 7.234375 53.078125 
Q 7.234375 58.5 10.296875 63.203125 
Q 13.375 67.921875 19.28125 70.359375 
Q 25.203125 72.796875 32.421875 72.796875 
Q 40.375 72.796875 46.453125 70.234375 
Q 52.546875 67.671875 55.8125 62.6875 
Q 59.078125 57.71875 59.328125 51.421875 
L 50.25 50.734375 
Q 49.515625 57.515625 45.28125 60.984375 
Q 41.0625 64.453125 32.8125 64.453125 
Q 24.21875 64.453125 20.28125 61.296875 
Q 16.359375 58.15625 16.359375 53.71875 
Q 16.359375 49.859375 19.140625 47.359375 
Q 21.875 44.875 33.421875 42.265625 
Q 44.96875 39.65625 49.265625 37.703125 
Q 55.515625 34.8125 58.484375 30.390625 
Q 61.46875 25.984375 61.46875 20.21875 
Q 61.46875 14.5 58.203125 9.4375 
Q 54.9375 4.390625 48.796875 1.578125 
Q 42.671875 -1.21875 35.015625 -1.21875 
Q 25.296875 -1.21875 18.71875 1.609375 
Q 12.15625 4.4375 8.421875 10.125 
Q 4.6875 15.828125 4.5 23 
" id="ArialMT-53"/>
      <path d="M 6.59375 0 
L 6.59375 71.578125 
L 15.375 71.578125 
L 15.375 45.90625 
Q 21.53125 53.03125 30.90625 53.03125 
Q 36.671875 53.03125 40.921875 50.75 
Q 45.171875 48.484375 47 44.484375 
Q 48.828125 40.484375 48.828125 32.859375 
L 48.828125 0 
L 40.046875 0 
L 40.046875 32.859375 
Q 40.046875 39.453125 37.1875 42.453125 
Q 34.328125 45.453125 29.109375 45.453125 
Q 25.203125 45.453125 21.75 43.421875 
Q 18.3125 41.40625 16.84375 37.9375 
Q 15.375 34.46875 15.375 28.375 
L 15.375 0 
z
" id="ArialMT-68"/>
      <path d="M 42.09375 16.703125 
L 51.171875 15.578125 
Q 49.03125 7.625 43.21875 3.21875 
Q 37.40625 -1.171875 28.375 -1.171875 
Q 17 -1.171875 10.328125 5.828125 
Q 3.65625 12.84375 3.65625 25.484375 
Q 3.65625 38.578125 10.390625 45.796875 
Q 17.140625 53.03125 27.875 53.03125 
Q 38.28125 53.03125 44.875 45.953125 
Q 51.46875 38.875 51.46875 26.03125 
Q 51.46875 25.25 51.421875 23.6875 
L 12.75 23.6875 
Q 13.234375 15.140625 17.578125 10.59375 
Q 21.921875 6.0625 28.421875 6.0625 
Q 33.25 6.0625 36.671875 8.59375 
Q 40.09375 11.140625 42.09375 16.703125 
M 13.234375 30.90625 
L 42.1875 30.90625 
Q 41.609375 37.453125 38.875 40.71875 
Q 34.671875 45.796875 27.984375 45.796875 
Q 21.921875 45.796875 17.796875 41.75 
Q 13.671875 37.703125 13.234375 30.90625 
" id="ArialMT-65"/>
      <path d="M 0 -1.21875 
L 20.75 72.796875 
L 27.78125 72.796875 
L 7.078125 -1.21875 
z
" id="ArialMT-2f"/>
      <path d="M 8.6875 0 
L 8.6875 45.015625 
L 0.921875 45.015625 
L 0.921875 51.859375 
L 8.6875 51.859375 
L 8.6875 57.375 
Q 8.6875 62.59375 9.625 65.140625 
Q 10.890625 68.5625 14.078125 70.671875 
Q 17.28125 72.796875 23.046875 72.796875 
Q 26.765625 72.796875 31.25 71.921875 
L 29.9375 64.265625 
Q 27.203125 64.75 24.75 64.75 
Q 20.75 64.75 19.09375 63.03125 
Q 17.4375 61.328125 17.4375 56.640625 
L 17.4375 51.859375 
L 27.546875 51.859375 
L 27.546875 45.015625 
L 17.4375 45.015625 
L 17.4375 0 
z
" id="ArialMT-66"/>
      <path d="M 6.640625 61.46875 
L 6.640625 71.578125 
L 15.4375 71.578125 
L 15.4375 61.46875 
z
M 6.640625 0 
L 6.640625 51.859375 
L 15.4375 51.859375 
L 15.4375 0 
z
" id="ArialMT-69"/>
      <path d="M 6.59375 0 
L 6.59375 51.859375 
L 14.5 51.859375 
L 14.5 44.484375 
Q 20.21875 53.03125 31 53.03125 
Q 35.6875 53.03125 39.625 51.34375 
Q 43.5625 49.65625 45.515625 46.921875 
Q 47.46875 44.1875 48.25 40.4375 
Q 48.734375 37.984375 48.734375 31.890625 
L 48.734375 0 
L 39.9375 0 
L 39.9375 31.546875 
Q 39.9375 36.921875 38.90625 39.578125 
Q 37.890625 42.234375 35.28125 43.8125 
Q 32.671875 45.40625 29.15625 45.40625 
Q 23.53125 45.40625 19.453125 41.84375 
Q 15.375 38.28125 15.375 28.328125 
L 15.375 0 
z
" id="ArialMT-6e"/>
      <path d="M 7.421875 0 
L 7.421875 71.578125 
L 21.6875 71.578125 
L 38.625 20.90625 
Q 40.96875 13.8125 42.046875 10.296875 
Q 43.265625 14.203125 45.84375 21.78125 
L 62.984375 71.578125 
L 75.734375 71.578125 
L 75.734375 0 
L 66.609375 0 
L 66.609375 59.90625 
L 45.796875 0 
L 37.25 0 
L 16.546875 60.9375 
L 16.546875 0 
z
" id="ArialMT-4d"/>
      <path d="M 3.328125 25.921875 
Q 3.328125 40.328125 11.328125 47.265625 
Q 18.015625 53.03125 27.640625 53.03125 
Q 38.328125 53.03125 45.109375 46.015625 
Q 51.90625 39.015625 51.90625 26.65625 
Q 51.90625 16.65625 48.90625 10.90625 
Q 45.90625 5.171875 40.15625 2 
Q 34.421875 -1.171875 27.640625 -1.171875 
Q 16.75 -1.171875 10.03125 5.8125 
Q 3.328125 12.796875 3.328125 25.921875 
M 12.359375 25.921875 
Q 12.359375 15.96875 16.703125 11.015625 
Q 21.046875 6.0625 27.640625 6.0625 
Q 34.1875 6.0625 38.53125 11.03125 
Q 42.875 16.015625 42.875 26.21875 
Q 42.875 35.84375 38.5 40.796875 
Q 34.125 45.75 27.640625 45.75 
Q 21.046875 45.75 16.703125 40.8125 
Q 12.359375 35.890625 12.359375 25.921875 
" id="ArialMT-6f"/>
     </defs>
     <g style="fill:#262626;" transform="translate(287.24671875 319.925625)scale(0.11 -0.11)">
      <use xlink:href="#ArialMT-4c"/>
      <use x="55.615234375" xlink:href="#ArialMT-65"/>
      <use x="111.23046875" xlink:href="#ArialMT-6e"/>
      <use x="166.845703125" xlink:href="#ArialMT-67"/>
      <use x="222.4609375" xlink:href="#ArialMT-74"/>
      <use x="250.244140625" xlink:href="#ArialMT-68"/>
      <use x="305.859375" xlink:href="#ArialMT-20"/>
      <use x="333.642578125" xlink:href="#ArialMT-6f"/>
      <use x="389.2578125" xlink:href="#ArialMT-66"/>
      <use x="417.041015625" xlink:href="#ArialMT-20"/>
      <use x="444.82421875" xlink:href="#ArialMT-53"/>
      <use x="511.5234375" xlink:href="#ArialMT-65"/>
      <use x="567.138671875" xlink:href="#ArialMT-74"/>
      <use x="594.921875" xlink:href="#ArialMT-20"/>
      <use x="622.705078125" xlink:href="#ArialMT-2f"/>
      <use x="650.48828125" xlink:href="#ArialMT-20"/>
      <use x="678.271484375" xlink:href="#ArialMT-4d"/>
      <use x="761.572265625" xlink:href="#ArialMT-69"/>
      <use x="783.7890625" xlink:href="#ArialMT-6e"/>
     </g>
    </g>
   </g>
   <g id="matplotlib.axis_2">
    <g id="ytick_1">
     <g id="line2d_28">
      <path clip-path="url(#pc544976978)" d="M 54.410625 290.772656 
L 612.410625 290.772656 
" style="fill:none;stroke:#ffffff;stroke-linecap:round;"/>
     </g>
     <g id="line2d_29">
      <g>
       <use style="fill:#262626;stroke:#262626;" x="54.410625" xlink:href="#m2e65585082" y="290.77265625"/>
      </g>
     </g>
     <g id="line2d_30">
      <g>
       <use style="fill:#262626;stroke:#262626;" x="612.410625" xlink:href="#m2e65585082" y="290.77265625"/>
      </g>
     </g>
     <g id="text_11">
      <!-- 0.000 -->
      <defs>
       <path d="M 9.078125 0 
L 9.078125 10.015625 
L 19.09375 10.015625 
L 19.09375 0 
z
" id="ArialMT-2e"/>
      </defs>
      <g style="fill:#262626;" transform="translate(22.38875 293.3578125)scale(0.1 -0.1)">
       <use xlink:href="#ArialMT-30"/>
       <use x="55.615234375" xlink:href="#ArialMT-2e"/>
       <use x="83.3984375" xlink:href="#ArialMT-30"/>
       <use x="139.013671875" xlink:href="#ArialMT-30"/>
       <use x="194.62890625" xlink:href="#ArialMT-30"/>
      </g>
     </g>
    </g>
    <g id="ytick_2">
     <g id="line2d_31">
      <path clip-path="url(#pc544976978)" d="M 54.410625 259.772656 
L 612.410625 259.772656 
" style="fill:none;stroke:#ffffff;stroke-linecap:round;"/>
     </g>
     <g id="line2d_32">
      <g>
       <use style="fill:#262626;stroke:#262626;" x="54.410625" xlink:href="#m2e65585082" y="259.77265625"/>
      </g>
     </g>
     <g id="line2d_33">
      <g>
       <use style="fill:#262626;stroke:#262626;" x="612.410625" xlink:href="#m2e65585082" y="259.77265625"/>
      </g>
     </g>
     <g id="text_12">
      <!-- 0.005 -->
      <g style="fill:#262626;" transform="translate(22.38875 262.3578125)scale(0.1 -0.1)">
       <use xlink:href="#ArialMT-30"/>
       <use x="55.615234375" xlink:href="#ArialMT-2e"/>
       <use x="83.3984375" xlink:href="#ArialMT-30"/>
       <use x="139.013671875" xlink:href="#ArialMT-30"/>
       <use x="194.62890625" xlink:href="#ArialMT-35"/>
      </g>
     </g>
    </g>
    <g id="ytick_3">
     <g id="line2d_34">
      <path clip-path="url(#pc544976978)" d="M 54.410625 228.772656 
L 612.410625 228.772656 
" style="fill:none;stroke:#ffffff;stroke-linecap:round;"/>
     </g>
     <g id="line2d_35">
      <g>
       <use style="fill:#262626;stroke:#262626;" x="54.410625" xlink:href="#m2e65585082" y="228.77265625"/>
      </g>
     </g>
     <g id="line2d_36">
      <g>
       <use style="fill:#262626;stroke:#262626;" x="612.410625" xlink:href="#m2e65585082" y="228.77265625"/>
      </g>
     </g>
     <g id="text_13">
      <!-- 0.010 -->
      <g style="fill:#262626;" transform="translate(22.38875 231.3578125)scale(0.1 -0.1)">
       <use xlink:href="#ArialMT-30"/>
       <use x="55.615234375" xlink:href="#ArialMT-2e"/>
       <use x="83.3984375" xlink:href="#ArialMT-30"/>
       <use x="139.013671875" xlink:href="#ArialMT-31"/>
       <use x="194.62890625" xlink:href="#ArialMT-30"/>
      </g>
     </g>
    </g>
    <g id="ytick_4">
     <g id="line2d_37">
      <path clip-path="url(#pc544976978)" d="M 54.410625 197.772656 
L 612.410625 197.772656 
" style="fill:none;stroke:#ffffff;stroke-linecap:round;"/>
     </g>
     <g id="line2d_38">
      <g>
       <use style="fill:#262626;stroke:#262626;" x="54.410625" xlink:href="#m2e65585082" y="197.77265625"/>
      </g>
     </g>
     <g id="line2d_39">
      <g>
       <use style="fill:#262626;stroke:#262626;" x="612.410625" xlink:href="#m2e65585082" y="197.77265625"/>
      </g>
     </g>
     <g id="text_14">
      <!-- 0.015 -->
      <g style="fill:#262626;" transform="translate(22.38875 200.3578125)scale(0.1 -0.1)">
       <use xlink:href="#ArialMT-30"/>
       <use x="55.615234375" xlink:href="#ArialMT-2e"/>
       <use x="83.3984375" xlink:href="#ArialMT-30"/>
       <use x="139.013671875" xlink:href="#ArialMT-31"/>
       <use x="194.62890625" xlink:href="#ArialMT-35"/>
      </g>
     </g>
    </g>
    <g id="ytick_5">
     <g id="line2d_40">
      <path clip-path="url(#pc544976978)" d="M 54.410625 166.772656 
L 612.410625 166.772656 
" style="fill:none;stroke:#ffffff;stroke-linecap:round;"/>
     </g>
     <g id="line2d_41">
      <g>
       <use style="fill:#262626;stroke:#262626;" x="54.410625" xlink:href="#m2e65585082" y="166.77265625"/>
      </g>
     </g>
     <g id="line2d_42">
      <g>
       <use style="fill:#262626;stroke:#262626;" x="612.410625" xlink:href="#m2e65585082" y="166.77265625"/>
      </g>
     </g>
     <g id="text_15">
      <!-- 0.020 -->
      <g style="fill:#262626;" transform="translate(22.38875 169.3578125)scale(0.1 -0.1)">
       <use xlink:href="#ArialMT-30"/>
       <use x="55.615234375" xlink:href="#ArialMT-2e"/>
       <use x="83.3984375" xlink:href="#ArialMT-30"/>
       <use x="139.013671875" xlink:href="#ArialMT-32"/>
       <use x="194.62890625" xlink:href="#ArialMT-30"/>
      </g>
     </g>
    </g>
    <g id="ytick_6">
     <g id="line2d_43">
      <path clip-path="url(#pc544976978)" d="M 54.410625 135.772656 
L 612.410625 135.772656 
" style="fill:none;stroke:#ffffff;stroke-linecap:round;"/>
     </g>
     <g id="line2d_44">
      <g>
       <use style="fill:#262626;stroke:#262626;" x="54.410625" xlink:href="#m2e65585082" y="135.77265625"/>
      </g>
     </g>
     <g id="line2d_45">
      <g>
       <use style="fill:#262626;stroke:#262626;" x="612.410625" xlink:href="#m2e65585082" y="135.77265625"/>
      </g>
     </g>
     <g id="text_16">
      <!-- 0.025 -->
      <g style="fill:#262626;" transform="translate(22.38875 138.3578125)scale(0.1 -0.1)">
       <use xlink:href="#ArialMT-30"/>
       <use x="55.615234375" xlink:href="#ArialMT-2e"/>
       <use x="83.3984375" xlink:href="#ArialMT-30"/>
       <use x="139.013671875" xlink:href="#ArialMT-32"/>
       <use x="194.62890625" xlink:href="#ArialMT-35"/>
      </g>
     </g>
    </g>
    <g id="ytick_7">
     <g id="line2d_46">
      <path clip-path="url(#pc544976978)" d="M 54.410625 104.772656 
L 612.410625 104.772656 
" style="fill:none;stroke:#ffffff;stroke-linecap:round;"/>
     </g>
     <g id="line2d_47">
      <g>
       <use style="fill:#262626;stroke:#262626;" x="54.410625" xlink:href="#m2e65585082" y="104.77265625"/>
      </g>
     </g>
     <g id="line2d_48">
      <g>
       <use style="fill:#262626;stroke:#262626;" x="612.410625" xlink:href="#m2e65585082" y="104.77265625"/>
      </g>
     </g>
     <g id="text_17">
      <!-- 0.030 -->
      <g style="fill:#262626;" transform="translate(22.38875 107.3578125)scale(0.1 -0.1)">
       <use xlink:href="#ArialMT-30"/>
       <use x="55.615234375" xlink:href="#ArialMT-2e"/>
       <use x="83.3984375" xlink:href="#ArialMT-30"/>
       <use x="139.013671875" xlink:href="#ArialMT-33"/>
       <use x="194.62890625" xlink:href="#ArialMT-30"/>
      </g>
     </g>
    </g>
    <g id="ytick_8">
     <g id="line2d_49">
      <path clip-path="url(#pc544976978)" d="M 54.410625 73.772656 
L 612.410625 73.772656 
" style="fill:none;stroke:#ffffff;stroke-linecap:round;"/>
     </g>
     <g id="line2d_50">
      <g>
       <use style="fill:#262626;stroke:#262626;" x="54.410625" xlink:href="#m2e65585082" y="73.77265625"/>
      </g>
     </g>
     <g id="line2d_51">
      <g>
       <use style="fill:#262626;stroke:#262626;" x="612.410625" xlink:href="#m2e65585082" y="73.77265625"/>
      </g>
     </g>
     <g id="text_18">
      <!-- 0.035 -->
      <g style="fill:#262626;" transform="translate(22.38875 76.3578125)scale(0.1 -0.1)">
       <use xlink:href="#ArialMT-30"/>
       <use x="55.615234375" xlink:href="#ArialMT-2e"/>
       <use x="83.3984375" xlink:href="#ArialMT-30"/>
       <use x="139.013671875" xlink:href="#ArialMT-33"/>
       <use x="194.62890625" xlink:href="#ArialMT-35"/>
      </g>
     </g>
    </g>
    <g id="ytick_9">
     <g id="line2d_52">
      <path clip-path="url(#pc544976978)" d="M 54.410625 42.772656 
L 612.410625 42.772656 
" style="fill:none;stroke:#ffffff;stroke-linecap:round;"/>
     </g>
     <g id="line2d_53">
      <g>
       <use style="fill:#262626;stroke:#262626;" x="54.410625" xlink:href="#m2e65585082" y="42.77265625"/>
      </g>
     </g>
     <g id="line2d_54">
      <g>
       <use style="fill:#262626;stroke:#262626;" x="612.410625" xlink:href="#m2e65585082" y="42.77265625"/>
      </g>
     </g>
     <g id="text_19">
      <!-- 0.040 -->
      <g style="fill:#262626;" transform="translate(22.38875 45.3578125)scale(0.1 -0.1)">
       <use xlink:href="#ArialMT-30"/>
       <use x="55.615234375" xlink:href="#ArialMT-2e"/>
       <use x="83.3984375" xlink:href="#ArialMT-30"/>
       <use x="139.013671875" xlink:href="#ArialMT-34"/>
       <use x="194.62890625" xlink:href="#ArialMT-30"/>
      </g>
     </g>
    </g>
    <g id="ytick_10">
     <g id="line2d_55">
      <path clip-path="url(#pc544976978)" d="M 54.410625 11.772656 
L 612.410625 11.772656 
" style="fill:none;stroke:#ffffff;stroke-linecap:round;"/>
     </g>
     <g id="line2d_56">
      <g>
       <use style="fill:#262626;stroke:#262626;" x="54.410625" xlink:href="#m2e65585082" y="11.77265625"/>
      </g>
     </g>
     <g id="line2d_57">
      <g>
       <use style="fill:#262626;stroke:#262626;" x="612.410625" xlink:href="#m2e65585082" y="11.77265625"/>
      </g>
     </g>
     <g id="text_20">
      <!-- 0.045 -->
      <g style="fill:#262626;" transform="translate(22.38875 14.3578125)scale(0.1 -0.1)">
       <use xlink:href="#ArialMT-30"/>
       <use x="55.615234375" xlink:href="#ArialMT-2e"/>
       <use x="83.3984375" xlink:href="#ArialMT-30"/>
       <use x="139.013671875" xlink:href="#ArialMT-34"/>
       <use x="194.62890625" xlink:href="#ArialMT-35"/>
      </g>
     </g>
    </g>
    <g id="text_21">
     <!-- Density -->
     <defs>
      <path d="M 7.71875 0 
L 7.71875 71.578125 
L 32.375 71.578125 
Q 40.71875 71.578125 45.125 70.5625 
Q 51.265625 69.140625 55.609375 65.4375 
Q 61.28125 60.640625 64.078125 53.1875 
Q 66.890625 45.75 66.890625 36.1875 
Q 66.890625 28.03125 64.984375 21.734375 
Q 63.09375 15.4375 60.109375 11.296875 
Q 57.125 7.171875 53.578125 4.796875 
Q 50.046875 2.4375 45.046875 1.21875 
Q 40.046875 0 33.546875 0 
z
M 17.1875 8.453125 
L 32.46875 8.453125 
Q 39.546875 8.453125 43.578125 9.765625 
Q 47.609375 11.078125 50 13.484375 
Q 53.375 16.84375 55.25 22.53125 
Q 57.125 28.21875 57.125 36.328125 
Q 57.125 47.5625 53.4375 53.59375 
Q 49.75 59.625 44.484375 61.671875 
Q 40.671875 63.140625 32.234375 63.140625 
L 17.1875 63.140625 
z
" id="ArialMT-44"/>
      <path d="M 6.203125 -19.96875 
L 5.21875 -11.71875 
Q 8.109375 -12.5 10.25 -12.5 
Q 13.1875 -12.5 14.9375 -11.515625 
Q 16.703125 -10.546875 17.828125 -8.796875 
Q 18.65625 -7.46875 20.515625 -2.25 
Q 20.75 -1.515625 21.296875 -0.09375 
L 1.609375 51.859375 
L 11.078125 51.859375 
L 21.875 21.828125 
Q 23.96875 16.109375 25.640625 9.8125 
Q 27.15625 15.875 29.25 21.625 
L 40.328125 51.859375 
L 49.125 51.859375 
L 29.390625 -0.875 
Q 26.21875 -9.421875 24.46875 -12.640625 
Q 22.125 -17 19.09375 -19.015625 
Q 16.0625 -21.046875 11.859375 -21.046875 
Q 9.328125 -21.046875 6.203125 -19.96875 
" id="ArialMT-79"/>
      <path d="M 3.078125 15.484375 
L 11.765625 16.84375 
Q 12.5 11.625 15.84375 8.84375 
Q 19.1875 6.0625 25.203125 6.0625 
Q 31.25 6.0625 34.171875 8.515625 
Q 37.109375 10.984375 37.109375 14.3125 
Q 37.109375 17.28125 34.515625 19 
Q 32.71875 20.171875 25.53125 21.96875 
Q 15.875 24.421875 12.140625 26.203125 
Q 8.40625 27.984375 6.46875 31.125 
Q 4.546875 34.28125 4.546875 38.09375 
Q 4.546875 41.546875 6.125 44.5 
Q 7.71875 47.46875 10.453125 49.421875 
Q 12.5 50.921875 16.03125 51.96875 
Q 19.578125 53.03125 23.640625 53.03125 
Q 29.734375 53.03125 34.34375 51.265625 
Q 38.96875 49.515625 41.15625 46.5 
Q 43.359375 43.5 44.1875 38.484375 
L 35.59375 37.3125 
Q 35.015625 41.3125 32.203125 43.546875 
Q 29.390625 45.796875 24.265625 45.796875 
Q 18.21875 45.796875 15.625 43.796875 
Q 13.03125 41.796875 13.03125 39.109375 
Q 13.03125 37.40625 14.109375 36.03125 
Q 15.1875 34.625 17.484375 33.6875 
Q 18.796875 33.203125 25.25 31.453125 
Q 34.578125 28.953125 38.25 27.359375 
Q 41.9375 25.78125 44.03125 22.75 
Q 46.140625 19.734375 46.140625 15.234375 
Q 46.140625 10.84375 43.578125 6.953125 
Q 41.015625 3.078125 36.171875 0.953125 
Q 31.34375 -1.171875 25.25 -1.171875 
Q 15.140625 -1.171875 9.84375 3.03125 
Q 4.546875 7.234375 3.078125 15.484375 
" id="ArialMT-73"/>
     </defs>
     <g style="fill:#262626;" transform="translate(15.07359375 169.61171875)rotate(-90.0)scale(0.11 -0.11)">
      <use xlink:href="#ArialMT-44"/>
      <use x="72.216796875" xlink:href="#ArialMT-65"/>
      <use x="127.83203125" xlink:href="#ArialMT-6e"/>
      <use x="183.447265625" xlink:href="#ArialMT-73"/>
      <use x="233.447265625" xlink:href="#ArialMT-69"/>
      <use x="255.6640625" xlink:href="#ArialMT-74"/>
      <use x="283.447265625" xlink:href="#ArialMT-79"/>
     </g>
    </g>
   </g>
   <g id="line2d_58">
    <path clip-path="url(#pc544976978)" d="M 69.058125 290.772656 
L 167.487314 290.668248 
L 170.967134 290.426367 
L 173.45272 290.039573 
L 175.441188 289.519485 
L 177.429657 288.748456 
L 179.418125 287.682968 
L 181.406593 286.3156 
L 183.892179 284.262146 
L 188.366233 280.425487 
L 189.857584 279.412998 
L 191.348936 278.662229 
L 192.840287 278.219874 
L 194.331639 278.099208 
L 195.82299 278.27664 
L 197.314341 278.69407 
L 199.799927 279.684879 
L 202.285512 280.6342 
L 203.776864 280.99405 
L 205.268215 281.093963 
L 206.262449 280.980576 
L 207.256684 280.699584 
L 208.250918 280.229833 
L 209.245152 279.547513 
L 210.239386 278.624502 
L 211.23362 277.42696 
L 212.227855 275.914408 
L 213.222089 274.039503 
L 214.216323 271.748712 
L 215.210557 268.984012 
L 216.204792 265.685721 
L 217.199026 261.796415 
L 218.19326 257.265861 
L 219.684611 249.191018 
L 221.175963 239.554378 
L 222.667314 228.457356 
L 224.655783 211.895974 
L 228.63272 177.758858 
L 230.124071 166.949948 
L 231.118305 161.004045 
L 232.112539 156.312158 
L 233.106774 153.041425 
L 233.603891 151.977641 
L 234.101008 151.308497 
L 234.598125 151.039478 
L 235.095242 151.1722 
L 235.592359 151.70439 
L 236.089476 152.629931 
L 236.586593 153.938976 
L 237.580828 157.650624 
L 238.575062 162.693866 
L 239.569296 168.879989 
L 241.060648 179.815621 
L 243.546233 200.464613 
L 246.528936 225.036036 
L 248.517404 239.319319 
L 250.008756 248.464161 
L 251.500107 256.184597 
L 252.991458 262.524725 
L 254.48281 267.591856 
L 255.477044 270.328579 
L 256.471278 272.599274 
L 257.465512 274.441577 
L 258.459747 275.889194 
L 259.453981 276.971501 
L 260.448215 277.713903 
L 261.442449 278.138786 
L 262.436684 278.266886 
L 263.430918 278.118899 
L 264.425152 277.717146 
L 265.419386 277.087136 
L 266.910738 275.781205 
L 268.402089 274.154705 
L 272.876143 268.975173 
L 274.367494 267.746653 
L 275.361729 267.207308 
L 276.355963 266.931653 
L 277.350197 266.941377 
L 278.344431 267.245528 
L 279.338666 267.84004 
L 280.3329 268.708133 
L 281.327134 269.821552 
L 282.818485 271.867094 
L 284.806954 275.050247 
L 288.783891 281.550177 
L 290.772359 284.271686 
L 292.263711 285.949395 
L 293.755062 287.301953 
L 295.246413 288.347521 
L 296.737765 289.122154 
L 298.229116 289.670542 
L 300.217584 290.128421 
L 302.206053 290.361034 
L 305.188756 290.443075 
L 309.165693 290.283691 
L 319.108035 289.764851 
L 323.084972 289.854841 
L 329.547494 290.286942 
L 336.010017 290.63157 
L 342.969657 290.753604 
L 364.345693 290.772656 
L 423.50263 290.674737 
L 429.468035 290.417472 
L 441.398846 289.764162 
L 445.375783 289.866033 
L 452.335422 290.33705 
L 458.300828 290.639072 
L 465.757584 290.7578 
L 491.607675 290.772656 
L 565.678125 290.772656 
L 565.678125 290.772656 
" style="fill:none;stroke:#4c72b0;stroke-linecap:round;stroke-width:1.75;"/>
   </g>
   <g id="line2d_59">
    <path clip-path="url(#pc544976978)" d="M 154.501875 283.024947 
L 157.756875 281.112576 
L 161.011875 278.94281 
L 164.576875 276.300685 
L 168.916875 272.787964 
L 176.666875 266.145754 
L 181.936875 261.783682 
L 185.811875 258.864224 
L 189.066875 256.678827 
L 192.166875 254.859694 
L 195.111875 253.382321 
L 198.056875 252.149308 
L 201.001875 251.149923 
L 204.101875 250.329933 
L 207.356875 249.696292 
L 210.921875 249.232908 
L 214.796875 248.963327 
L 218.826875 248.911843 
L 222.856875 249.083584 
L 226.731875 249.466846 
L 230.451875 250.050842 
L 234.171875 250.859863 
L 237.891875 251.899302 
L 241.766875 253.219965 
L 245.951875 254.893917 
L 250.601875 257.005357 
L 256.181875 259.798668 
L 263.311875 263.631419 
L 273.231875 269.233041 
L 289.041875 278.181461 
L 294.466875 280.96534 
L 299.116875 283.106204 
L 303.301875 284.794807 
L 307.331875 286.186735 
L 309.346875 286.794611 
L 309.346875 286.794611 
" style="fill:none;stroke:#55a868;stroke-linecap:round;stroke-width:1.75;"/>
   </g>
   <g id="line2d_60">
    <path clip-path="url(#pc544976978)" d="M 137.413125 290.772656 
L 179.640152 290.661897 
L 181.427539 290.408195 
L 182.76808 289.975079 
L 183.885197 289.347373 
L 184.778891 288.609332 
L 185.672584 287.623846 
L 186.789702 286.026257 
L 188.130242 283.64746 
L 190.811323 278.6443 
L 191.705017 277.436313 
L 192.375287 276.828394 
L 193.045557 276.517813 
L 193.715828 276.520315 
L 194.386098 276.82947 
L 195.056368 277.417632 
L 195.950062 278.555429 
L 197.290602 280.72967 
L 199.524837 284.425721 
L 200.641954 285.907811 
L 201.759071 287.047766 
L 202.876188 287.854775 
L 203.993305 288.361476 
L 205.110422 288.595114 
L 206.227539 288.564742 
L 207.344657 288.264187 
L 208.461774 287.685495 
L 209.578891 286.836009 
L 210.919431 285.513154 
L 213.823936 282.162524 
L 215.611323 280.323547 
L 219.632945 276.514715 
L 220.526639 275.103719 
L 221.196909 273.687293 
L 221.867179 271.852881 
L 222.537449 269.48082 
L 223.20772 266.429839 
L 223.87799 262.534923 
L 224.54826 257.607546 
L 225.441954 249.070624 
L 226.335648 237.814671 
L 227.229341 223.37173 
L 228.123035 205.429201 
L 229.240152 178.088412 
L 230.804116 132.657939 
L 233.03835 67.259922 
L 233.932044 47.245962 
L 234.602314 36.495661 
L 235.049161 31.738394 
L 235.496008 29.071742 
L 235.719431 28.548844 
L 235.942855 28.57292 
L 236.166278 29.144213 
L 236.613125 31.910266 
L 237.059972 36.773136 
L 237.730242 47.69812 
L 238.623936 67.974679 
L 239.741053 99.56931 
L 242.645557 185.150696 
L 243.762675 210.920555 
L 244.656368 227.325092 
L 245.550062 240.134067 
L 246.443756 249.793164 
L 247.337449 256.885061 
L 248.231143 262.012354 
L 249.124837 265.720006 
L 250.01853 268.455731 
L 250.912224 270.559886 
L 252.029341 272.662229 
L 253.593305 275.116955 
L 256.274386 278.863337 
L 258.955467 282.278441 
L 260.742855 284.249712 
L 262.306819 285.673771 
L 263.647359 286.59285 
L 264.764476 287.062821 
L 265.65817 287.169493 
L 266.32844 287.042822 
L 266.998711 286.695627 
L 267.668981 286.084833 
L 268.339251 285.167059 
L 269.009521 283.90329 
L 269.903215 281.632612 
L 270.796909 278.679146 
L 271.914026 274.13061 
L 275.488801 258.486894 
L 276.159071 256.635089 
L 276.829341 255.474483 
L 277.276188 255.125344 
L 277.723035 255.129707 
L 278.169882 255.487294 
L 278.616729 256.187037 
L 279.286999 257.829114 
L 280.180693 260.945225 
L 281.29781 265.83322 
L 283.978891 277.974093 
L 285.096008 281.917316 
L 285.989702 284.386946 
L 286.883395 286.275477 
L 287.777089 287.66117 
L 288.670783 288.643228 
L 289.564476 289.320662 
L 290.681593 289.867844 
L 292.022134 290.244502 
L 293.809521 290.474767 
L 296.043756 290.505062 
L 298.501413 290.310791 
L 303.863575 289.78532 
L 306.09781 289.878678 
L 309.672584 290.324372 
L 313.023936 290.643194 
L 316.822134 290.75688 
L 329.780693 290.772656 
L 360.613125 290.772656 
L 360.613125 290.772656 
" style="fill:none;stroke:#c44e52;stroke-linecap:round;stroke-width:1.75;"/>
   </g>
   <g id="patch_3">
    <path d="M 54.410625 290.772656 
L 54.410625 11.772656 
" style="fill:none;"/>
   </g>
   <g id="patch_4">
    <path d="M 54.410625 11.772656 
L 612.410625 11.772656 
" style="fill:none;"/>
   </g>
   <g id="patch_5">
    <path d="M 612.410625 290.772656 
L 612.410625 11.772656 
" style="fill:none;"/>
   </g>
   <g id="patch_6">
    <path d="M 54.410625 290.772656 
L 612.410625 290.772656 
" style="fill:none;"/>
   </g>
   <g id="legend_1">
    <g id="line2d_61">
     <path d="M 522.591875 24.430469 
L 542.591875 24.430469 
" style="fill:none;stroke:#4c72b0;stroke-linecap:round;stroke-width:1.75;"/>
    </g>
    <g id="line2d_62"/>
    <g id="text_22">
     <!-- Mixcloud -->
     <defs>
      <path d="M 0.734375 0 
L 19.671875 26.953125 
L 2.15625 51.859375 
L 13.140625 51.859375 
L 21.09375 39.703125 
Q 23.34375 36.234375 24.703125 33.890625 
Q 26.859375 37.109375 28.65625 39.59375 
L 37.40625 51.859375 
L 47.90625 51.859375 
L 29.984375 27.4375 
L 49.265625 0 
L 38.484375 0 
L 27.828125 16.109375 
L 25 20.453125 
L 11.375 0 
z
" id="ArialMT-78"/>
      <path d="M 40.234375 0 
L 40.234375 6.546875 
Q 35.296875 -1.171875 25.734375 -1.171875 
Q 19.53125 -1.171875 14.328125 2.25 
Q 9.125 5.671875 6.265625 11.796875 
Q 3.421875 17.921875 3.421875 25.875 
Q 3.421875 33.640625 6 39.96875 
Q 8.59375 46.296875 13.765625 49.65625 
Q 18.953125 53.03125 25.34375 53.03125 
Q 30.03125 53.03125 33.6875 51.046875 
Q 37.359375 49.078125 39.65625 45.90625 
L 39.65625 71.578125 
L 48.390625 71.578125 
L 48.390625 0 
z
M 12.453125 25.875 
Q 12.453125 15.921875 16.640625 10.984375 
Q 20.84375 6.0625 26.5625 6.0625 
Q 32.328125 6.0625 36.34375 10.765625 
Q 40.375 15.484375 40.375 25.140625 
Q 40.375 35.796875 36.265625 40.765625 
Q 32.171875 45.75 26.171875 45.75 
Q 20.3125 45.75 16.375 40.96875 
Q 12.453125 36.1875 12.453125 25.875 
" id="ArialMT-64"/>
      <path d="M 40.4375 19 
L 49.078125 17.875 
Q 47.65625 8.9375 41.8125 3.875 
Q 35.984375 -1.171875 27.484375 -1.171875 
Q 16.84375 -1.171875 10.375 5.78125 
Q 3.90625 12.75 3.90625 25.734375 
Q 3.90625 34.125 6.6875 40.421875 
Q 9.46875 46.734375 15.15625 49.875 
Q 20.84375 53.03125 27.546875 53.03125 
Q 35.984375 53.03125 41.359375 48.75 
Q 46.734375 44.484375 48.25 36.625 
L 39.703125 35.296875 
Q 38.484375 40.53125 35.375 43.15625 
Q 32.28125 45.796875 27.875 45.796875 
Q 21.234375 45.796875 17.078125 41.03125 
Q 12.9375 36.28125 12.9375 25.984375 
Q 12.9375 15.53125 16.9375 10.796875 
Q 20.953125 6.0625 27.390625 6.0625 
Q 32.5625 6.0625 36.03125 9.234375 
Q 39.5 12.40625 40.4375 19 
" id="ArialMT-63"/>
      <path d="M 40.578125 0 
L 40.578125 7.625 
Q 34.515625 -1.171875 24.125 -1.171875 
Q 19.53125 -1.171875 15.546875 0.578125 
Q 11.578125 2.34375 9.640625 5 
Q 7.71875 7.671875 6.9375 11.53125 
Q 6.390625 14.109375 6.390625 19.734375 
L 6.390625 51.859375 
L 15.1875 51.859375 
L 15.1875 23.09375 
Q 15.1875 16.21875 15.71875 13.8125 
Q 16.546875 10.359375 19.234375 8.375 
Q 21.921875 6.390625 25.875 6.390625 
Q 29.828125 6.390625 33.296875 8.421875 
Q 36.765625 10.453125 38.203125 13.9375 
Q 39.65625 17.4375 39.65625 24.078125 
L 39.65625 51.859375 
L 48.4375 51.859375 
L 48.4375 0 
z
" id="ArialMT-75"/>
      <path d="M 6.390625 0 
L 6.390625 71.578125 
L 15.1875 71.578125 
L 15.1875 0 
z
" id="ArialMT-6c"/>
     </defs>
     <g style="fill:#262626;" transform="translate(550.591875 27.93046875)scale(0.1 -0.1)">
      <use xlink:href="#ArialMT-4d"/>
      <use x="83.30078125" xlink:href="#ArialMT-69"/>
      <use x="105.517578125" xlink:href="#ArialMT-78"/>
      <use x="155.517578125" xlink:href="#ArialMT-63"/>
      <use x="205.517578125" xlink:href="#ArialMT-6c"/>
      <use x="227.734375" xlink:href="#ArialMT-6f"/>
      <use x="283.349609375" xlink:href="#ArialMT-75"/>
      <use x="338.96484375" xlink:href="#ArialMT-64"/>
     </g>
    </g>
    <g id="line2d_63">
     <path d="M 522.591875 38.575781 
L 542.591875 38.575781 
" style="fill:none;stroke:#55a868;stroke-linecap:round;stroke-width:1.75;"/>
    </g>
    <g id="line2d_64"/>
    <g id="text_23">
     <!-- Other -->
     <defs>
      <path d="M 6.5 0 
L 6.5 51.859375 
L 14.40625 51.859375 
L 14.40625 44 
Q 17.4375 49.515625 20 51.265625 
Q 22.5625 53.03125 25.640625 53.03125 
Q 30.078125 53.03125 34.671875 50.203125 
L 31.640625 42.046875 
Q 28.421875 43.953125 25.203125 43.953125 
Q 22.3125 43.953125 20.015625 42.21875 
Q 17.71875 40.484375 16.75 37.40625 
Q 15.28125 32.71875 15.28125 27.15625 
L 15.28125 0 
z
" id="ArialMT-72"/>
      <path d="M 4.828125 34.859375 
Q 4.828125 52.6875 14.390625 62.765625 
Q 23.96875 72.859375 39.109375 72.859375 
Q 49.03125 72.859375 56.984375 68.109375 
Q 64.9375 63.375 69.109375 54.90625 
Q 73.296875 46.4375 73.296875 35.6875 
Q 73.296875 24.8125 68.890625 16.21875 
Q 64.5 7.625 56.4375 3.203125 
Q 48.390625 -1.21875 39.0625 -1.21875 
Q 28.953125 -1.21875 20.984375 3.65625 
Q 13.03125 8.546875 8.921875 16.984375 
Q 4.828125 25.4375 4.828125 34.859375 
M 14.59375 34.71875 
Q 14.59375 21.78125 21.546875 14.328125 
Q 28.515625 6.890625 39.015625 6.890625 
Q 49.703125 6.890625 56.609375 14.40625 
Q 63.53125 21.921875 63.53125 35.75 
Q 63.53125 44.484375 60.578125 51 
Q 57.625 57.515625 51.921875 61.109375 
Q 46.234375 64.703125 39.15625 64.703125 
Q 29.109375 64.703125 21.84375 57.78125 
Q 14.59375 50.875 14.59375 34.71875 
" id="ArialMT-4f"/>
     </defs>
     <g style="fill:#262626;" transform="translate(550.591875 42.07578125)scale(0.1 -0.1)">
      <use xlink:href="#ArialMT-4f"/>
      <use x="77.783203125" xlink:href="#ArialMT-74"/>
      <use x="105.56640625" xlink:href="#ArialMT-68"/>
      <use x="161.181640625" xlink:href="#ArialMT-65"/>
      <use x="216.796875" xlink:href="#ArialMT-72"/>
     </g>
    </g>
    <g id="line2d_65">
     <path d="M 522.591875 52.721094 
L 542.591875 52.721094 
" style="fill:none;stroke:#c44e52;stroke-linecap:round;stroke-width:1.75;"/>
    </g>
    <g id="line2d_66"/>
    <g id="text_24">
     <!-- Soundcloud -->
     <g style="fill:#262626;" transform="translate(550.591875 56.22109375)scale(0.1 -0.1)">
      <use xlink:href="#ArialMT-53"/>
      <use x="66.69921875" xlink:href="#ArialMT-6f"/>
      <use x="122.314453125" xlink:href="#ArialMT-75"/>
      <use x="177.9296875" xlink:href="#ArialMT-6e"/>
      <use x="233.544921875" xlink:href="#ArialMT-64"/>
      <use x="289.16015625" xlink:href="#ArialMT-63"/>
      <use x="339.16015625" xlink:href="#ArialMT-6c"/>
      <use x="361.376953125" xlink:href="#ArialMT-6f"/>
      <use x="416.9921875" xlink:href="#ArialMT-75"/>
      <use x="472.607421875" xlink:href="#ArialMT-64"/>
     </g>
    </g>
   </g>
  </g>
 </g>
 <defs>
  <clipPath id="pc544976978">
   <rect height="279.0" width="558.0" x="54.410625" y="11.77265625"/>
  </clipPath>
 </defs>
</svg>
